<mxfile modified="2020-02-14T16:00:19.472Z" host="www.draw.io" agent="Mozilla/5.0 (X11; Fedora; Linux x86_64; rv:72.0) Gecko/20100101 Firefox/72.0" etag="8znNkkCtyG9gib3tq8G8" version="12.7.0" type="github" pages="6">
  <diagram id="aeb7LgtqN6Uwn5X8-ysb" name="Stage 1-2 Via WP7">
    <mxGraphModel dx="1662" dy="889" grid="1" gridSize="10" guides="1" tooltips="1" connect="1" arrows="1" fold="1" page="1" pageScale="1" pageWidth="827" pageHeight="1169" math="0" shadow="0">
      <root>
        <mxCell id="0"/>
        <mxCell id="1" parent="0"/>
        <mxCell id="qbF9Ut1Y2wVGO2Ht8OBC-1" value="&lt;div&gt;&lt;img src=&quot;data:image/png;base64,iVBORw0KGgoAAAANSUhEUgAAATUAAAAuCAYAAABJeY7oAAAACXBIWXMAAA7GAAAO5gF/UekwAAAUIElEQVR4nO2dCTwW2//Hs+8iESGt5KZE15Ktq7gt2lNaLO3X0g1FCW0q3VK0oySh/hEqS0oLcrsJFUV1045EtuxZf+frNt3xNM+WR/q75/16zeuZOefMme+ZOfOZ71lmHt729vY+GAwG01vg7WkDMBgMhpNgUcNgML0KLGoYDKZXgUUNg8H0KrCoYTCYXgUWNQwG06vAoobBYHoVWNQwGEyvAosaBoPpVWBRw2AwvQosahgMpleBRQ2DwfQqsKhh/nNk5L02zHv+XpNefL++IqXGP49IFBcVrMrMe2tQVVvfz0hjeJIAP28jVfqikiqljMdvDA3GDrsmLSlaAmGPnhdrZuW9MSTSiAjz16gOkc0ZPXzgPc6XiDF/5byc9PfrUjV68bJS4oWmeiMv8XJztyTezjOX69+3YKyKwl0i/mLywyWV1fX9iW1xEYGqMcoKmSMGST+mzQvSpWTmTzHQ/PdcMCM+LdcCbPj5p0G32S0bFVjUMP85Fm48ldzW1s7DKI3umCEp5/5YZrzILTi5pbWNd76pxikf5znLqdLabAlLfF7wQVW2v3hheqiL4j/HCE6pa/gkRpWej5enOXLvciONkYrpXS8NcyzdTye1tbdzM0pjO99wj9syUze7XRHnYfv1ZS8uIs7JJyqc3n7aakq34Dxxc3O3wbbbwUsnrt55MpsHCeTjGE8xeg8CgvCETDvPo3HHYD3J32G0stKAXHbKRgUWNcx/Di4urvY+fdr7oLu2HQlREW18LRIjXbXBqf+m7dPnU1OLEL38QPTgl5eHu+VLYHs7V8e+7e19iGOUVdXJNLe08qOFb866E3eexW5B9zxvE8RlPX6rpyTX7wWVd4M8PgO42cFzLCmvlXtfVq0waoTsA/CsIL6gpHLIHyeT9vQVE6pcMlUrYNRwuQedC4wK296HYXk1RiowFVgxEYGPokICNbBejGyA34zcN0a61vsLM8JdB8J2U0sLP/y2trXxuvjGhBx2W7CQUZ7bAhIOEet1DU2izGxgBSxq3Uh5ebnstGnTiq9evSotISFR9r2OW1dXJ+7p6Xnu0aNHuoMHD34aFBSk972O/f8Jq+nax7zsp6/prvy5kJhYmmn7k4/hc/q699GIW5tgfbFbyM2ofSsNYN3cJaij6UX2kAjMXU+mEXErtoXF574o1pxmOOr8sU0WCxZsCE7NyH1tRKQ9m5i1Gn5fxm/jIbwngq6Ul5ubqy10h/UUsnfptC867OLNHMvSihq56tpGCRBd8j5xt3It3Jb/ulFeRuINVZ4ufheDiQcCJ2E5Q0dHxytKSkpP161b58RpI74VGxubrPnz5x+ZPn16SE/bwik4Uaa4uLhljY2NwklJSdKoYrdy0LyOepCenj6ZNvzw4cOm2tra1zl5rN6Iq42Je0DUn66t6GZuJTWBQQDbO5xHaiAefptb2/jgt66+SRyJyUBC0CTEhCrUVRTupmblT4XtgpKqIeD5dWdZDrjMswJRg/X4tEcWi6dqBdKm+W3nuZj4Q7bjaMMbPzULR19/sLQ77MKeGqKlpYWPl5e3uaft4BTv3r0bAg+grggao3MCort27VpXchjv52YUp4/VmyGE6lt5mP9Og1jPjtgkBb8gFpmoudrdgga0tP3rZfHy8HS6fooDJF4jYR2c+/ydZtr9578aag5PIscv2BicglScCzxAEHNY55RdHBG1yspKGV9f3wNZWVkToR9BV1f3qpOT0zpxcfEKiLe0tMzW09O7/OTJE62ysjI5SLNhwwb7sWPHphF5fPjwQd7b2/vEw4cP9fr161dibW29Z+fOnSfpNd3geC9fvlQ7cuTInlOnTnkqKys/2L179/yGhgZRf3//XampqbPq6+vFRo8efQcdy0FWVvaLCwz2gI15eXk6FRUVA1avXr0F5eExadKk8xkZGaa5ubk6SBT+3rFjx+LHjx9rHT9+fHtNTY3k1KlTw11cXNYQ/Sy0QNk+l0Ef2fxh6dKlu8nxERERa2NiYuxKSkoUxMTEqkxNTc/Z29u7Ezc0vTIx248MSn/8+vXrC6CSZGZmmpibmx9dtGiRHyvXiPacwPmgKieIJT8/P2UHMPIwC7ds2bKU8NpKS0sVZsyYUYBskgTb6R1LU1MzlZl9WlpaN/Lz89WheQ3lc3Z2dlJXV+9otrFy3X8EfEKv72z93OQaJNs14VEbJpdNrF9LfzrLVHfkJUEBvnpaAekO2trauLWX+Lwjtn/5eUQiOV5IkL9uorZyws2MZ2aomRp+7+xGGSKuqLRK6eGzIi1YXz3PwCcw6s8NnLSNI6Lm7u4eiSpsZWRk5EhUWB5Uqc9s3bo1zM/Pz4xIgyrb7ICAgAmSkpIfEhISbFB8+KVLl5SIeA8PjwhFRcVnly9flkMVVATyZHRMaAbn5OQY0DbVtm3bFtrc3MyPREEHbDpx4sR2VLkvhISE/EzuY0hOTp4XGBho2L9//2LYBlFDzbblSBTMoR8K/QYiAYvV0NBIDQ8PH1tVVSW9YsWKO3CzGRoaxlLZBGUYMGBAQXx8vDzcZG5ublHkeCkpqff79++fLi8v//LNmzcq69evj5ORkSlcuHDhQUZlYrYfmU2bNq0Gr6m1tZUXHd+WnWtEe066E9pj2dnZpTCzLyUlZU5wcLAO1CF4+KDzlRAdHT0cHnqsXncyofEZDmEJGfbkMB4k2Ke2W5pxQhja2tq5I5PuL7+d82pibV1j37KPdTKtpD6kfevnLKPdZ9S8nTWs5k/u9F/ldfYi/OqpD00O32VtQlVmKGv0jWwbcpiEmHC5i80kzznG6nRHOImy2HlHRIkICVR/gD60ukYJkh2FMv3EvqozAZ4L56rM2tFQXlUnfSzy1ib7BUYdD/lZzsc7pouICgtUw4jrDydqRUVFQ+/fvz8BBIp4Ejs6Oq5H3kEueC5EpZ0zZ85xqIywbmRkFOvl5RUCT2nwygoLC4ejm1l/3759MwUEBBpgWbly5fZ79+4Zs2MLeAVQ8WNjYwdBvhBma2vriW6UNeABDR8+/CGRdubMmUG0Ny+yMVBFRaVj5MjMzOx0YmKiFdwUUC5YkPdxDTw3KlFDZRiWnZ1tiPaRFRQUrIcFiaDX77//fo1IY2Ji8kWoQTiRF3UMeSaTqMSJzLfuR8DqNaI6J1RcuHDhtytXrliSw6KiopQJr4oVyMdi1T7k8QUTdQiuhYKCwnN0vedCK4DV604LbT8WdFw/eVUyhlPezqemFsEXBR9UyWFSEiKlyccdVYjRSzL0RgCR90opzNmRm6Rmrg3IfPu+cihs/5Xz0lh5lten3CiPvuC1kdNCWWnzh+0zCZm2zEQNvOeS8pqB7e3V8uRw5B3GntiyeBbVPjCy62RpvM0v7KaXL1pWzNbzu53zcmJZZe0AiN9ma7aW0TG/lS6LGmoSKfLw8LQgN/8tEYYq2wsijqiQffv2/dKEBNGCX2gmQCVEYiQvJCRUS74p5OTkvjQbkFBYoidxGLFNbsqQgb4kOPlkIQFAYODmIFdu5Ol8NbSNbP3iTiN76mAhHwe2EZRzj0BQoQzETQUgz/M5Oc3t27fNkNfnguzsqIDgkaI0+VT5cWI/AlavEdU5oWLKlClnVq1atY0cJioqWsWqPbTHYtU+WsGFbTjv7Fx3Mvpjh974fdEvO8hhfLzczeNUB/3FTllakWdJL066n9h7ZSWZvD8fvDCBbZT3nej9K+mORp/bs/wX2rCF//Q/Uc4zkxAVqrgV7DwM1sPiM+w3H4s/CsLsfjguwNdlrjU5LXhTMyaMPkebx3wTjRB69hBAc99ERyXuRWGZyquicmUIc7Aw2g0DH4z2c0TnNyAybWPDp2YRmOKRhJrJEA59buYmY08zO+630GVRg+YWNHWgckGTCMLgyUvEsZIHVHBorlVXV/cjhK24uPhL0xT6smCh3Y/WxSb6T6BZQzzRGcDR/waEskMZQKiFhYU7mhAwpYOIr6yslHZ1db3o4+Mze/z48Ylg+7lz55ySkpI6zeOhLROr+zGCjWvE0jkB8SbyoQWVvbapqUmQ2EbN9v5U6cjHYtU+8OjJGcA28prj2LzuXxim0P+p7uh/5qPRg5ubCwZb+FoZTF4lZtsjT+irNFP0VGNgGkXOsyKtWU6BGfeevB1PborRwsweRsCUjZC4u2vAM6yoqZeismXzqinrvjV/JGLeMKXD7dClE+eu3FsJU1PgLYrx6kOSGe0XuHnRXGvP0KswxYMIO7Rx/qJvtYMZbIka9HWQKywwcODAVxoaGrcOHDjg6+7uvgrSHDp0aB9qEiSy2jcDzQjo2D148OA+6NwFTyQoKGgrs/2kpKSK3759q0Jsw5MeNW0v7dq1KwgJwRq4IaCD/+7du6bGxsYx4A2wU152AM8COq1DQ0M3QtMHzgN4V0Q8CB48bZWVlbNBmD5+/CiFmlsrQSAYlYnV/RgBfXFdvUZkqOoBDFrAAIKqqmpWWlraDAMDg3gQqjNnzrjQy4dd+2CqysSJE6PgXERHR9uBhz9hwoQLIGTddd37S4iWQMd2wq3cBUfdFljQxkOHeW39J3FYH6EkQ3c2vLqyfKYHEpRdJ6747g257q2urJABnuK32gVYepy+Bh4gdNKHeFlNe/isSJto6g6Vl3rWlbwZ8cfaWav+ynk18W1xxVCbLaGJd8NcFSTFhenOwzRCTXkF5JkVllQNhm0Qxu58m4ItUTt//vwaWMhhZ8+eHY0qk4Ufwtzc/Bk0A3R0dJJg5IqdvCEPGLmDyarQhFu8eLEv9Knx8/N/orePlZXVXm9v76CYmBhbuJlgrhRqplojQdwCHc8VFRUyqNlbDiNr6GaIZseebwHKAKOf1tbW95DHWQk3IHSIQxyIv4ODgxuyKxluQujMhhsxMzNzErMysbIfK7Z19RoRUNWDzZs3L4PBDWSn+/bt20+j6/cIRoDB1itXrizhhH3z5s3z9/X1PZifnz8GHiIwiEB4Zt113VfP1d+/9fOs9w0HLp7c6zR7BTne1O5oHrG+Yvb4A4zyWjVHzy8lM9/sdvaLSeC53Aldr0h0sDOao0aOlxATqiTCwEsCUUvJyp86eNqWTl62+8rJrrR5cJIrR+3V1S12lzc1twrMRB5oWrDzUEbpI1CzWn+p72tY9/ewMO9O21gWNeRFTWEUv3PnTrruJIwekrdhOgB6ina6iPB0RU/qqcQ2DO3DDUw05agAzygiIqJTJyykhzlUtPOoGNlDFaamppaekpLSqVPVw8NjJb08AWlp6SJ0o00jh82dOzeAWLe0tPSBhRyPbkIP8jZVmVjZjwx4K7RhMILKzjWiB7N6AN6yv79/pwEe2gENqmMxsw9AHt0LmF5DFcfKdacl5maONQwK0IYj76z0N3N9H3ip22amzuGAqD83FJd9VICRzJib2VYWv447WVJRM/Bmxt9mxDukirKSrww1hl37+iidOeNtY6Kx8I8y1GSVmrrmWHZmuKsceODaakppr4rKR1Dt89NQ2RwxYcGPsL589ni/h/nvxpnoqMRCcxNeR9ofdsOLsGOAlPi7+EO2mlSDEJxEWJC/9vzeFUaznY+nF7yvHOLkEx12wHWeFb308FbBqe1WZjDiKSv19atanOSHmXz79OnTcVAxBw0a9AzmrMGco8mTJ/9fT9uF6X1wfe7PQ81GsUzSlzTIlFbWyEXvW6kP66nBjsMMlvq9hteBWlra+M5czrQlp4XXg1KDHDv198EIZ9176pHMm8fXjtRctKe0vKpOxtTuSN6NwLWqkUgg6Nl7+Yj9WGJ98njVi09iPL/kC/1csDAqL7yT2tTWyvAF/m8BRN/FepLHvtAbuy4m51ia6qrEKgyQfA1xVKO4xlojLlPlw8XVBybgcsy+H0bUoFMd5nVBXwiIG3QAQ7Orp+3C9D6clhh73UBeFqM0lmZa/sQ6TE2AF7ZPx911CIq57VJd19gXwvuKClU6W03cSjUdYuMyU7eTF+84zzPR+GqED/qf9q+bY3M08pa7vnrX+tVYwXFxR3mnzzIec5ZZWiszbf+3JZWDyWGzUfnel31UHDFI5qtPDa1ZOME760mB/suCDyPhZXcQ2KfI+51mMIpy4jYVdvMN995/WqD709B/JxN3hR9G1PT19RNg6Wk7MD8mrDaPWQHdiDthYXc/mxk6R2FhJa2Zodp5WOjFz500NgwWdm34Fljx5gh2OEy3pw1j1KwEQrZbdnpAnPdZQen90oPZtBB2+WFEDYPBYDgBFjUMBtOrwKKGwWB6FV+JGnzRMjT+rkP6w9e/lFfVyggL8ddqjlRMh28lqQ2Xu98TRmIwGAyrdBK1qGsPlsK7Yw2fmoXJ4TCaAa9FrJqnv3/DUpNNPBz+8CAGg8Fwii+iduFmjqWL34VT9BLCHzcERv3pCi/LduX9MQwGg+lOOkStorq+P3horOwQfPGOk5nBqPOaqop3utc0DAaDYZ8OUYNmJ/FSLjPgEySnYtPXYlHDYDA/Ih2iBt80Z2enzFzqV0swGAymp+kQtaqahq++vcSIsqpamYS0vPndY9LXfKxtkPxex8KwR1NziwDtwBLmxwFaYMz+uLk3IS0p+r5D1ESE+Fn+LjrQ0trG57A7guF/CHQn4iKCVfT+/ATTs/Dx8jQJC/LV9bQdGGrgKxm9efaC0sB+zztEbfyYIckpn/8vkBVm/TLm7MEN5ky/kYXBYDDfmw5RMzfROH3wbMrW+sYmEVZ2WjJNK4B5KgwGg/n+dIgafPtp8+qpzpsOXTrObAeLyZon4YN23W8aBoPBsM+XybeLpow7UVvfKL7n1LU/Wkj/TUgG0uywn+7w/czDYDAY9ugkXqvm6u+fqKWSAPPQbj94YfK+vFpegJ+3UWf04FSbGTpH9NSH3uwpQzEYDIYV/gc/+WhbTNETrgAAAABJRU5ErkJggg==&quot; width=&quot;309&quot; height=&quot;46&quot;&gt;&lt;/div&gt;&lt;div&gt;Data production overview: via WP7 support&lt;br&gt;&lt;/div&gt;&lt;div&gt;Version 0.15&lt;/div&gt;&lt;div&gt;14 February 2020&lt;br&gt;&lt;/div&gt;" style="text;html=1;strokeColor=none;fillColor=none;spacing=5;spacingTop=-20;whiteSpace=wrap;overflow=hidden;rounded=0;" parent="1" vertex="1">
          <mxGeometry x="10" y="10" width="340" height="90" as="geometry"/>
        </mxCell>
        <mxCell id="U57ou9IUssCvTuUCNo3O-1" value="EURHISFIRM data production" style="swimlane;html=1;horizontal=0;startSize=20;" parent="1" vertex="1">
          <mxGeometry x="10" y="99" width="2370" height="1001" as="geometry"/>
        </mxCell>
        <mxCell id="U57ou9IUssCvTuUCNo3O-2" value="Researcher" style="swimlane;html=1;horizontal=0;swimlaneLine=0;" parent="U57ou9IUssCvTuUCNo3O-1" vertex="1">
          <mxGeometry x="20" width="2350" height="310" as="geometry"/>
        </mxCell>
        <mxCell id="U57ou9IUssCvTuUCNo3O-3" value="" style="shape=mxgraph.bpmn.shape;html=1;verticalLabelPosition=bottom;labelBackgroundColor=#ffffff;verticalAlign=top;align=center;perimeter=ellipsePerimeter;outlineConnect=0;outline=standard;symbol=general;" parent="U57ou9IUssCvTuUCNo3O-2" vertex="1">
          <mxGeometry x="124" y="40" width="50" height="50" as="geometry"/>
        </mxCell>
        <mxCell id="vf-o4X7pLAh3DDvAFRm--9" value="(managed front-end) Manual value corrections (optional)" style="shape=ext;rounded=1;html=1;whiteSpace=wrap;" parent="U57ou9IUssCvTuUCNo3O-2" vertex="1">
          <mxGeometry x="1681.5" y="121" width="120" height="80" as="geometry"/>
        </mxCell>
        <mxCell id="U57ou9IUssCvTuUCNo3O-4" value="Supply high-quality scans (omnipage)" style="html=1;whiteSpace=wrap;rounded=1;" parent="U57ou9IUssCvTuUCNo3O-2" vertex="1">
          <mxGeometry x="89" y="156" width="120" height="80" as="geometry"/>
        </mxCell>
        <mxCell id="U57ou9IUssCvTuUCNo3O-5" value="" style="html=1;shape=plus;outlineConnect=0;" parent="U57ou9IUssCvTuUCNo3O-4" vertex="1">
          <mxGeometry x="0.5" y="1" width="14" height="14" relative="1" as="geometry">
            <mxPoint x="-7" y="-14" as="offset"/>
          </mxGeometry>
        </mxCell>
        <mxCell id="U57ou9IUssCvTuUCNo3O-9" value="" style="edgeStyle=orthogonalEdgeStyle;rounded=0;orthogonalLoop=1;jettySize=auto;html=1;" parent="U57ou9IUssCvTuUCNo3O-2" source="U57ou9IUssCvTuUCNo3O-3" target="U57ou9IUssCvTuUCNo3O-4" edge="1">
          <mxGeometry relative="1" as="geometry"/>
        </mxCell>
        <mxCell id="YTOW5BuQNDsywqQVDmaI-25" value="Yes" style="edgeStyle=orthogonalEdgeStyle;rounded=0;orthogonalLoop=1;jettySize=auto;html=1;" parent="U57ou9IUssCvTuUCNo3O-2" source="U57ou9IUssCvTuUCNo3O-47" target="vf-o4X7pLAh3DDvAFRm--39" edge="1">
          <mxGeometry relative="1" as="geometry"/>
        </mxCell>
        <mxCell id="U57ou9IUssCvTuUCNo3O-47" value="Project complete?" style="shape=mxgraph.bpmn.shape;html=1;verticalLabelPosition=bottom;labelBackgroundColor=#ffffff;verticalAlign=top;align=center;perimeter=rhombusPerimeter;background=gateway;outlineConnect=0;outline=none;symbol=exclusiveGw;" parent="U57ou9IUssCvTuUCNo3O-2" vertex="1">
          <mxGeometry x="2085" y="136" width="50" height="50" as="geometry"/>
        </mxCell>
        <mxCell id="vf-o4X7pLAh3DDvAFRm--37" value="" style="edgeStyle=orthogonalEdgeStyle;rounded=0;orthogonalLoop=1;jettySize=auto;html=1;exitX=1;exitY=0.5;exitDx=0;exitDy=0;entryX=0;entryY=0.5;entryDx=0;entryDy=0;" parent="U57ou9IUssCvTuUCNo3O-2" source="vf-o4X7pLAh3DDvAFRm--9" target="hXHtLepj-7hlu4ber1UF-3" edge="1">
          <mxGeometry relative="1" as="geometry">
            <mxPoint x="1410" y="370" as="sourcePoint"/>
            <mxPoint x="1880" y="120" as="targetPoint"/>
          </mxGeometry>
        </mxCell>
        <mxCell id="vf-o4X7pLAh3DDvAFRm--38" value="No, other source material or other data in same source" style="endArrow=block;endFill=1;endSize=6;html=1;exitX=0.5;exitY=0;exitDx=0;exitDy=0;entryX=0.75;entryY=0;entryDx=0;entryDy=0;" parent="U57ou9IUssCvTuUCNo3O-2" source="U57ou9IUssCvTuUCNo3O-47" target="U57ou9IUssCvTuUCNo3O-4" edge="1">
          <mxGeometry width="100" relative="1" as="geometry">
            <mxPoint y="900" as="sourcePoint"/>
            <mxPoint x="100" y="900" as="targetPoint"/>
            <Array as="points">
              <mxPoint x="2110" y="50"/>
              <mxPoint x="230" y="50"/>
            </Array>
          </mxGeometry>
        </mxCell>
        <mxCell id="vf-o4X7pLAh3DDvAFRm--39" value="End data production" style="shape=mxgraph.bpmn.shape;html=1;verticalLabelPosition=bottom;labelBackgroundColor=#ffffff;verticalAlign=top;align=center;perimeter=ellipsePerimeter;outlineConnect=0;outline=throwing;symbol=general;" parent="U57ou9IUssCvTuUCNo3O-2" vertex="1">
          <mxGeometry x="2260" y="136" width="50" height="50" as="geometry"/>
        </mxCell>
        <mxCell id="xeLGwGK6o7bXecQhRwx0-1" value="Users and rights" style="shape=datastore;whiteSpace=wrap;html=1;" parent="U57ou9IUssCvTuUCNo3O-2" vertex="1">
          <mxGeometry x="1711.5" y="223" width="60" height="60" as="geometry"/>
        </mxCell>
        <mxCell id="YTOW5BuQNDsywqQVDmaI-24" value="" style="edgeStyle=orthogonalEdgeStyle;rounded=0;orthogonalLoop=1;jettySize=auto;html=1;" parent="U57ou9IUssCvTuUCNo3O-2" source="hXHtLepj-7hlu4ber1UF-3" target="U57ou9IUssCvTuUCNo3O-47" edge="1">
          <mxGeometry relative="1" as="geometry"/>
        </mxCell>
        <mxCell id="hXHtLepj-7hlu4ber1UF-3" value="Dataset checkout: set metadata" style="shape=ext;rounded=1;html=1;whiteSpace=wrap;" parent="U57ou9IUssCvTuUCNo3O-2" vertex="1">
          <mxGeometry x="1856" y="121" width="120" height="80" as="geometry"/>
        </mxCell>
        <mxCell id="YTOW5BuQNDsywqQVDmaI-15" value="" style="shape=mxgraph.bpmn.shape;html=1;verticalLabelPosition=bottom;labelBackgroundColor=#ffffff;verticalAlign=top;align=center;perimeter=ellipsePerimeter;outlineConnect=0;outline=catching;symbol=message;" parent="U57ou9IUssCvTuUCNo3O-2" vertex="1">
          <mxGeometry x="1594" y="136" width="50" height="50" as="geometry"/>
        </mxCell>
        <mxCell id="xeLGwGK6o7bXecQhRwx0-2" value="" style="endArrow=none;dashed=1;html=1;entryX=0.5;entryY=0;entryDx=0;entryDy=0;exitX=0.5;exitY=1;exitDx=0;exitDy=0;" parent="U57ou9IUssCvTuUCNo3O-2" source="vf-o4X7pLAh3DDvAFRm--9" target="xeLGwGK6o7bXecQhRwx0-1" edge="1">
          <mxGeometry width="50" height="50" relative="1" as="geometry">
            <mxPoint x="707.1456102783727" y="360" as="sourcePoint"/>
            <mxPoint x="100" y="380" as="targetPoint"/>
          </mxGeometry>
        </mxCell>
        <mxCell id="YTOW5BuQNDsywqQVDmaI-21" value="" style="endArrow=block;endFill=1;endSize=6;html=1;" parent="U57ou9IUssCvTuUCNo3O-2" source="YTOW5BuQNDsywqQVDmaI-15" target="vf-o4X7pLAh3DDvAFRm--9" edge="1">
          <mxGeometry width="100" relative="1" as="geometry">
            <mxPoint x="1730" y="360" as="sourcePoint"/>
            <mxPoint x="1830" y="360" as="targetPoint"/>
          </mxGeometry>
        </mxCell>
        <mxCell id="U57ou9IUssCvTuUCNo3O-7" value="&lt;div&gt;EURHISFIRM &lt;br&gt;&lt;/div&gt;&lt;div&gt;central support&lt;/div&gt;" style="swimlane;html=1;horizontal=0;swimlaneLine=0;startSize=32;" parent="U57ou9IUssCvTuUCNo3O-1" vertex="1">
          <mxGeometry x="21" y="789" width="2349" height="211" as="geometry"/>
        </mxCell>
        <mxCell id="vf-o4X7pLAh3DDvAFRm--19" value="&lt;div&gt;Set metadata (stage 2) and manage project access&lt;/div&gt;" style="shape=ext;rounded=1;html=1;whiteSpace=wrap;" parent="U57ou9IUssCvTuUCNo3O-7" vertex="1">
          <mxGeometry x="1559" y="30" width="121" height="80" as="geometry"/>
        </mxCell>
        <mxCell id="rPvTEghpziIW8s8SciPZ-5" value="" style="edgeStyle=orthogonalEdgeStyle;rounded=0;orthogonalLoop=1;jettySize=auto;html=1;" parent="U57ou9IUssCvTuUCNo3O-7" source="rPvTEghpziIW8s8SciPZ-2" target="vf-o4X7pLAh3DDvAFRm--19" edge="1">
          <mxGeometry relative="1" as="geometry"/>
        </mxCell>
        <mxCell id="rPvTEghpziIW8s8SciPZ-2" value="Migrate dataset to central infrastructure" style="shape=ext;rounded=1;html=1;whiteSpace=wrap;" parent="U57ou9IUssCvTuUCNo3O-7" vertex="1">
          <mxGeometry x="1379" y="30" width="120" height="80" as="geometry"/>
        </mxCell>
        <mxCell id="rPvTEghpziIW8s8SciPZ-3" value="Infrastructure DB" style="shape=datastore;whiteSpace=wrap;html=1;" parent="U57ou9IUssCvTuUCNo3O-7" vertex="1">
          <mxGeometry x="1409" y="132" width="60" height="60" as="geometry"/>
        </mxCell>
        <mxCell id="rPvTEghpziIW8s8SciPZ-4" value="" style="endArrow=none;dashed=1;html=1;exitX=0.5;exitY=0;exitDx=0;exitDy=0;entryX=0.5;entryY=1;entryDx=0;entryDy=0;" parent="U57ou9IUssCvTuUCNo3O-7" source="rPvTEghpziIW8s8SciPZ-3" target="rPvTEghpziIW8s8SciPZ-2" edge="1">
          <mxGeometry width="50" height="50" relative="1" as="geometry">
            <mxPoint x="1199" y="300" as="sourcePoint"/>
            <mxPoint x="1249" y="250" as="targetPoint"/>
          </mxGeometry>
        </mxCell>
        <mxCell id="YTOW5BuQNDsywqQVDmaI-1" value="Common Data Model definitions" style="shape=datastore;whiteSpace=wrap;html=1;" parent="U57ou9IUssCvTuUCNo3O-7" vertex="1">
          <mxGeometry x="610" y="40" width="60" height="60" as="geometry"/>
        </mxCell>
        <mxCell id="YTOW5BuQNDsywqQVDmaI-10" value="CDM development as a result of projects" style="html=1;whiteSpace=wrap;rounded=1;" parent="U57ou9IUssCvTuUCNo3O-7" vertex="1">
          <mxGeometry x="1168" y="74" width="120" height="80" as="geometry"/>
        </mxCell>
        <mxCell id="YTOW5BuQNDsywqQVDmaI-11" value="" style="shape=mxgraph.bpmn.timer_start;perimeter=ellipsePerimeter;html=1;labelPosition=right;labelBackgroundColor=#ffffff;align=left;outlineConnect=0;" parent="YTOW5BuQNDsywqQVDmaI-10" vertex="1">
          <mxGeometry x="1" width="30" height="30" relative="1" as="geometry">
            <mxPoint x="-15" y="10" as="offset"/>
          </mxGeometry>
        </mxCell>
        <mxCell id="YTOW5BuQNDsywqQVDmaI-12" value="" style="endArrow=block;endFill=1;endSize=6;html=1;entryX=0.5;entryY=1;entryDx=0;entryDy=0;exitX=0;exitY=0.5;exitDx=0;exitDy=0;entryPerimeter=0;" parent="U57ou9IUssCvTuUCNo3O-7" source="rPvTEghpziIW8s8SciPZ-2" target="YTOW5BuQNDsywqQVDmaI-11" edge="1">
          <mxGeometry width="100" relative="1" as="geometry">
            <mxPoint x="399" y="250" as="sourcePoint"/>
            <mxPoint x="499" y="250" as="targetPoint"/>
          </mxGeometry>
        </mxCell>
        <mxCell id="YTOW5BuQNDsywqQVDmaI-13" value="" style="endArrow=none;dashed=1;html=1;entryX=0;entryY=0.5;entryDx=0;entryDy=0;exitX=1;exitY=0.5;exitDx=0;exitDy=0;" parent="U57ou9IUssCvTuUCNo3O-7" source="YTOW5BuQNDsywqQVDmaI-1" target="YTOW5BuQNDsywqQVDmaI-10" edge="1">
          <mxGeometry width="50" height="50" relative="1" as="geometry">
            <mxPoint x="1551.0588235294117" y="39.647058823529505" as="sourcePoint"/>
            <mxPoint x="1249.8823529411766" y="-30.94117647058829" as="targetPoint"/>
          </mxGeometry>
        </mxCell>
        <mxCell id="oqQan4XkRy9EsF743xS8-2" value="" style="shape=mxgraph.bpmn.shape;html=1;verticalLabelPosition=bottom;labelBackgroundColor=#ffffff;verticalAlign=top;align=center;perimeter=ellipsePerimeter;outlineConnect=0;outline=catching;symbol=message;" parent="U57ou9IUssCvTuUCNo3O-7" vertex="1">
          <mxGeometry x="2234" y="45" width="50" height="50" as="geometry"/>
        </mxCell>
        <mxCell id="vf-o4X7pLAh3DDvAFRm--23" value="Indexing and access&amp;nbsp; in RI" style="shape=ext;rounded=1;html=1;whiteSpace=wrap;" parent="U57ou9IUssCvTuUCNo3O-7" vertex="1">
          <mxGeometry x="2199" y="122" width="120" height="80" as="geometry"/>
        </mxCell>
        <mxCell id="oqQan4XkRy9EsF743xS8-1" value="" style="edgeStyle=orthogonalEdgeStyle;rounded=0;orthogonalLoop=1;jettySize=auto;html=1;entryX=0.5;entryY=0;entryDx=0;entryDy=0;" parent="U57ou9IUssCvTuUCNo3O-7" source="oqQan4XkRy9EsF743xS8-2" target="vf-o4X7pLAh3DDvAFRm--23" edge="1">
          <mxGeometry relative="1" as="geometry">
            <mxPoint x="2957" y="34" as="targetPoint"/>
          </mxGeometry>
        </mxCell>
        <mxCell id="U57ou9IUssCvTuUCNo3O-39" style="edgeStyle=orthogonalEdgeStyle;rounded=0;orthogonalLoop=1;jettySize=auto;html=1;entryX=0.5;entryY=0;entryDx=0;entryDy=0;" parent="U57ou9IUssCvTuUCNo3O-1" source="U57ou9IUssCvTuUCNo3O-4" target="TKPdwmBuKIqaFmVCKSlq-1" edge="1">
          <mxGeometry relative="1" as="geometry"/>
        </mxCell>
        <mxCell id="U57ou9IUssCvTuUCNo3O-6" value="&lt;div&gt;WP7 group: computer scientist,engineering expert, &lt;br&gt;&lt;/div&gt;&lt;div&gt;DB expert, researcher&lt;/div&gt;" style="swimlane;html=1;horizontal=0;swimlaneLine=0;startSize=30;" parent="U57ou9IUssCvTuUCNo3O-1" vertex="1">
          <mxGeometry x="21" y="499" width="2349" height="290" as="geometry"/>
        </mxCell>
        <mxCell id="U57ou9IUssCvTuUCNo3O-29" style="edgeStyle=orthogonalEdgeStyle;rounded=0;orthogonalLoop=1;jettySize=auto;html=1;" parent="U57ou9IUssCvTuUCNo3O-6" source="U57ou9IUssCvTuUCNo3O-24" target="U57ou9IUssCvTuUCNo3O-28" edge="1">
          <mxGeometry relative="1" as="geometry"/>
        </mxCell>
        <mxCell id="U57ou9IUssCvTuUCNo3O-24" value="Text block selection" style="shape=ext;rounded=1;html=1;whiteSpace=wrap;" parent="U57ou9IUssCvTuUCNo3O-6" vertex="1">
          <mxGeometry x="252.5" y="110" width="120" height="80" as="geometry"/>
        </mxCell>
        <mxCell id="U57ou9IUssCvTuUCNo3O-28" value="Tokenizer" style="shape=ext;rounded=1;html=1;whiteSpace=wrap;" parent="U57ou9IUssCvTuUCNo3O-6" vertex="1">
          <mxGeometry x="416.5" y="110" width="120" height="80" as="geometry"/>
        </mxCell>
        <mxCell id="U57ou9IUssCvTuUCNo3O-30" value="Working semi-structured DB" style="shape=datastore;whiteSpace=wrap;html=1;" parent="U57ou9IUssCvTuUCNo3O-6" vertex="1">
          <mxGeometry x="299" y="221" width="60" height="60" as="geometry"/>
        </mxCell>
        <mxCell id="U57ou9IUssCvTuUCNo3O-43" value="Extract whole corpus (stage 1)" style="shape=ext;rounded=1;html=1;whiteSpace=wrap;" parent="U57ou9IUssCvTuUCNo3O-6" vertex="1">
          <mxGeometry x="996" y="110" width="120" height="80" as="geometry"/>
        </mxCell>
        <mxCell id="vf-o4X7pLAh3DDvAFRm--5" value="" style="endArrow=none;dashed=1;html=1;entryX=0.5;entryY=1;entryDx=0;entryDy=0;exitX=0.5;exitY=0;exitDx=0;exitDy=0;movable=0;resizable=0;rotatable=0;deletable=0;editable=0;connectable=0;" parent="U57ou9IUssCvTuUCNo3O-6" source="U57ou9IUssCvTuUCNo3O-30" target="U57ou9IUssCvTuUCNo3O-24" edge="1">
          <mxGeometry width="50" height="50" relative="1" as="geometry">
            <mxPoint x="199" y="330" as="sourcePoint"/>
            <mxPoint x="200" y="158" as="targetPoint"/>
          </mxGeometry>
        </mxCell>
        <mxCell id="TKPdwmBuKIqaFmVCKSlq-1" value="Scans intake" style="shape=mxgraph.bpmn.shape;html=1;verticalLabelPosition=bottom;labelBackgroundColor=#ffffff;verticalAlign=top;align=center;perimeter=rhombusPerimeter;background=gateway;outlineConnect=0;outline=none;symbol=exclusiveGw;" parent="U57ou9IUssCvTuUCNo3O-6" vertex="1">
          <mxGeometry x="123" y="25" width="50" height="50" as="geometry"/>
        </mxCell>
        <mxCell id="TKPdwmBuKIqaFmVCKSlq-3" value="OCR scans to textfiles" style="shape=ext;rounded=1;html=1;whiteSpace=wrap;" parent="U57ou9IUssCvTuUCNo3O-6" vertex="1">
          <mxGeometry x="88" y="110" width="120" height="80" as="geometry"/>
        </mxCell>
        <mxCell id="TKPdwmBuKIqaFmVCKSlq-4" value="Scans" style="shape=datastore;whiteSpace=wrap;html=1;" parent="U57ou9IUssCvTuUCNo3O-6" vertex="1">
          <mxGeometry x="59" y="217" width="60" height="60" as="geometry"/>
        </mxCell>
        <mxCell id="TKPdwmBuKIqaFmVCKSlq-5" value="" style="endArrow=block;endFill=1;endSize=6;html=1;entryX=0.5;entryY=0;entryDx=0;entryDy=0;exitX=0.5;exitY=1;exitDx=0;exitDy=0;" parent="U57ou9IUssCvTuUCNo3O-6" source="TKPdwmBuKIqaFmVCKSlq-1" target="TKPdwmBuKIqaFmVCKSlq-3" edge="1">
          <mxGeometry width="100" relative="1" as="geometry">
            <mxPoint x="190" y="80" as="sourcePoint"/>
            <mxPoint x="289" y="70" as="targetPoint"/>
          </mxGeometry>
        </mxCell>
        <mxCell id="TKPdwmBuKIqaFmVCKSlq-6" value="Read" style="endArrow=none;dashed=1;html=1;entryX=0.5;entryY=1;entryDx=0;entryDy=0;exitX=0.5;exitY=0;exitDx=0;exitDy=0;" parent="U57ou9IUssCvTuUCNo3O-6" source="TKPdwmBuKIqaFmVCKSlq-4" target="TKPdwmBuKIqaFmVCKSlq-3" edge="1">
          <mxGeometry width="50" height="50" relative="1" as="geometry">
            <mxPoint x="349" y="229" as="sourcePoint"/>
            <mxPoint x="379" y="210" as="targetPoint"/>
          </mxGeometry>
        </mxCell>
        <mxCell id="TKPdwmBuKIqaFmVCKSlq-7" value="Textfiles?" style="shape=datastore;whiteSpace=wrap;html=1;" parent="U57ou9IUssCvTuUCNo3O-6" vertex="1">
          <mxGeometry x="160" y="218" width="60" height="60" as="geometry"/>
        </mxCell>
        <mxCell id="TKPdwmBuKIqaFmVCKSlq-8" value="Create" style="endArrow=none;dashed=1;html=1;entryX=0.633;entryY=0.988;entryDx=0;entryDy=0;exitX=0.5;exitY=0;exitDx=0;exitDy=0;entryPerimeter=0;" parent="U57ou9IUssCvTuUCNo3O-6" source="TKPdwmBuKIqaFmVCKSlq-7" target="TKPdwmBuKIqaFmVCKSlq-3" edge="1">
          <mxGeometry width="50" height="50" relative="1" as="geometry">
            <mxPoint x="170" y="225" as="sourcePoint"/>
            <mxPoint x="200" y="208" as="targetPoint"/>
          </mxGeometry>
        </mxCell>
        <mxCell id="TKPdwmBuKIqaFmVCKSlq-10" value="" style="endArrow=block;endFill=1;endSize=6;html=1;exitX=1;exitY=0.5;exitDx=0;exitDy=0;entryX=0;entryY=0.5;entryDx=0;entryDy=0;" parent="U57ou9IUssCvTuUCNo3O-6" source="TKPdwmBuKIqaFmVCKSlq-3" target="U57ou9IUssCvTuUCNo3O-24" edge="1">
          <mxGeometry width="100" relative="1" as="geometry">
            <mxPoint x="249" y="160" as="sourcePoint"/>
            <mxPoint x="299" y="160" as="targetPoint"/>
          </mxGeometry>
        </mxCell>
        <mxCell id="TKPdwmBuKIqaFmVCKSlq-17" value="" style="edgeStyle=orthogonalEdgeStyle;rounded=0;orthogonalLoop=1;jettySize=auto;html=1;" parent="U57ou9IUssCvTuUCNo3O-6" source="TKPdwmBuKIqaFmVCKSlq-12" target="TKPdwmBuKIqaFmVCKSlq-16" edge="1">
          <mxGeometry relative="1" as="geometry"/>
        </mxCell>
        <mxCell id="TKPdwmBuKIqaFmVCKSlq-12" value="Manual tagging of training examples with harmonisation" style="shape=ext;rounded=1;html=1;whiteSpace=wrap;" parent="U57ou9IUssCvTuUCNo3O-6" vertex="1">
          <mxGeometry x="580" y="110" width="120" height="80" as="geometry"/>
        </mxCell>
        <mxCell id="TKPdwmBuKIqaFmVCKSlq-16" value="Train statistical model and extract sample data" style="shape=ext;rounded=1;html=1;whiteSpace=wrap;" parent="U57ou9IUssCvTuUCNo3O-6" vertex="1">
          <mxGeometry x="736" y="110" width="120" height="80" as="geometry"/>
        </mxCell>
        <mxCell id="TKPdwmBuKIqaFmVCKSlq-15" value="" style="endArrow=block;endFill=1;endSize=6;html=1;exitX=1;exitY=0.5;exitDx=0;exitDy=0;entryX=0;entryY=0.5;entryDx=0;entryDy=0;" parent="U57ou9IUssCvTuUCNo3O-6" source="U57ou9IUssCvTuUCNo3O-28" target="TKPdwmBuKIqaFmVCKSlq-12" edge="1">
          <mxGeometry width="100" relative="1" as="geometry">
            <mxPoint x="569" y="160" as="sourcePoint"/>
            <mxPoint x="649" y="160" as="targetPoint"/>
          </mxGeometry>
        </mxCell>
        <mxCell id="U57ou9IUssCvTuUCNo3O-31" value="Good enough?" style="shape=mxgraph.bpmn.shape;html=1;verticalLabelPosition=bottom;labelBackgroundColor=#ffffff;verticalAlign=top;align=center;perimeter=rhombusPerimeter;background=gateway;outlineConnect=0;outline=none;symbol=exclusiveGw;" parent="U57ou9IUssCvTuUCNo3O-6" vertex="1">
          <mxGeometry x="899" y="125" width="50" height="50" as="geometry"/>
        </mxCell>
        <mxCell id="U57ou9IUssCvTuUCNo3O-33" value="" style="edgeStyle=orthogonalEdgeStyle;rounded=0;orthogonalLoop=1;jettySize=auto;html=1;entryX=0;entryY=0.5;entryDx=0;entryDy=0;exitX=1;exitY=0.5;exitDx=0;exitDy=0;" parent="U57ou9IUssCvTuUCNo3O-6" source="TKPdwmBuKIqaFmVCKSlq-16" target="U57ou9IUssCvTuUCNo3O-31" edge="1">
          <mxGeometry relative="1" as="geometry">
            <mxPoint x="522" y="-290" as="targetPoint"/>
          </mxGeometry>
        </mxCell>
        <mxCell id="U57ou9IUssCvTuUCNo3O-40" value="No, refine" style="edgeStyle=orthogonalEdgeStyle;rounded=0;orthogonalLoop=1;jettySize=auto;html=1;exitX=0.5;exitY=0;exitDx=0;exitDy=0;entryX=0.5;entryY=0;entryDx=0;entryDy=0;" parent="U57ou9IUssCvTuUCNo3O-6" source="U57ou9IUssCvTuUCNo3O-31" target="TKPdwmBuKIqaFmVCKSlq-12" edge="1">
          <mxGeometry relative="1" as="geometry">
            <Array as="points">
              <mxPoint x="924" y="60"/>
              <mxPoint x="640" y="60"/>
            </Array>
            <mxPoint x="220" y="-142" as="targetPoint"/>
          </mxGeometry>
        </mxCell>
        <mxCell id="U57ou9IUssCvTuUCNo3O-44" value="Yes" style="edgeStyle=orthogonalEdgeStyle;rounded=0;orthogonalLoop=1;jettySize=auto;html=1;" parent="U57ou9IUssCvTuUCNo3O-6" source="U57ou9IUssCvTuUCNo3O-31" target="U57ou9IUssCvTuUCNo3O-43" edge="1">
          <mxGeometry relative="1" as="geometry"/>
        </mxCell>
        <mxCell id="TKPdwmBuKIqaFmVCKSlq-18" value="Cross-referencing within the corpus (stage 1)" style="shape=ext;rounded=1;html=1;whiteSpace=wrap;" parent="U57ou9IUssCvTuUCNo3O-6" vertex="1">
          <mxGeometry x="1189" y="109.5" width="120" height="80" as="geometry"/>
        </mxCell>
        <mxCell id="TKPdwmBuKIqaFmVCKSlq-14" value="" style="endArrow=block;endFill=1;endSize=6;html=1;entryX=0;entryY=0.5;entryDx=0;entryDy=0;" parent="U57ou9IUssCvTuUCNo3O-6" source="TKPdwmBuKIqaFmVCKSlq-18" target="48ehBGhcMnfqSamQGyXK-12" edge="1">
          <mxGeometry width="100" relative="1" as="geometry">
            <mxPoint x="1279" y="158" as="sourcePoint"/>
            <mxPoint x="1537" y="149" as="targetPoint"/>
          </mxGeometry>
        </mxCell>
        <mxCell id="YTOW5BuQNDsywqQVDmaI-6" value="" style="shape=mxgraph.bpmn.manual_task;html=1;outlineConnect=0;" parent="U57ou9IUssCvTuUCNo3O-6" vertex="1">
          <mxGeometry x="676" y="173" width="14" height="14" as="geometry"/>
        </mxCell>
        <mxCell id="48ehBGhcMnfqSamQGyXK-12" value="Manual verification of extraction and processing of automated rejects" style="shape=ext;rounded=1;html=1;whiteSpace=wrap;" parent="U57ou9IUssCvTuUCNo3O-6" vertex="1">
          <mxGeometry x="1379" y="109" width="120" height="80" as="geometry"/>
        </mxCell>
        <mxCell id="YTOW5BuQNDsywqQVDmaI-7" value="" style="shape=mxgraph.bpmn.manual_task;html=1;outlineConnect=0;" parent="U57ou9IUssCvTuUCNo3O-6" vertex="1">
          <mxGeometry x="1522" y="178" width="14" height="14" as="geometry"/>
        </mxCell>
        <mxCell id="U57ou9IUssCvTuUCNo3O-52" value="&lt;div&gt;Enrichment&lt;/div&gt;&lt;div&gt;database&lt;br&gt;&lt;/div&gt;" style="shape=datastore;whiteSpace=wrap;html=1;" parent="U57ou9IUssCvTuUCNo3O-6" vertex="1">
          <mxGeometry x="1219" y="218" width="60" height="60" as="geometry"/>
        </mxCell>
        <mxCell id="vf-o4X7pLAh3DDvAFRm--6" value="Load" style="endArrow=none;dashed=1;html=1;" parent="U57ou9IUssCvTuUCNo3O-6" source="U57ou9IUssCvTuUCNo3O-52" target="U57ou9IUssCvTuUCNo3O-43" edge="1">
          <mxGeometry width="50" height="50" relative="1" as="geometry">
            <mxPoint x="531" y="359" as="sourcePoint"/>
            <mxPoint x="531" y="318" as="targetPoint"/>
          </mxGeometry>
        </mxCell>
        <mxCell id="kYq5jSMSdaT2rUgdoMXE-1" value="" style="endArrow=none;dashed=1;html=1;exitX=0.5;exitY=0;exitDx=0;exitDy=0;" parent="U57ou9IUssCvTuUCNo3O-6" source="U57ou9IUssCvTuUCNo3O-52" target="TKPdwmBuKIqaFmVCKSlq-18" edge="1">
          <mxGeometry width="50" height="50" relative="1" as="geometry">
            <mxPoint x="739" y="591" as="sourcePoint"/>
            <mxPoint x="789" y="541" as="targetPoint"/>
          </mxGeometry>
        </mxCell>
        <mxCell id="TKPdwmBuKIqaFmVCKSlq-9" value="" style="endArrow=block;endFill=1;endSize=6;html=1;exitX=1;exitY=0.5;exitDx=0;exitDy=0;entryX=0;entryY=0.5;entryDx=0;entryDy=0;" parent="U57ou9IUssCvTuUCNo3O-6" source="U57ou9IUssCvTuUCNo3O-43" target="TKPdwmBuKIqaFmVCKSlq-18" edge="1">
          <mxGeometry width="100" relative="1" as="geometry">
            <mxPoint x="1084" y="160.5" as="sourcePoint"/>
            <mxPoint x="1184" y="160.5" as="targetPoint"/>
          </mxGeometry>
        </mxCell>
        <mxCell id="YTOW5BuQNDsywqQVDmaI-2" value="Read" style="endArrow=none;dashed=1;html=1;entryX=0.5;entryY=1;entryDx=0;entryDy=0;exitX=0.5;exitY=0;exitDx=0;exitDy=0;" parent="U57ou9IUssCvTuUCNo3O-1" source="YTOW5BuQNDsywqQVDmaI-1" target="TKPdwmBuKIqaFmVCKSlq-12" edge="1">
          <mxGeometry width="50" height="50" relative="1" as="geometry">
            <mxPoint x="1087" y="810" as="sourcePoint"/>
            <mxPoint x="1087" y="678" as="targetPoint"/>
          </mxGeometry>
        </mxCell>
        <mxCell id="rPvTEghpziIW8s8SciPZ-1" value="" style="endArrow=none;dashed=1;html=1;entryX=1;entryY=0.5;entryDx=0;entryDy=0;exitX=0.5;exitY=0;exitDx=0;exitDy=0;" parent="U57ou9IUssCvTuUCNo3O-1" source="rPvTEghpziIW8s8SciPZ-2" target="U57ou9IUssCvTuUCNo3O-52" edge="1">
          <mxGeometry width="50" height="50" relative="1" as="geometry">
            <mxPoint x="280" y="1250" as="sourcePoint"/>
            <mxPoint x="330" y="1200" as="targetPoint"/>
          </mxGeometry>
        </mxCell>
        <mxCell id="YTOW5BuQNDsywqQVDmaI-4" value="" style="endArrow=block;endFill=1;endSize=6;html=1;entryX=0.5;entryY=0;entryDx=0;entryDy=0;exitX=0.5;exitY=1;exitDx=0;exitDy=0;" parent="U57ou9IUssCvTuUCNo3O-1" source="48ehBGhcMnfqSamQGyXK-12" target="rPvTEghpziIW8s8SciPZ-2" edge="1">
          <mxGeometry width="100" relative="1" as="geometry">
            <mxPoint x="1710" y="420" as="sourcePoint"/>
            <mxPoint x="1679.9999999999995" y="456.9999999999998" as="targetPoint"/>
            <Array as="points"/>
          </mxGeometry>
        </mxCell>
        <mxCell id="48ehBGhcMnfqSamQGyXK-10" value="Done correcting" style="text;html=1;resizable=0;points=[];align=center;verticalAlign=middle;labelBackgroundColor=#ffffff;" parent="YTOW5BuQNDsywqQVDmaI-4" vertex="1" connectable="0">
          <mxGeometry x="0.3651" y="-3" relative="1" as="geometry">
            <mxPoint y="-1" as="offset"/>
          </mxGeometry>
        </mxCell>
        <mxCell id="48ehBGhcMnfqSamQGyXK-17" value="Centre of research" style="swimlane;html=1;horizontal=0;swimlaneLine=0;startSize=23;" parent="U57ou9IUssCvTuUCNo3O-1" vertex="1">
          <mxGeometry x="21" y="310" width="2349" height="190" as="geometry"/>
        </mxCell>
        <mxCell id="oWo16Apj3Yx3HFk0ltDL-1" value="Matching and consolidation&amp;nbsp; between sources(stage 2)" style="html=1;whiteSpace=wrap;rounded=1;" parent="48ehBGhcMnfqSamQGyXK-17" vertex="1">
          <mxGeometry x="1869" y="15" width="120" height="80" as="geometry"/>
        </mxCell>
        <mxCell id="oWo16Apj3Yx3HFk0ltDL-2" value="" style="html=1;shape=plus;outlineConnect=0;" parent="oWo16Apj3Yx3HFk0ltDL-1" vertex="1">
          <mxGeometry x="0.5" y="1" width="14" height="14" relative="1" as="geometry">
            <mxPoint x="-7" y="-14" as="offset"/>
          </mxGeometry>
        </mxCell>
        <mxCell id="U57ou9IUssCvTuUCNo3O-25" value="Infrastructure DB" style="shape=datastore;whiteSpace=wrap;html=1;" parent="48ehBGhcMnfqSamQGyXK-17" vertex="1">
          <mxGeometry x="1899" y="127" width="60" height="60" as="geometry"/>
        </mxCell>
        <mxCell id="TKPdwmBuKIqaFmVCKSlq-11" value="" style="endArrow=none;dashed=1;html=1;entryX=0.5;entryY=1;entryDx=0;entryDy=0;exitX=0.5;exitY=0;exitDx=0;exitDy=0;" parent="48ehBGhcMnfqSamQGyXK-17" source="U57ou9IUssCvTuUCNo3O-25" target="oWo16Apj3Yx3HFk0ltDL-1" edge="1">
          <mxGeometry width="50" height="50" relative="1" as="geometry">
            <mxPoint x="349" y="389" as="sourcePoint"/>
            <mxPoint x="336" y="368" as="targetPoint"/>
          </mxGeometry>
        </mxCell>
        <mxCell id="YTOW5BuQNDsywqQVDmaI-3" value="Modify" style="text;html=1;resizable=0;points=[];align=center;verticalAlign=middle;labelBackgroundColor=#ffffff;" parent="TKPdwmBuKIqaFmVCKSlq-11" vertex="1" connectable="0">
          <mxGeometry x="0.2121" y="-3" relative="1" as="geometry">
            <mxPoint as="offset"/>
          </mxGeometry>
        </mxCell>
        <mxCell id="rPvTEghpziIW8s8SciPZ-6" value="Transformation of numerical values (optional)" style="shape=ext;rounded=1;html=1;whiteSpace=wrap;" parent="48ehBGhcMnfqSamQGyXK-17" vertex="1">
          <mxGeometry x="2199" y="15" width="120" height="80" as="geometry"/>
        </mxCell>
        <mxCell id="kYq5jSMSdaT2rUgdoMXE-3" value="" style="shape=mxgraph.bpmn.shape;html=1;verticalLabelPosition=bottom;labelBackgroundColor=#ffffff;verticalAlign=top;align=center;perimeter=ellipsePerimeter;outlineConnect=0;outline=catching;symbol=message;" parent="48ehBGhcMnfqSamQGyXK-17" vertex="1">
          <mxGeometry x="1749" y="30" width="50" height="50" as="geometry"/>
        </mxCell>
        <mxCell id="kYq5jSMSdaT2rUgdoMXE-4" value="" style="endArrow=block;endFill=1;endSize=6;html=1;entryX=0;entryY=0.5;entryDx=0;entryDy=0;exitX=1;exitY=0.5;exitDx=0;exitDy=0;" parent="48ehBGhcMnfqSamQGyXK-17" source="kYq5jSMSdaT2rUgdoMXE-3" target="oWo16Apj3Yx3HFk0ltDL-1" edge="1">
          <mxGeometry width="100" relative="1" as="geometry">
            <mxPoint x="1779" y="50" as="sourcePoint"/>
            <mxPoint x="1879" y="50" as="targetPoint"/>
          </mxGeometry>
        </mxCell>
        <mxCell id="kYq5jSMSdaT2rUgdoMXE-5" value="Mapping to outside controlled vocabularies (stage 2)" style="shape=ext;rounded=1;html=1;whiteSpace=wrap;" parent="48ehBGhcMnfqSamQGyXK-17" vertex="1">
          <mxGeometry x="2029" y="15" width="120" height="80" as="geometry"/>
        </mxCell>
        <mxCell id="kYq5jSMSdaT2rUgdoMXE-6" value="" style="endArrow=block;endFill=1;endSize=6;html=1;exitX=1;exitY=0.5;exitDx=0;exitDy=0;entryX=0;entryY=0.5;entryDx=0;entryDy=0;" parent="48ehBGhcMnfqSamQGyXK-17" source="kYq5jSMSdaT2rUgdoMXE-5" target="rPvTEghpziIW8s8SciPZ-6" edge="1">
          <mxGeometry width="100" relative="1" as="geometry">
            <mxPoint x="2139" y="50" as="sourcePoint"/>
            <mxPoint x="2239" y="50" as="targetPoint"/>
          </mxGeometry>
        </mxCell>
        <mxCell id="TKPdwmBuKIqaFmVCKSlq-2" value="What is needed for processing" style="endArrow=block;endFill=1;endSize=6;html=1;entryX=0;entryY=0.5;entryDx=0;entryDy=0;exitX=0;exitY=0.5;exitDx=0;exitDy=0;" parent="U57ou9IUssCvTuUCNo3O-1" source="TKPdwmBuKIqaFmVCKSlq-1" target="U57ou9IUssCvTuUCNo3O-4" edge="1">
          <mxGeometry x="0.2242" width="100" relative="1" as="geometry">
            <mxPoint x="190" y="520" as="sourcePoint"/>
            <mxPoint x="290" y="520" as="targetPoint"/>
            <Array as="points">
              <mxPoint x="80" y="549"/>
              <mxPoint x="80" y="196"/>
            </Array>
            <mxPoint as="offset"/>
          </mxGeometry>
        </mxCell>
        <mxCell id="f-tZQk1WK9uNpcHlhlGX-2" value="Ready for processing" style="endArrow=classic;html=1;entryX=0.5;entryY=1;entryDx=0;entryDy=0;exitX=0.5;exitY=0;exitDx=0;exitDy=0;" parent="U57ou9IUssCvTuUCNo3O-1" source="vf-o4X7pLAh3DDvAFRm--19" target="YTOW5BuQNDsywqQVDmaI-15" edge="1">
          <mxGeometry width="50" height="50" relative="1" as="geometry">
            <mxPoint x="940" y="1090" as="sourcePoint"/>
            <mxPoint x="990" y="1040" as="targetPoint"/>
          </mxGeometry>
        </mxCell>
        <mxCell id="yKIDNgkNeyT9BDYEPyD2-2" value="" style="endArrow=classic;html=1;exitX=0.5;exitY=1;exitDx=0;exitDy=0;entryX=0.5;entryY=0;entryDx=0;entryDy=0;" parent="U57ou9IUssCvTuUCNo3O-1" source="hXHtLepj-7hlu4ber1UF-3" target="kYq5jSMSdaT2rUgdoMXE-3" edge="1">
          <mxGeometry width="50" height="50" relative="1" as="geometry">
            <mxPoint x="1030" y="1090" as="sourcePoint"/>
            <mxPoint x="1865" y="380" as="targetPoint"/>
          </mxGeometry>
        </mxCell>
        <mxCell id="48ehBGhcMnfqSamQGyXK-3" value="" style="endArrow=block;endFill=1;endSize=6;html=1;exitX=1;exitY=0.5;exitDx=0;exitDy=0;" parent="U57ou9IUssCvTuUCNo3O-1" source="oWo16Apj3Yx3HFk0ltDL-1" edge="1">
          <mxGeometry width="100" relative="1" as="geometry">
            <mxPoint x="601" y="1039" as="sourcePoint"/>
            <mxPoint x="2060" y="365" as="targetPoint"/>
          </mxGeometry>
        </mxCell>
        <mxCell id="kYq5jSMSdaT2rUgdoMXE-7" value="" style="endArrow=block;endFill=1;endSize=6;html=1;entryX=0.5;entryY=0;entryDx=0;entryDy=0;exitX=0.5;exitY=1;exitDx=0;exitDy=0;" parent="U57ou9IUssCvTuUCNo3O-1" source="rPvTEghpziIW8s8SciPZ-6" target="oqQan4XkRy9EsF743xS8-2" edge="1">
          <mxGeometry width="100" relative="1" as="geometry">
            <mxPoint x="2300" y="380" as="sourcePoint"/>
            <mxPoint x="2400" y="380" as="targetPoint"/>
          </mxGeometry>
        </mxCell>
      </root>
    </mxGraphModel>
  </diagram>
  <diagram id="rkBUswCPS22HoN5DLCj5" name="Stage 0-1 via Dataverse">
    <mxGraphModel dx="1662" dy="889" grid="1" gridSize="10" guides="1" tooltips="1" connect="1" arrows="1" fold="1" page="1" pageScale="1" pageWidth="827" pageHeight="1169" math="0" shadow="0">
      <root>
        <mxCell id="NS0eG-JlMeMma_0mSy3--0"/>
        <mxCell id="NS0eG-JlMeMma_0mSy3--1" parent="NS0eG-JlMeMma_0mSy3--0"/>
        <mxCell id="6zSFGCsgWJnyRSAjhiPo-0" value="&lt;div&gt;&lt;img src=&quot;data:image/png;base64,iVBORw0KGgoAAAANSUhEUgAAATUAAAAuCAYAAABJeY7oAAAACXBIWXMAAA7GAAAO5gF/UekwAAAUIElEQVR4nO2dCTwW2//Hs+8iESGt5KZE15Ktq7gt2lNaLO3X0g1FCW0q3VK0oySh/hEqS0oLcrsJFUV1045EtuxZf+frNt3xNM+WR/q75/16zeuZOefMme+ZOfOZ71lmHt729vY+GAwG01vg7WkDMBgMhpNgUcNgML0KLGoYDKZXgUUNg8H0KrCoYTCYXgUWNQwG06vAoobBYHoVWNQwGEyvAosaBoPpVWBRw2AwvQosahgMpleBRQ2DwfQqsKhh/nNk5L02zHv+XpNefL++IqXGP49IFBcVrMrMe2tQVVvfz0hjeJIAP28jVfqikiqljMdvDA3GDrsmLSlaAmGPnhdrZuW9MSTSiAjz16gOkc0ZPXzgPc6XiDF/5byc9PfrUjV68bJS4oWmeiMv8XJztyTezjOX69+3YKyKwl0i/mLywyWV1fX9iW1xEYGqMcoKmSMGST+mzQvSpWTmTzHQ/PdcMCM+LdcCbPj5p0G32S0bFVjUMP85Fm48ldzW1s7DKI3umCEp5/5YZrzILTi5pbWNd76pxikf5znLqdLabAlLfF7wQVW2v3hheqiL4j/HCE6pa/gkRpWej5enOXLvciONkYrpXS8NcyzdTye1tbdzM0pjO99wj9syUze7XRHnYfv1ZS8uIs7JJyqc3n7aakq34Dxxc3O3wbbbwUsnrt55MpsHCeTjGE8xeg8CgvCETDvPo3HHYD3J32G0stKAXHbKRgUWNcx/Di4urvY+fdr7oLu2HQlREW18LRIjXbXBqf+m7dPnU1OLEL38QPTgl5eHu+VLYHs7V8e+7e19iGOUVdXJNLe08qOFb866E3eexW5B9zxvE8RlPX6rpyTX7wWVd4M8PgO42cFzLCmvlXtfVq0waoTsA/CsIL6gpHLIHyeT9vQVE6pcMlUrYNRwuQedC4wK296HYXk1RiowFVgxEYGPokICNbBejGyA34zcN0a61vsLM8JdB8J2U0sLP/y2trXxuvjGhBx2W7CQUZ7bAhIOEet1DU2izGxgBSxq3Uh5ebnstGnTiq9evSotISFR9r2OW1dXJ+7p6Xnu0aNHuoMHD34aFBSk972O/f8Jq+nax7zsp6/prvy5kJhYmmn7k4/hc/q699GIW5tgfbFbyM2ofSsNYN3cJaij6UX2kAjMXU+mEXErtoXF574o1pxmOOr8sU0WCxZsCE7NyH1tRKQ9m5i1Gn5fxm/jIbwngq6Ul5ubqy10h/UUsnfptC867OLNHMvSihq56tpGCRBd8j5xt3It3Jb/ulFeRuINVZ4ufheDiQcCJ2E5Q0dHxytKSkpP161b58RpI74VGxubrPnz5x+ZPn16SE/bwik4Uaa4uLhljY2NwklJSdKoYrdy0LyOepCenj6ZNvzw4cOm2tra1zl5rN6Iq42Je0DUn66t6GZuJTWBQQDbO5xHaiAefptb2/jgt66+SRyJyUBC0CTEhCrUVRTupmblT4XtgpKqIeD5dWdZDrjMswJRg/X4tEcWi6dqBdKm+W3nuZj4Q7bjaMMbPzULR19/sLQ77MKeGqKlpYWPl5e3uaft4BTv3r0bAg+grggao3MCort27VpXchjv52YUp4/VmyGE6lt5mP9Og1jPjtgkBb8gFpmoudrdgga0tP3rZfHy8HS6fooDJF4jYR2c+/ydZtr9578aag5PIscv2BicglScCzxAEHNY55RdHBG1yspKGV9f3wNZWVkToR9BV1f3qpOT0zpxcfEKiLe0tMzW09O7/OTJE62ysjI5SLNhwwb7sWPHphF5fPjwQd7b2/vEw4cP9fr161dibW29Z+fOnSfpNd3geC9fvlQ7cuTInlOnTnkqKys/2L179/yGhgZRf3//XampqbPq6+vFRo8efQcdy0FWVvaLCwz2gI15eXk6FRUVA1avXr0F5eExadKk8xkZGaa5ubk6SBT+3rFjx+LHjx9rHT9+fHtNTY3k1KlTw11cXNYQ/Sy0QNk+l0Ef2fxh6dKlu8nxERERa2NiYuxKSkoUxMTEqkxNTc/Z29u7Ezc0vTIx248MSn/8+vXrC6CSZGZmmpibmx9dtGiRHyvXiPacwPmgKieIJT8/P2UHMPIwC7ds2bKU8NpKS0sVZsyYUYBskgTb6R1LU1MzlZl9WlpaN/Lz89WheQ3lc3Z2dlJXV+9otrFy3X8EfEKv72z93OQaJNs14VEbJpdNrF9LfzrLVHfkJUEBvnpaAekO2trauLWX+Lwjtn/5eUQiOV5IkL9uorZyws2MZ2aomRp+7+xGGSKuqLRK6eGzIi1YXz3PwCcw6s8NnLSNI6Lm7u4eiSpsZWRk5EhUWB5Uqc9s3bo1zM/Pz4xIgyrb7ICAgAmSkpIfEhISbFB8+KVLl5SIeA8PjwhFRcVnly9flkMVVATyZHRMaAbn5OQY0DbVtm3bFtrc3MyPREEHbDpx4sR2VLkvhISE/EzuY0hOTp4XGBho2L9//2LYBlFDzbblSBTMoR8K/QYiAYvV0NBIDQ8PH1tVVSW9YsWKO3CzGRoaxlLZBGUYMGBAQXx8vDzcZG5ublHkeCkpqff79++fLi8v//LNmzcq69evj5ORkSlcuHDhQUZlYrYfmU2bNq0Gr6m1tZUXHd+WnWtEe066E9pj2dnZpTCzLyUlZU5wcLAO1CF4+KDzlRAdHT0cHnqsXncyofEZDmEJGfbkMB4k2Ke2W5pxQhja2tq5I5PuL7+d82pibV1j37KPdTKtpD6kfevnLKPdZ9S8nTWs5k/u9F/ldfYi/OqpD00O32VtQlVmKGv0jWwbcpiEmHC5i80kzznG6nRHOImy2HlHRIkICVR/gD60ukYJkh2FMv3EvqozAZ4L56rM2tFQXlUnfSzy1ib7BUYdD/lZzsc7pouICgtUw4jrDydqRUVFQ+/fvz8BBIp4Ejs6Oq5H3kEueC5EpZ0zZ85xqIywbmRkFOvl5RUCT2nwygoLC4ejm1l/3759MwUEBBpgWbly5fZ79+4Zs2MLeAVQ8WNjYwdBvhBma2vriW6UNeABDR8+/CGRdubMmUG0Ny+yMVBFRaVj5MjMzOx0YmKiFdwUUC5YkPdxDTw3KlFDZRiWnZ1tiPaRFRQUrIcFiaDX77//fo1IY2Ji8kWoQTiRF3UMeSaTqMSJzLfuR8DqNaI6J1RcuHDhtytXrliSw6KiopQJr4oVyMdi1T7k8QUTdQiuhYKCwnN0vedCK4DV604LbT8WdFw/eVUyhlPezqemFsEXBR9UyWFSEiKlyccdVYjRSzL0RgCR90opzNmRm6Rmrg3IfPu+cihs/5Xz0lh5lten3CiPvuC1kdNCWWnzh+0zCZm2zEQNvOeS8pqB7e3V8uRw5B3GntiyeBbVPjCy62RpvM0v7KaXL1pWzNbzu53zcmJZZe0AiN9ma7aW0TG/lS6LGmoSKfLw8LQgN/8tEYYq2wsijqiQffv2/dKEBNGCX2gmQCVEYiQvJCRUS74p5OTkvjQbkFBYoidxGLFNbsqQgb4kOPlkIQFAYODmIFdu5Ol8NbSNbP3iTiN76mAhHwe2EZRzj0BQoQzETQUgz/M5Oc3t27fNkNfnguzsqIDgkaI0+VT5cWI/AlavEdU5oWLKlClnVq1atY0cJioqWsWqPbTHYtU+WsGFbTjv7Fx3Mvpjh974fdEvO8hhfLzczeNUB/3FTllakWdJL066n9h7ZSWZvD8fvDCBbZT3nej9K+mORp/bs/wX2rCF//Q/Uc4zkxAVqrgV7DwM1sPiM+w3H4s/CsLsfjguwNdlrjU5LXhTMyaMPkebx3wTjRB69hBAc99ERyXuRWGZyquicmUIc7Aw2g0DH4z2c0TnNyAybWPDp2YRmOKRhJrJEA59buYmY08zO+630GVRg+YWNHWgckGTCMLgyUvEsZIHVHBorlVXV/cjhK24uPhL0xT6smCh3Y/WxSb6T6BZQzzRGcDR/waEskMZQKiFhYU7mhAwpYOIr6yslHZ1db3o4+Mze/z48Ylg+7lz55ySkpI6zeOhLROr+zGCjWvE0jkB8SbyoQWVvbapqUmQ2EbN9v5U6cjHYtU+8OjJGcA28prj2LzuXxim0P+p7uh/5qPRg5ubCwZb+FoZTF4lZtsjT+irNFP0VGNgGkXOsyKtWU6BGfeevB1PborRwsweRsCUjZC4u2vAM6yoqZeismXzqinrvjV/JGLeMKXD7dClE+eu3FsJU1PgLYrx6kOSGe0XuHnRXGvP0KswxYMIO7Rx/qJvtYMZbIka9HWQKywwcODAVxoaGrcOHDjg6+7uvgrSHDp0aB9qEiSy2jcDzQjo2D148OA+6NwFTyQoKGgrs/2kpKSK3759q0Jsw5MeNW0v7dq1KwgJwRq4IaCD/+7du6bGxsYx4A2wU152AM8COq1DQ0M3QtMHzgN4V0Q8CB48bZWVlbNBmD5+/CiFmlsrQSAYlYnV/RgBfXFdvUZkqOoBDFrAAIKqqmpWWlraDAMDg3gQqjNnzrjQy4dd+2CqysSJE6PgXERHR9uBhz9hwoQLIGTddd37S4iWQMd2wq3cBUfdFljQxkOHeW39J3FYH6EkQ3c2vLqyfKYHEpRdJ6747g257q2urJABnuK32gVYepy+Bh4gdNKHeFlNe/isSJto6g6Vl3rWlbwZ8cfaWav+ynk18W1xxVCbLaGJd8NcFSTFhenOwzRCTXkF5JkVllQNhm0Qxu58m4ItUTt//vwaWMhhZ8+eHY0qk4Ufwtzc/Bk0A3R0dJJg5IqdvCEPGLmDyarQhFu8eLEv9Knx8/N/orePlZXVXm9v76CYmBhbuJlgrhRqplojQdwCHc8VFRUyqNlbDiNr6GaIZseebwHKAKOf1tbW95DHWQk3IHSIQxyIv4ODgxuyKxluQujMhhsxMzNzErMysbIfK7Z19RoRUNWDzZs3L4PBDWSn+/bt20+j6/cIRoDB1itXrizhhH3z5s3z9/X1PZifnz8GHiIwiEB4Zt113VfP1d+/9fOs9w0HLp7c6zR7BTne1O5oHrG+Yvb4A4zyWjVHzy8lM9/sdvaLSeC53Aldr0h0sDOao0aOlxATqiTCwEsCUUvJyp86eNqWTl62+8rJrrR5cJIrR+3V1S12lzc1twrMRB5oWrDzUEbpI1CzWn+p72tY9/ewMO9O21gWNeRFTWEUv3PnTrruJIwekrdhOgB6ina6iPB0RU/qqcQ2DO3DDUw05agAzygiIqJTJyykhzlUtPOoGNlDFaamppaekpLSqVPVw8NjJb08AWlp6SJ0o00jh82dOzeAWLe0tPSBhRyPbkIP8jZVmVjZjwx4K7RhMILKzjWiB7N6AN6yv79/pwEe2gENqmMxsw9AHt0LmF5DFcfKdacl5maONQwK0IYj76z0N3N9H3ip22amzuGAqD83FJd9VICRzJib2VYWv447WVJRM/Bmxt9mxDukirKSrww1hl37+iidOeNtY6Kx8I8y1GSVmrrmWHZmuKsceODaakppr4rKR1Dt89NQ2RwxYcGPsL589ni/h/nvxpnoqMRCcxNeR9ofdsOLsGOAlPi7+EO2mlSDEJxEWJC/9vzeFUaznY+nF7yvHOLkEx12wHWeFb308FbBqe1WZjDiKSv19atanOSHmXz79OnTcVAxBw0a9AzmrMGco8mTJ/9fT9uF6X1wfe7PQ81GsUzSlzTIlFbWyEXvW6kP66nBjsMMlvq9hteBWlra+M5czrQlp4XXg1KDHDv198EIZ9176pHMm8fXjtRctKe0vKpOxtTuSN6NwLWqkUgg6Nl7+Yj9WGJ98njVi09iPL/kC/1csDAqL7yT2tTWyvAF/m8BRN/FepLHvtAbuy4m51ia6qrEKgyQfA1xVKO4xlojLlPlw8XVBybgcsy+H0bUoFMd5nVBXwiIG3QAQ7Orp+3C9D6clhh73UBeFqM0lmZa/sQ6TE2AF7ZPx911CIq57VJd19gXwvuKClU6W03cSjUdYuMyU7eTF+84zzPR+GqED/qf9q+bY3M08pa7vnrX+tVYwXFxR3mnzzIec5ZZWiszbf+3JZWDyWGzUfnel31UHDFI5qtPDa1ZOME760mB/suCDyPhZXcQ2KfI+51mMIpy4jYVdvMN995/WqD709B/JxN3hR9G1PT19RNg6Wk7MD8mrDaPWQHdiDthYXc/mxk6R2FhJa2Zodp5WOjFz500NgwWdm34Fljx5gh2OEy3pw1j1KwEQrZbdnpAnPdZQen90oPZtBB2+WFEDYPBYDgBFjUMBtOrwKKGwWB6FV+JGnzRMjT+rkP6w9e/lFfVyggL8ddqjlRMh28lqQ2Xu98TRmIwGAyrdBK1qGsPlsK7Yw2fmoXJ4TCaAa9FrJqnv3/DUpNNPBz+8CAGg8Fwii+iduFmjqWL34VT9BLCHzcERv3pCi/LduX9MQwGg+lOOkStorq+P3horOwQfPGOk5nBqPOaqop3utc0DAaDYZ8OUYNmJ/FSLjPgEySnYtPXYlHDYDA/Ih2iBt80Z2enzFzqV0swGAymp+kQtaqahq++vcSIsqpamYS0vPndY9LXfKxtkPxex8KwR1NziwDtwBLmxwFaYMz+uLk3IS0p+r5D1ESE+Fn+LjrQ0trG57A7guF/CHQn4iKCVfT+/ATTs/Dx8jQJC/LV9bQdGGrgKxm9efaC0sB+zztEbfyYIckpn/8vkBVm/TLm7MEN5ky/kYXBYDDfmw5RMzfROH3wbMrW+sYmEVZ2WjJNK4B5KgwGg/n+dIgafPtp8+qpzpsOXTrObAeLyZon4YN23W8aBoPBsM+XybeLpow7UVvfKL7n1LU/Wkj/TUgG0uywn+7w/czDYDAY9ugkXqvm6u+fqKWSAPPQbj94YfK+vFpegJ+3UWf04FSbGTpH9NSH3uwpQzEYDIYV/gc/+WhbTNETrgAAAABJRU5ErkJggg==&quot; width=&quot;309&quot; height=&quot;46&quot;&gt;&lt;/div&gt;&lt;div&gt;Data production overview: Dataverse input&lt;br&gt;&lt;/div&gt;&lt;div&gt;Version 0.15&lt;/div&gt;&lt;div&gt;14 February 2020&lt;br&gt;&lt;/div&gt;" style="text;html=1;strokeColor=none;fillColor=none;spacing=5;spacingTop=-20;whiteSpace=wrap;overflow=hidden;rounded=0;" parent="NS0eG-JlMeMma_0mSy3--1" vertex="1">
          <mxGeometry x="10" y="10" width="340" height="90" as="geometry"/>
        </mxCell>
        <mxCell id="6zSFGCsgWJnyRSAjhiPo-2" value="EURHISFIRM data production" style="swimlane;html=1;horizontal=0;startSize=20;" parent="NS0eG-JlMeMma_0mSy3--1" vertex="1">
          <mxGeometry x="10" y="100" width="1380" height="890" as="geometry"/>
        </mxCell>
        <mxCell id="6zSFGCsgWJnyRSAjhiPo-3" value="Researcher" style="swimlane;html=1;horizontal=0;swimlaneLine=0;" parent="6zSFGCsgWJnyRSAjhiPo-2" vertex="1">
          <mxGeometry x="20" y="1" width="1360" height="480" as="geometry"/>
        </mxCell>
        <mxCell id="6zSFGCsgWJnyRSAjhiPo-4" value="" style="shape=mxgraph.bpmn.shape;html=1;verticalLabelPosition=bottom;labelBackgroundColor=#ffffff;verticalAlign=top;align=center;perimeter=ellipsePerimeter;outlineConnect=0;outline=standard;symbol=general;" parent="6zSFGCsgWJnyRSAjhiPo-3" vertex="1">
          <mxGeometry x="40" y="215" width="50" height="50" as="geometry"/>
        </mxCell>
        <mxCell id="6zSFGCsgWJnyRSAjhiPo-11" value="" style="edgeStyle=orthogonalEdgeStyle;rounded=0;orthogonalLoop=1;jettySize=auto;html=1;entryX=0;entryY=0.5;entryDx=0;entryDy=0;" parent="6zSFGCsgWJnyRSAjhiPo-3" source="6zSFGCsgWJnyRSAjhiPo-4" target="LZF4qVQTJyDv_etnAdWn-4" edge="1">
          <mxGeometry relative="1" as="geometry">
            <mxPoint x="191" y="360" as="targetPoint"/>
          </mxGeometry>
        </mxCell>
        <mxCell id="6zSFGCsgWJnyRSAjhiPo-12" value="Yes" style="edgeStyle=orthogonalEdgeStyle;rounded=0;orthogonalLoop=1;jettySize=auto;html=1;" parent="6zSFGCsgWJnyRSAjhiPo-3" source="6zSFGCsgWJnyRSAjhiPo-13" target="6zSFGCsgWJnyRSAjhiPo-18" edge="1">
          <mxGeometry relative="1" as="geometry">
            <mxPoint x="1380" y="401" as="targetPoint"/>
          </mxGeometry>
        </mxCell>
        <mxCell id="6zSFGCsgWJnyRSAjhiPo-13" value="Project complete?" style="shape=mxgraph.bpmn.shape;html=1;verticalLabelPosition=bottom;labelBackgroundColor=#ffffff;verticalAlign=top;align=center;perimeter=rhombusPerimeter;background=gateway;outlineConnect=0;outline=none;symbol=exclusiveGw;" parent="6zSFGCsgWJnyRSAjhiPo-3" vertex="1">
          <mxGeometry x="1120" y="215" width="50" height="50" as="geometry"/>
        </mxCell>
        <mxCell id="6zSFGCsgWJnyRSAjhiPo-16" value="" style="edgeStyle=orthogonalEdgeStyle;rounded=0;orthogonalLoop=1;jettySize=auto;html=1;exitX=1;exitY=0.5;exitDx=0;exitDy=0;entryX=0;entryY=0.5;entryDx=0;entryDy=0;" parent="6zSFGCsgWJnyRSAjhiPo-3" source="6zSFGCsgWJnyRSAjhiPo-59" edge="1">
          <mxGeometry relative="1" as="geometry">
            <mxPoint x="1045" y="400.52941176470586" as="sourcePoint"/>
            <mxPoint x="933" y="240" as="targetPoint"/>
          </mxGeometry>
        </mxCell>
        <mxCell id="6zSFGCsgWJnyRSAjhiPo-18" value="End data production" style="shape=mxgraph.bpmn.shape;html=1;verticalLabelPosition=bottom;labelBackgroundColor=#ffffff;verticalAlign=top;align=center;perimeter=ellipsePerimeter;outlineConnect=0;outline=throwing;symbol=general;" parent="6zSFGCsgWJnyRSAjhiPo-3" vertex="1">
          <mxGeometry x="1274.5" y="215" width="50" height="50" as="geometry"/>
        </mxCell>
        <mxCell id="6zSFGCsgWJnyRSAjhiPo-61" value="Supply dataset via DATAVERSE, &lt;i&gt;only&lt;/i&gt; &lt;i&gt;inserts possible?&lt;br&gt;&lt;/i&gt;" style="shape=ext;rounded=1;html=1;whiteSpace=wrap;" parent="6zSFGCsgWJnyRSAjhiPo-3" vertex="1">
          <mxGeometry x="320.5" y="200" width="120" height="80" as="geometry"/>
        </mxCell>
        <mxCell id="6zSFGCsgWJnyRSAjhiPo-59" value="(managed front-end) Manual value corrections (optional)" style="shape=ext;rounded=1;html=1;whiteSpace=wrap;" parent="6zSFGCsgWJnyRSAjhiPo-3" vertex="1">
          <mxGeometry x="740" y="200" width="120" height="80" as="geometry"/>
        </mxCell>
        <mxCell id="LZF4qVQTJyDv_etnAdWn-5" value="" style="edgeStyle=orthogonalEdgeStyle;rounded=0;orthogonalLoop=1;jettySize=auto;html=1;" parent="6zSFGCsgWJnyRSAjhiPo-3" source="LZF4qVQTJyDv_etnAdWn-4" target="6zSFGCsgWJnyRSAjhiPo-61" edge="1">
          <mxGeometry relative="1" as="geometry"/>
        </mxCell>
        <mxCell id="LZF4qVQTJyDv_etnAdWn-4" value="Setup dataset in DATAVERSE" style="shape=ext;rounded=1;html=1;whiteSpace=wrap;" parent="6zSFGCsgWJnyRSAjhiPo-3" vertex="1">
          <mxGeometry x="131" y="200" width="120" height="80" as="geometry"/>
        </mxCell>
        <mxCell id="LZF4qVQTJyDv_etnAdWn-13" value="No, continue" style="endArrow=block;endFill=1;endSize=6;html=1;entryX=0.5;entryY=0;entryDx=0;entryDy=0;exitX=0.5;exitY=0;exitDx=0;exitDy=0;" parent="6zSFGCsgWJnyRSAjhiPo-3" source="6zSFGCsgWJnyRSAjhiPo-13" target="LZF4qVQTJyDv_etnAdWn-4" edge="1">
          <mxGeometry width="100" relative="1" as="geometry">
            <mxPoint x="998" y="167" as="sourcePoint"/>
            <mxPoint x="1068" y="137" as="targetPoint"/>
            <Array as="points">
              <mxPoint x="1145" y="149"/>
              <mxPoint x="191" y="149"/>
            </Array>
          </mxGeometry>
        </mxCell>
        <mxCell id="Fz2QJj0weJJF7moR9wP8-0" value="Users and rights" style="shape=datastore;whiteSpace=wrap;html=1;" parent="6zSFGCsgWJnyRSAjhiPo-3" vertex="1">
          <mxGeometry x="770" y="319" width="60" height="60" as="geometry"/>
        </mxCell>
        <mxCell id="Fz2QJj0weJJF7moR9wP8-1" value="" style="endArrow=none;dashed=1;html=1;exitX=0.5;exitY=0;exitDx=0;exitDy=0;entryX=0.5;entryY=1;entryDx=0;entryDy=0;" parent="6zSFGCsgWJnyRSAjhiPo-3" source="Fz2QJj0weJJF7moR9wP8-0" target="6zSFGCsgWJnyRSAjhiPo-59" edge="1">
          <mxGeometry width="50" height="50" relative="1" as="geometry">
            <mxPoint x="99" y="419" as="sourcePoint"/>
            <mxPoint x="109" y="389" as="targetPoint"/>
          </mxGeometry>
        </mxCell>
        <mxCell id="CfD8tcmFofAnOTCzsjhe-1" value="" style="edgeStyle=orthogonalEdgeStyle;rounded=0;orthogonalLoop=1;jettySize=auto;html=1;" parent="6zSFGCsgWJnyRSAjhiPo-3" source="CfD8tcmFofAnOTCzsjhe-0" target="6zSFGCsgWJnyRSAjhiPo-13" edge="1">
          <mxGeometry relative="1" as="geometry"/>
        </mxCell>
        <mxCell id="CfD8tcmFofAnOTCzsjhe-0" value="Dataset checkout: set metadata" style="shape=ext;rounded=1;html=1;whiteSpace=wrap;" parent="6zSFGCsgWJnyRSAjhiPo-3" vertex="1">
          <mxGeometry x="930" y="200" width="120" height="80" as="geometry"/>
        </mxCell>
        <mxCell id="i9RioHXcWZIX31tU3eQO-2" value="" style="edgeStyle=orthogonalEdgeStyle;rounded=0;orthogonalLoop=1;jettySize=auto;html=1;entryX=0;entryY=0.5;entryDx=0;entryDy=0;" parent="6zSFGCsgWJnyRSAjhiPo-3" source="i9RioHXcWZIX31tU3eQO-0" target="6zSFGCsgWJnyRSAjhiPo-59" edge="1">
          <mxGeometry relative="1" as="geometry">
            <mxPoint x="762" y="239.99999999999977" as="targetPoint"/>
          </mxGeometry>
        </mxCell>
        <mxCell id="i9RioHXcWZIX31tU3eQO-0" value="" style="shape=mxgraph.bpmn.shape;html=1;verticalLabelPosition=bottom;labelBackgroundColor=#ffffff;verticalAlign=top;align=center;perimeter=ellipsePerimeter;outlineConnect=0;outline=catching;symbol=message;" parent="6zSFGCsgWJnyRSAjhiPo-3" vertex="1">
          <mxGeometry x="632" y="215" width="50" height="50" as="geometry"/>
        </mxCell>
        <mxCell id="1lcorgW2oC6m8VB6mCal-0" value="Infrastructure DB" style="shape=datastore;whiteSpace=wrap;html=1;" parent="6zSFGCsgWJnyRSAjhiPo-3" vertex="1">
          <mxGeometry x="350.5" y="409" width="60" height="60" as="geometry"/>
        </mxCell>
        <mxCell id="1lcorgW2oC6m8VB6mCal-1" value="" style="endArrow=none;dashed=1;html=1;entryX=0.5;entryY=1;entryDx=0;entryDy=0;exitX=0.5;exitY=0;exitDx=0;exitDy=0;" parent="6zSFGCsgWJnyRSAjhiPo-3" source="1lcorgW2oC6m8VB6mCal-0" target="6zSFGCsgWJnyRSAjhiPo-61" edge="1">
          <mxGeometry width="50" height="50" relative="1" as="geometry">
            <mxPoint x="340" y="598" as="sourcePoint"/>
            <mxPoint x="1056" y="499" as="targetPoint"/>
          </mxGeometry>
        </mxCell>
        <mxCell id="1lcorgW2oC6m8VB6mCal-2" value="&lt;div&gt;Identify&lt;/div&gt;&lt;div&gt;existing&lt;/div&gt;&lt;div&gt;objects for &lt;br&gt;&lt;/div&gt;&lt;div&gt;deduplication, &lt;br&gt;&lt;/div&gt;&lt;div&gt;consolidation, &lt;br&gt;&lt;/div&gt;&lt;div&gt;corporate actions&lt;br&gt;&lt;/div&gt;" style="text;html=1;resizable=0;points=[];align=center;verticalAlign=middle;labelBackgroundColor=#ffffff;" parent="1lcorgW2oC6m8VB6mCal-1" vertex="1" connectable="0">
          <mxGeometry x="0.2121" y="-3" relative="1" as="geometry">
            <mxPoint as="offset"/>
          </mxGeometry>
        </mxCell>
        <mxCell id="6zSFGCsgWJnyRSAjhiPo-20" value="&lt;div&gt;EURHISFIRM &lt;br&gt;&lt;/div&gt;&lt;div&gt;central support&lt;/div&gt;" style="swimlane;html=1;horizontal=0;swimlaneLine=0;startSize=30;" parent="6zSFGCsgWJnyRSAjhiPo-2" vertex="1">
          <mxGeometry x="20" y="647" width="1360" height="243" as="geometry"/>
        </mxCell>
        <mxCell id="6zSFGCsgWJnyRSAjhiPo-21" value="Common Data Model definitions" style="shape=datastore;whiteSpace=wrap;html=1;" parent="6zSFGCsgWJnyRSAjhiPo-20" vertex="1">
          <mxGeometry x="90" y="153" width="60" height="60" as="geometry"/>
        </mxCell>
        <mxCell id="6zSFGCsgWJnyRSAjhiPo-36" value="Indexing and access in RI" style="shape=ext;rounded=1;html=1;whiteSpace=wrap;" parent="6zSFGCsgWJnyRSAjhiPo-20" vertex="1">
          <mxGeometry x="1083" y="48" width="120" height="80" as="geometry"/>
        </mxCell>
        <mxCell id="6zSFGCsgWJnyRSAjhiPo-44" value="Infrastructure DB" style="shape=datastore;whiteSpace=wrap;html=1;" parent="6zSFGCsgWJnyRSAjhiPo-20" vertex="1">
          <mxGeometry x="762.5" y="153" width="60" height="60" as="geometry"/>
        </mxCell>
        <mxCell id="6zSFGCsgWJnyRSAjhiPo-45" value="" style="endArrow=none;dashed=1;html=1;exitX=0.5;exitY=0;exitDx=0;exitDy=0;entryX=1;entryY=0.75;entryDx=0;entryDy=0;" parent="6zSFGCsgWJnyRSAjhiPo-20" source="6zSFGCsgWJnyRSAjhiPo-44" target="YlT7sBuLaIt1WL4KYhNL-2" edge="1">
          <mxGeometry width="50" height="50" relative="1" as="geometry">
            <mxPoint x="1199" y="300" as="sourcePoint"/>
            <mxPoint x="1249" y="250" as="targetPoint"/>
          </mxGeometry>
        </mxCell>
        <mxCell id="YlT7sBuLaIt1WL4KYhNL-2" value="&lt;div&gt;Process dataset as stage 0 or 1 and manage project access&lt;br&gt;&lt;/div&gt;" style="shape=ext;rounded=1;html=1;whiteSpace=wrap;" parent="6zSFGCsgWJnyRSAjhiPo-20" vertex="1">
          <mxGeometry x="597" y="57" width="120" height="93" as="geometry"/>
        </mxCell>
        <mxCell id="HTrAAps5BERHTEB903YS-0" value="EURHISFIRM Dataverse setup" style="shape=datastore;whiteSpace=wrap;html=1;" parent="6zSFGCsgWJnyRSAjhiPo-20" vertex="1">
          <mxGeometry x="30" y="45" width="60" height="60" as="geometry"/>
        </mxCell>
        <mxCell id="LZF4qVQTJyDv_etnAdWn-0" value="Dataset approval required?" style="shape=mxgraph.bpmn.shape;html=1;verticalLabelPosition=bottom;labelBackgroundColor=#ffffff;verticalAlign=top;align=center;perimeter=rhombusPerimeter;background=gateway;outlineConnect=0;outline=none;symbol=exclusiveGw;" parent="6zSFGCsgWJnyRSAjhiPo-20" vertex="1">
          <mxGeometry x="456.5" y="79" width="50" height="50" as="geometry"/>
        </mxCell>
        <mxCell id="32Je74cHbi556BuMtQfo-1" value="Approved" style="edgeStyle=orthogonalEdgeStyle;rounded=0;orthogonalLoop=1;jettySize=auto;html=1;entryX=0;entryY=0.5;entryDx=0;entryDy=0;exitX=1;exitY=0.5;exitDx=0;exitDy=0;" parent="6zSFGCsgWJnyRSAjhiPo-20" source="LZF4qVQTJyDv_etnAdWn-0" target="YlT7sBuLaIt1WL4KYhNL-2" edge="1">
          <mxGeometry relative="1" as="geometry">
            <mxPoint x="190" y="54" as="targetPoint"/>
          </mxGeometry>
        </mxCell>
        <mxCell id="1zD5Upz0kOD3P7n9vH3Z-3" value="" style="edgeStyle=orthogonalEdgeStyle;rounded=0;orthogonalLoop=1;jettySize=auto;html=1;" parent="6zSFGCsgWJnyRSAjhiPo-20" source="1zD5Upz0kOD3P7n9vH3Z-0" target="6zSFGCsgWJnyRSAjhiPo-36" edge="1">
          <mxGeometry relative="1" as="geometry"/>
        </mxCell>
        <mxCell id="1zD5Upz0kOD3P7n9vH3Z-0" value="" style="shape=mxgraph.bpmn.shape;html=1;verticalLabelPosition=bottom;labelBackgroundColor=#ffffff;verticalAlign=top;align=center;perimeter=ellipsePerimeter;outlineConnect=0;outline=catching;symbol=message;" parent="6zSFGCsgWJnyRSAjhiPo-20" vertex="1">
          <mxGeometry x="965" y="63" width="50" height="50" as="geometry"/>
        </mxCell>
        <mxCell id="6zSFGCsgWJnyRSAjhiPo-33" value="" style="endArrow=none;dashed=1;html=1;entryX=0.325;entryY=1.025;entryDx=0;entryDy=0;exitX=0.5;exitY=0;exitDx=0;exitDy=0;entryPerimeter=0;" parent="6zSFGCsgWJnyRSAjhiPo-2" source="6zSFGCsgWJnyRSAjhiPo-21" target="LZF4qVQTJyDv_etnAdWn-4" edge="1">
          <mxGeometry width="50" height="50" relative="1" as="geometry">
            <mxPoint x="190" y="444" as="sourcePoint"/>
            <mxPoint x="211" y="342" as="targetPoint"/>
          </mxGeometry>
        </mxCell>
        <mxCell id="mC8jaJNbMdCdwZWq2gb3-0" value="&lt;div&gt;Optional&lt;/div&gt;&lt;div&gt;Use CDM &lt;br&gt;&lt;/div&gt;&lt;div&gt;definitions&lt;br&gt;&lt;/div&gt;" style="text;html=1;resizable=0;points=[];align=center;verticalAlign=middle;labelBackgroundColor=#ffffff;" parent="6zSFGCsgWJnyRSAjhiPo-33" vertex="1" connectable="0">
          <mxGeometry x="-0.2436" y="-1" relative="1" as="geometry">
            <mxPoint as="offset"/>
          </mxGeometry>
        </mxCell>
        <mxCell id="HTrAAps5BERHTEB903YS-2" value="" style="endArrow=none;dashed=1;html=1;entryX=0.5;entryY=0;entryDx=0;entryDy=0;exitX=0.2;exitY=0.988;exitDx=0;exitDy=0;exitPerimeter=0;" parent="6zSFGCsgWJnyRSAjhiPo-2" source="LZF4qVQTJyDv_etnAdWn-4" target="HTrAAps5BERHTEB903YS-0" edge="1">
          <mxGeometry width="50" height="50" relative="1" as="geometry">
            <mxPoint y="1060" as="sourcePoint"/>
            <mxPoint x="50" y="1010" as="targetPoint"/>
          </mxGeometry>
        </mxCell>
        <mxCell id="mC8jaJNbMdCdwZWq2gb3-1" value="Administration" style="text;html=1;resizable=0;points=[];align=center;verticalAlign=middle;labelBackgroundColor=#ffffff;" parent="HTrAAps5BERHTEB903YS-2" vertex="1" connectable="0">
          <mxGeometry x="0.3899" relative="1" as="geometry">
            <mxPoint x="-1" as="offset"/>
          </mxGeometry>
        </mxCell>
        <mxCell id="LZF4qVQTJyDv_etnAdWn-1" value="" style="edgeStyle=orthogonalEdgeStyle;rounded=0;orthogonalLoop=1;jettySize=auto;html=1;entryX=0.5;entryY=0;entryDx=0;entryDy=0;exitX=1;exitY=0.5;exitDx=0;exitDy=0;" parent="6zSFGCsgWJnyRSAjhiPo-2" source="6zSFGCsgWJnyRSAjhiPo-61" target="LZF4qVQTJyDv_etnAdWn-0" edge="1">
          <mxGeometry relative="1" as="geometry"/>
        </mxCell>
        <mxCell id="LZF4qVQTJyDv_etnAdWn-6" value="&lt;div&gt;Required changes&lt;/div&gt;&lt;div&gt;for approval&lt;br&gt;&lt;/div&gt;" style="startArrow=oval;startFill=0;startSize=7;endArrow=block;endFill=0;endSize=10;dashed=1;html=1;entryX=0.675;entryY=1;entryDx=0;entryDy=0;entryPerimeter=0;exitX=0;exitY=0.5;exitDx=0;exitDy=0;" parent="6zSFGCsgWJnyRSAjhiPo-2" source="LZF4qVQTJyDv_etnAdWn-0" target="LZF4qVQTJyDv_etnAdWn-4" edge="1">
          <mxGeometry x="-0.1654" relative="1" as="geometry">
            <mxPoint x="480" y="722" as="sourcePoint"/>
            <mxPoint x="420" y="260" as="targetPoint"/>
            <Array as="points">
              <mxPoint x="232" y="751"/>
              <mxPoint x="232" y="460"/>
            </Array>
            <mxPoint as="offset"/>
          </mxGeometry>
        </mxCell>
        <mxCell id="LZF4qVQTJyDv_etnAdWn-7" value="" style="shape=message;html=1;outlineConnect=0;" parent="LZF4qVQTJyDv_etnAdWn-6" vertex="1">
          <mxGeometry width="20" height="14" relative="1" as="geometry">
            <mxPoint x="-10" y="-7" as="offset"/>
          </mxGeometry>
        </mxCell>
        <mxCell id="LZF4qVQTJyDv_etnAdWn-8" style="edgeStyle=orthogonalEdgeStyle;rounded=0;orthogonalLoop=1;jettySize=auto;html=1;entryX=0.5;entryY=1;entryDx=0;entryDy=0;" parent="6zSFGCsgWJnyRSAjhiPo-2" source="YlT7sBuLaIt1WL4KYhNL-2" target="i9RioHXcWZIX31tU3eQO-0" edge="1">
          <mxGeometry relative="1" as="geometry"/>
        </mxCell>
        <mxCell id="eIsDiNrTnf5FpED5uTo0-0" value="Centre of research" style="swimlane;html=1;horizontal=0;swimlaneLine=0;startSize=23;" parent="6zSFGCsgWJnyRSAjhiPo-2" vertex="1">
          <mxGeometry x="20" y="481" width="1360" height="166" as="geometry"/>
        </mxCell>
        <mxCell id="1zD5Upz0kOD3P7n9vH3Z-2" value="" style="edgeStyle=orthogonalEdgeStyle;rounded=0;orthogonalLoop=1;jettySize=auto;html=1;" parent="6zSFGCsgWJnyRSAjhiPo-2" source="CfD8tcmFofAnOTCzsjhe-0" target="1zD5Upz0kOD3P7n9vH3Z-0" edge="1">
          <mxGeometry relative="1" as="geometry">
            <mxPoint x="1197" y="360.9999999999998" as="targetPoint"/>
          </mxGeometry>
        </mxCell>
      </root>
    </mxGraphModel>
  </diagram>
  <diagram name="Stage 0-1 via Colectica" id="TJGDpBY7fNoVzFgmfLTY">
    <mxGraphModel dx="1662" dy="889" grid="1" gridSize="10" guides="1" tooltips="1" connect="1" arrows="1" fold="1" page="1" pageScale="1" pageWidth="827" pageHeight="1169" math="0" shadow="0">
      <root>
        <mxCell id="ddjNSpZRvWLHEjSyopym-0"/>
        <mxCell id="ddjNSpZRvWLHEjSyopym-1" parent="ddjNSpZRvWLHEjSyopym-0"/>
        <mxCell id="ddjNSpZRvWLHEjSyopym-2" value="&lt;div&gt;&lt;img src=&quot;data:image/png;base64,iVBORw0KGgoAAAANSUhEUgAAATUAAAAuCAYAAABJeY7oAAAACXBIWXMAAA7GAAAO5gF/UekwAAAUIElEQVR4nO2dCTwW2//Hs+8iESGt5KZE15Ktq7gt2lNaLO3X0g1FCW0q3VK0oySh/hEqS0oLcrsJFUV1045EtuxZf+frNt3xNM+WR/q75/16zeuZOefMme+ZOfOZ71lmHt729vY+GAwG01vg7WkDMBgMhpNgUcNgML0KLGoYDKZXgUUNg8H0KrCoYTCYXgUWNQwG06vAoobBYHoVWNQwGEyvAosaBoPpVWBRw2AwvQosahgMpleBRQ2DwfQqsKhh/nNk5L02zHv+XpNefL++IqXGP49IFBcVrMrMe2tQVVvfz0hjeJIAP28jVfqikiqljMdvDA3GDrsmLSlaAmGPnhdrZuW9MSTSiAjz16gOkc0ZPXzgPc6XiDF/5byc9PfrUjV68bJS4oWmeiMv8XJztyTezjOX69+3YKyKwl0i/mLywyWV1fX9iW1xEYGqMcoKmSMGST+mzQvSpWTmTzHQ/PdcMCM+LdcCbPj5p0G32S0bFVjUMP85Fm48ldzW1s7DKI3umCEp5/5YZrzILTi5pbWNd76pxikf5znLqdLabAlLfF7wQVW2v3hheqiL4j/HCE6pa/gkRpWej5enOXLvciONkYrpXS8NcyzdTye1tbdzM0pjO99wj9syUze7XRHnYfv1ZS8uIs7JJyqc3n7aakq34Dxxc3O3wbbbwUsnrt55MpsHCeTjGE8xeg8CgvCETDvPo3HHYD3J32G0stKAXHbKRgUWNcx/Di4urvY+fdr7oLu2HQlREW18LRIjXbXBqf+m7dPnU1OLEL38QPTgl5eHu+VLYHs7V8e+7e19iGOUVdXJNLe08qOFb866E3eexW5B9zxvE8RlPX6rpyTX7wWVd4M8PgO42cFzLCmvlXtfVq0waoTsA/CsIL6gpHLIHyeT9vQVE6pcMlUrYNRwuQedC4wK296HYXk1RiowFVgxEYGPokICNbBejGyA34zcN0a61vsLM8JdB8J2U0sLP/y2trXxuvjGhBx2W7CQUZ7bAhIOEet1DU2izGxgBSxq3Uh5ebnstGnTiq9evSotISFR9r2OW1dXJ+7p6Xnu0aNHuoMHD34aFBSk972O/f8Jq+nax7zsp6/prvy5kJhYmmn7k4/hc/q699GIW5tgfbFbyM2ofSsNYN3cJaij6UX2kAjMXU+mEXErtoXF574o1pxmOOr8sU0WCxZsCE7NyH1tRKQ9m5i1Gn5fxm/jIbwngq6Ul5ubqy10h/UUsnfptC867OLNHMvSihq56tpGCRBd8j5xt3It3Jb/ulFeRuINVZ4ufheDiQcCJ2E5Q0dHxytKSkpP161b58RpI74VGxubrPnz5x+ZPn16SE/bwik4Uaa4uLhljY2NwklJSdKoYrdy0LyOepCenj6ZNvzw4cOm2tra1zl5rN6Iq42Je0DUn66t6GZuJTWBQQDbO5xHaiAefptb2/jgt66+SRyJyUBC0CTEhCrUVRTupmblT4XtgpKqIeD5dWdZDrjMswJRg/X4tEcWi6dqBdKm+W3nuZj4Q7bjaMMbPzULR19/sLQ77MKeGqKlpYWPl5e3uaft4BTv3r0bAg+grggao3MCort27VpXchjv52YUp4/VmyGE6lt5mP9Og1jPjtgkBb8gFpmoudrdgga0tP3rZfHy8HS6fooDJF4jYR2c+/ydZtr9578aag5PIscv2BicglScCzxAEHNY55RdHBG1yspKGV9f3wNZWVkToR9BV1f3qpOT0zpxcfEKiLe0tMzW09O7/OTJE62ysjI5SLNhwwb7sWPHphF5fPjwQd7b2/vEw4cP9fr161dibW29Z+fOnSfpNd3geC9fvlQ7cuTInlOnTnkqKys/2L179/yGhgZRf3//XampqbPq6+vFRo8efQcdy0FWVvaLCwz2gI15eXk6FRUVA1avXr0F5eExadKk8xkZGaa5ubk6SBT+3rFjx+LHjx9rHT9+fHtNTY3k1KlTw11cXNYQ/Sy0QNk+l0Ef2fxh6dKlu8nxERERa2NiYuxKSkoUxMTEqkxNTc/Z29u7Ezc0vTIx248MSn/8+vXrC6CSZGZmmpibmx9dtGiRHyvXiPacwPmgKieIJT8/P2UHMPIwC7ds2bKU8NpKS0sVZsyYUYBskgTb6R1LU1MzlZl9WlpaN/Lz89WheQ3lc3Z2dlJXV+9otrFy3X8EfEKv72z93OQaJNs14VEbJpdNrF9LfzrLVHfkJUEBvnpaAekO2trauLWX+Lwjtn/5eUQiOV5IkL9uorZyws2MZ2aomRp+7+xGGSKuqLRK6eGzIi1YXz3PwCcw6s8NnLSNI6Lm7u4eiSpsZWRk5EhUWB5Uqc9s3bo1zM/Pz4xIgyrb7ICAgAmSkpIfEhISbFB8+KVLl5SIeA8PjwhFRcVnly9flkMVVATyZHRMaAbn5OQY0DbVtm3bFtrc3MyPREEHbDpx4sR2VLkvhISE/EzuY0hOTp4XGBho2L9//2LYBlFDzbblSBTMoR8K/QYiAYvV0NBIDQ8PH1tVVSW9YsWKO3CzGRoaxlLZBGUYMGBAQXx8vDzcZG5ublHkeCkpqff79++fLi8v//LNmzcq69evj5ORkSlcuHDhQUZlYrYfmU2bNq0Gr6m1tZUXHd+WnWtEe066E9pj2dnZpTCzLyUlZU5wcLAO1CF4+KDzlRAdHT0cHnqsXncyofEZDmEJGfbkMB4k2Ke2W5pxQhja2tq5I5PuL7+d82pibV1j37KPdTKtpD6kfevnLKPdZ9S8nTWs5k/u9F/ldfYi/OqpD00O32VtQlVmKGv0jWwbcpiEmHC5i80kzznG6nRHOImy2HlHRIkICVR/gD60ukYJkh2FMv3EvqozAZ4L56rM2tFQXlUnfSzy1ib7BUYdD/lZzsc7pouICgtUw4jrDydqRUVFQ+/fvz8BBIp4Ejs6Oq5H3kEueC5EpZ0zZ85xqIywbmRkFOvl5RUCT2nwygoLC4ejm1l/3759MwUEBBpgWbly5fZ79+4Zs2MLeAVQ8WNjYwdBvhBma2vriW6UNeABDR8+/CGRdubMmUG0Ny+yMVBFRaVj5MjMzOx0YmKiFdwUUC5YkPdxDTw3KlFDZRiWnZ1tiPaRFRQUrIcFiaDX77//fo1IY2Ji8kWoQTiRF3UMeSaTqMSJzLfuR8DqNaI6J1RcuHDhtytXrliSw6KiopQJr4oVyMdi1T7k8QUTdQiuhYKCwnN0vedCK4DV604LbT8WdFw/eVUyhlPezqemFsEXBR9UyWFSEiKlyccdVYjRSzL0RgCR90opzNmRm6Rmrg3IfPu+cihs/5Xz0lh5lten3CiPvuC1kdNCWWnzh+0zCZm2zEQNvOeS8pqB7e3V8uRw5B3GntiyeBbVPjCy62RpvM0v7KaXL1pWzNbzu53zcmJZZe0AiN9ma7aW0TG/lS6LGmoSKfLw8LQgN/8tEYYq2wsijqiQffv2/dKEBNGCX2gmQCVEYiQvJCRUS74p5OTkvjQbkFBYoidxGLFNbsqQgb4kOPlkIQFAYODmIFdu5Ol8NbSNbP3iTiN76mAhHwe2EZRzj0BQoQzETQUgz/M5Oc3t27fNkNfnguzsqIDgkaI0+VT5cWI/AlavEdU5oWLKlClnVq1atY0cJioqWsWqPbTHYtU+WsGFbTjv7Fx3Mvpjh974fdEvO8hhfLzczeNUB/3FTllakWdJL066n9h7ZSWZvD8fvDCBbZT3nej9K+mORp/bs/wX2rCF//Q/Uc4zkxAVqrgV7DwM1sPiM+w3H4s/CsLsfjguwNdlrjU5LXhTMyaMPkebx3wTjRB69hBAc99ERyXuRWGZyquicmUIc7Aw2g0DH4z2c0TnNyAybWPDp2YRmOKRhJrJEA59buYmY08zO+630GVRg+YWNHWgckGTCMLgyUvEsZIHVHBorlVXV/cjhK24uPhL0xT6smCh3Y/WxSb6T6BZQzzRGcDR/waEskMZQKiFhYU7mhAwpYOIr6yslHZ1db3o4+Mze/z48Ylg+7lz55ySkpI6zeOhLROr+zGCjWvE0jkB8SbyoQWVvbapqUmQ2EbN9v5U6cjHYtU+8OjJGcA28prj2LzuXxim0P+p7uh/5qPRg5ubCwZb+FoZTF4lZtsjT+irNFP0VGNgGkXOsyKtWU6BGfeevB1PborRwsweRsCUjZC4u2vAM6yoqZeismXzqinrvjV/JGLeMKXD7dClE+eu3FsJU1PgLYrx6kOSGe0XuHnRXGvP0KswxYMIO7Rx/qJvtYMZbIka9HWQKywwcODAVxoaGrcOHDjg6+7uvgrSHDp0aB9qEiSy2jcDzQjo2D148OA+6NwFTyQoKGgrs/2kpKSK3759q0Jsw5MeNW0v7dq1KwgJwRq4IaCD/+7du6bGxsYx4A2wU152AM8COq1DQ0M3QtMHzgN4V0Q8CB48bZWVlbNBmD5+/CiFmlsrQSAYlYnV/RgBfXFdvUZkqOoBDFrAAIKqqmpWWlraDAMDg3gQqjNnzrjQy4dd+2CqysSJE6PgXERHR9uBhz9hwoQLIGTddd37S4iWQMd2wq3cBUfdFljQxkOHeW39J3FYH6EkQ3c2vLqyfKYHEpRdJ6747g257q2urJABnuK32gVYepy+Bh4gdNKHeFlNe/isSJto6g6Vl3rWlbwZ8cfaWav+ynk18W1xxVCbLaGJd8NcFSTFhenOwzRCTXkF5JkVllQNhm0Qxu58m4ItUTt//vwaWMhhZ8+eHY0qk4Ufwtzc/Bk0A3R0dJJg5IqdvCEPGLmDyarQhFu8eLEv9Knx8/N/orePlZXVXm9v76CYmBhbuJlgrhRqplojQdwCHc8VFRUyqNlbDiNr6GaIZseebwHKAKOf1tbW95DHWQk3IHSIQxyIv4ODgxuyKxluQujMhhsxMzNzErMysbIfK7Z19RoRUNWDzZs3L4PBDWSn+/bt20+j6/cIRoDB1itXrizhhH3z5s3z9/X1PZifnz8GHiIwiEB4Zt113VfP1d+/9fOs9w0HLp7c6zR7BTne1O5oHrG+Yvb4A4zyWjVHzy8lM9/sdvaLSeC53Aldr0h0sDOao0aOlxATqiTCwEsCUUvJyp86eNqWTl62+8rJrrR5cJIrR+3V1S12lzc1twrMRB5oWrDzUEbpI1CzWn+p72tY9/ewMO9O21gWNeRFTWEUv3PnTrruJIwekrdhOgB6ina6iPB0RU/qqcQ2DO3DDUw05agAzygiIqJTJyykhzlUtPOoGNlDFaamppaekpLSqVPVw8NjJb08AWlp6SJ0o00jh82dOzeAWLe0tPSBhRyPbkIP8jZVmVjZjwx4K7RhMILKzjWiB7N6AN6yv79/pwEe2gENqmMxsw9AHt0LmF5DFcfKdacl5maONQwK0IYj76z0N3N9H3ip22amzuGAqD83FJd9VICRzJib2VYWv447WVJRM/Bmxt9mxDukirKSrww1hl37+iidOeNtY6Kx8I8y1GSVmrrmWHZmuKsceODaakppr4rKR1Dt89NQ2RwxYcGPsL589ni/h/nvxpnoqMRCcxNeR9ofdsOLsGOAlPi7+EO2mlSDEJxEWJC/9vzeFUaznY+nF7yvHOLkEx12wHWeFb308FbBqe1WZjDiKSv19atanOSHmXz79OnTcVAxBw0a9AzmrMGco8mTJ/9fT9uF6X1wfe7PQ81GsUzSlzTIlFbWyEXvW6kP66nBjsMMlvq9hteBWlra+M5czrQlp4XXg1KDHDv198EIZ9176pHMm8fXjtRctKe0vKpOxtTuSN6NwLWqkUgg6Nl7+Yj9WGJ98njVi09iPL/kC/1csDAqL7yT2tTWyvAF/m8BRN/FepLHvtAbuy4m51ia6qrEKgyQfA1xVKO4xlojLlPlw8XVBybgcsy+H0bUoFMd5nVBXwiIG3QAQ7Orp+3C9D6clhh73UBeFqM0lmZa/sQ6TE2AF7ZPx911CIq57VJd19gXwvuKClU6W03cSjUdYuMyU7eTF+84zzPR+GqED/qf9q+bY3M08pa7vnrX+tVYwXFxR3mnzzIec5ZZWiszbf+3JZWDyWGzUfnel31UHDFI5qtPDa1ZOME760mB/suCDyPhZXcQ2KfI+51mMIpy4jYVdvMN995/WqD709B/JxN3hR9G1PT19RNg6Wk7MD8mrDaPWQHdiDthYXc/mxk6R2FhJa2Zodp5WOjFz500NgwWdm34Fljx5gh2OEy3pw1j1KwEQrZbdnpAnPdZQen90oPZtBB2+WFEDYPBYDgBFjUMBtOrwKKGwWB6FV+JGnzRMjT+rkP6w9e/lFfVyggL8ddqjlRMh28lqQ2Xu98TRmIwGAyrdBK1qGsPlsK7Yw2fmoXJ4TCaAa9FrJqnv3/DUpNNPBz+8CAGg8Fwii+iduFmjqWL34VT9BLCHzcERv3pCi/LduX9MQwGg+lOOkStorq+P3horOwQfPGOk5nBqPOaqop3utc0DAaDYZ8OUYNmJ/FSLjPgEySnYtPXYlHDYDA/Ih2iBt80Z2enzFzqV0swGAymp+kQtaqahq++vcSIsqpamYS0vPndY9LXfKxtkPxex8KwR1NziwDtwBLmxwFaYMz+uLk3IS0p+r5D1ESE+Fn+LjrQ0trG57A7guF/CHQn4iKCVfT+/ATTs/Dx8jQJC/LV9bQdGGrgKxm9efaC0sB+zztEbfyYIckpn/8vkBVm/TLm7MEN5ky/kYXBYDDfmw5RMzfROH3wbMrW+sYmEVZ2WjJNK4B5KgwGg/n+dIgafPtp8+qpzpsOXTrObAeLyZon4YN23W8aBoPBsM+XybeLpow7UVvfKL7n1LU/Wkj/TUgG0uywn+7w/czDYDAY9ugkXqvm6u+fqKWSAPPQbj94YfK+vFpegJ+3UWf04FSbGTpH9NSH3uwpQzEYDIYV/gc/+WhbTNETrgAAAABJRU5ErkJggg==&quot; width=&quot;309&quot; height=&quot;46&quot;&gt;&lt;/div&gt;&lt;div&gt;Data production overview: Colectica input&lt;br&gt;&lt;/div&gt;&lt;div&gt;Version 0.15&lt;/div&gt;&lt;div&gt;14 February 2020&lt;br&gt;&lt;/div&gt;" style="text;html=1;strokeColor=none;fillColor=none;spacing=5;spacingTop=-20;whiteSpace=wrap;overflow=hidden;rounded=0;" parent="ddjNSpZRvWLHEjSyopym-1" vertex="1">
          <mxGeometry x="10" y="10" width="340" height="90" as="geometry"/>
        </mxCell>
        <mxCell id="ddjNSpZRvWLHEjSyopym-3" value="EURHISFIRM data production" style="swimlane;html=1;horizontal=0;startSize=20;" parent="ddjNSpZRvWLHEjSyopym-1" vertex="1">
          <mxGeometry x="10" y="100" width="1380" height="880" as="geometry"/>
        </mxCell>
        <mxCell id="ddjNSpZRvWLHEjSyopym-4" value="Researcher" style="swimlane;html=1;horizontal=0;swimlaneLine=0;" parent="ddjNSpZRvWLHEjSyopym-3" vertex="1">
          <mxGeometry x="20" y="1" width="1360" height="480" as="geometry"/>
        </mxCell>
        <mxCell id="ddjNSpZRvWLHEjSyopym-5" value="" style="shape=mxgraph.bpmn.shape;html=1;verticalLabelPosition=bottom;labelBackgroundColor=#ffffff;verticalAlign=top;align=center;perimeter=ellipsePerimeter;outlineConnect=0;outline=standard;symbol=general;" parent="ddjNSpZRvWLHEjSyopym-4" vertex="1">
          <mxGeometry x="40" y="215" width="50" height="50" as="geometry"/>
        </mxCell>
        <mxCell id="ddjNSpZRvWLHEjSyopym-6" value="" style="edgeStyle=orthogonalEdgeStyle;rounded=0;orthogonalLoop=1;jettySize=auto;html=1;entryX=0;entryY=0.5;entryDx=0;entryDy=0;" parent="ddjNSpZRvWLHEjSyopym-4" source="ddjNSpZRvWLHEjSyopym-5" target="ddjNSpZRvWLHEjSyopym-14" edge="1">
          <mxGeometry relative="1" as="geometry">
            <mxPoint x="191" y="360" as="targetPoint"/>
          </mxGeometry>
        </mxCell>
        <mxCell id="ddjNSpZRvWLHEjSyopym-7" value="Yes" style="edgeStyle=orthogonalEdgeStyle;rounded=0;orthogonalLoop=1;jettySize=auto;html=1;" parent="ddjNSpZRvWLHEjSyopym-4" source="ddjNSpZRvWLHEjSyopym-8" target="ddjNSpZRvWLHEjSyopym-10" edge="1">
          <mxGeometry relative="1" as="geometry">
            <mxPoint x="1380" y="401" as="targetPoint"/>
          </mxGeometry>
        </mxCell>
        <mxCell id="ddjNSpZRvWLHEjSyopym-8" value="Project complete?" style="shape=mxgraph.bpmn.shape;html=1;verticalLabelPosition=bottom;labelBackgroundColor=#ffffff;verticalAlign=top;align=center;perimeter=rhombusPerimeter;background=gateway;outlineConnect=0;outline=none;symbol=exclusiveGw;" parent="ddjNSpZRvWLHEjSyopym-4" vertex="1">
          <mxGeometry x="1120" y="215" width="50" height="50" as="geometry"/>
        </mxCell>
        <mxCell id="ddjNSpZRvWLHEjSyopym-9" value="" style="edgeStyle=orthogonalEdgeStyle;rounded=0;orthogonalLoop=1;jettySize=auto;html=1;exitX=1;exitY=0.5;exitDx=0;exitDy=0;entryX=0;entryY=0.5;entryDx=0;entryDy=0;" parent="ddjNSpZRvWLHEjSyopym-4" source="ddjNSpZRvWLHEjSyopym-12" edge="1">
          <mxGeometry relative="1" as="geometry">
            <mxPoint x="1045" y="400.52941176470586" as="sourcePoint"/>
            <mxPoint x="933" y="240" as="targetPoint"/>
          </mxGeometry>
        </mxCell>
        <mxCell id="ddjNSpZRvWLHEjSyopym-10" value="End data production" style="shape=mxgraph.bpmn.shape;html=1;verticalLabelPosition=bottom;labelBackgroundColor=#ffffff;verticalAlign=top;align=center;perimeter=ellipsePerimeter;outlineConnect=0;outline=throwing;symbol=general;" parent="ddjNSpZRvWLHEjSyopym-4" vertex="1">
          <mxGeometry x="1274.5" y="215" width="50" height="50" as="geometry"/>
        </mxCell>
        <mxCell id="ddjNSpZRvWLHEjSyopym-11" value="Supply dataset&lt;i&gt;&lt;br&gt;&lt;/i&gt;" style="shape=ext;rounded=1;html=1;whiteSpace=wrap;" parent="ddjNSpZRvWLHEjSyopym-4" vertex="1">
          <mxGeometry x="320.5" y="200" width="120" height="80" as="geometry"/>
        </mxCell>
        <mxCell id="ddjNSpZRvWLHEjSyopym-12" value="(managed front-end) Manual value corrections (optional)" style="shape=ext;rounded=1;html=1;whiteSpace=wrap;" parent="ddjNSpZRvWLHEjSyopym-4" vertex="1">
          <mxGeometry x="740" y="200" width="120" height="80" as="geometry"/>
        </mxCell>
        <mxCell id="ddjNSpZRvWLHEjSyopym-13" value="" style="edgeStyle=orthogonalEdgeStyle;rounded=0;orthogonalLoop=1;jettySize=auto;html=1;" parent="ddjNSpZRvWLHEjSyopym-4" source="ddjNSpZRvWLHEjSyopym-14" target="ddjNSpZRvWLHEjSyopym-11" edge="1">
          <mxGeometry relative="1" as="geometry"/>
        </mxCell>
        <mxCell id="ddjNSpZRvWLHEjSyopym-14" value="Setup dataset in COLECTICA 7" style="shape=ext;rounded=1;html=1;whiteSpace=wrap;" parent="ddjNSpZRvWLHEjSyopym-4" vertex="1">
          <mxGeometry x="131" y="200" width="120" height="80" as="geometry"/>
        </mxCell>
        <mxCell id="ddjNSpZRvWLHEjSyopym-15" value="No, continue" style="endArrow=block;endFill=1;endSize=6;html=1;entryX=0.5;entryY=0;entryDx=0;entryDy=0;exitX=0.5;exitY=0;exitDx=0;exitDy=0;" parent="ddjNSpZRvWLHEjSyopym-4" source="ddjNSpZRvWLHEjSyopym-8" target="ddjNSpZRvWLHEjSyopym-14" edge="1">
          <mxGeometry width="100" relative="1" as="geometry">
            <mxPoint x="998" y="167" as="sourcePoint"/>
            <mxPoint x="1068" y="137" as="targetPoint"/>
            <Array as="points">
              <mxPoint x="1145" y="149"/>
              <mxPoint x="191" y="149"/>
            </Array>
          </mxGeometry>
        </mxCell>
        <mxCell id="ddjNSpZRvWLHEjSyopym-16" value="Users and rights" style="shape=datastore;whiteSpace=wrap;html=1;" parent="ddjNSpZRvWLHEjSyopym-4" vertex="1">
          <mxGeometry x="770" y="319" width="60" height="60" as="geometry"/>
        </mxCell>
        <mxCell id="ddjNSpZRvWLHEjSyopym-17" value="" style="endArrow=none;dashed=1;html=1;exitX=0.5;exitY=0;exitDx=0;exitDy=0;entryX=0.5;entryY=1;entryDx=0;entryDy=0;" parent="ddjNSpZRvWLHEjSyopym-4" source="ddjNSpZRvWLHEjSyopym-16" target="ddjNSpZRvWLHEjSyopym-12" edge="1">
          <mxGeometry width="50" height="50" relative="1" as="geometry">
            <mxPoint x="99" y="419" as="sourcePoint"/>
            <mxPoint x="109" y="389" as="targetPoint"/>
          </mxGeometry>
        </mxCell>
        <mxCell id="ddjNSpZRvWLHEjSyopym-18" value="" style="edgeStyle=orthogonalEdgeStyle;rounded=0;orthogonalLoop=1;jettySize=auto;html=1;" parent="ddjNSpZRvWLHEjSyopym-4" source="ddjNSpZRvWLHEjSyopym-19" target="ddjNSpZRvWLHEjSyopym-8" edge="1">
          <mxGeometry relative="1" as="geometry"/>
        </mxCell>
        <mxCell id="ddjNSpZRvWLHEjSyopym-19" value="Dataset checkout: set metadata" style="shape=ext;rounded=1;html=1;whiteSpace=wrap;" parent="ddjNSpZRvWLHEjSyopym-4" vertex="1">
          <mxGeometry x="930" y="200" width="120" height="80" as="geometry"/>
        </mxCell>
        <mxCell id="ddjNSpZRvWLHEjSyopym-20" value="" style="edgeStyle=orthogonalEdgeStyle;rounded=0;orthogonalLoop=1;jettySize=auto;html=1;entryX=0;entryY=0.5;entryDx=0;entryDy=0;" parent="ddjNSpZRvWLHEjSyopym-4" source="ddjNSpZRvWLHEjSyopym-21" target="ddjNSpZRvWLHEjSyopym-12" edge="1">
          <mxGeometry relative="1" as="geometry">
            <mxPoint x="762" y="239.99999999999977" as="targetPoint"/>
          </mxGeometry>
        </mxCell>
        <mxCell id="ddjNSpZRvWLHEjSyopym-21" value="" style="shape=mxgraph.bpmn.shape;html=1;verticalLabelPosition=bottom;labelBackgroundColor=#ffffff;verticalAlign=top;align=center;perimeter=ellipsePerimeter;outlineConnect=0;outline=catching;symbol=message;" parent="ddjNSpZRvWLHEjSyopym-4" vertex="1">
          <mxGeometry x="632" y="215" width="50" height="50" as="geometry"/>
        </mxCell>
        <mxCell id="ddjNSpZRvWLHEjSyopym-22" value="Infrastructure DB" style="shape=datastore;whiteSpace=wrap;html=1;" parent="ddjNSpZRvWLHEjSyopym-4" vertex="1">
          <mxGeometry x="350.5" y="409" width="60" height="60" as="geometry"/>
        </mxCell>
        <mxCell id="ddjNSpZRvWLHEjSyopym-23" value="" style="endArrow=none;dashed=1;html=1;entryX=0.5;entryY=1;entryDx=0;entryDy=0;exitX=0.5;exitY=0;exitDx=0;exitDy=0;" parent="ddjNSpZRvWLHEjSyopym-4" source="ddjNSpZRvWLHEjSyopym-22" target="ddjNSpZRvWLHEjSyopym-11" edge="1">
          <mxGeometry width="50" height="50" relative="1" as="geometry">
            <mxPoint x="340" y="598" as="sourcePoint"/>
            <mxPoint x="1056" y="499" as="targetPoint"/>
          </mxGeometry>
        </mxCell>
        <mxCell id="ddjNSpZRvWLHEjSyopym-24" value="&lt;div&gt;Identify&lt;/div&gt;&lt;div&gt;existing&lt;/div&gt;&lt;div&gt;objects for &lt;br&gt;&lt;/div&gt;&lt;div&gt;deduplication, &lt;br&gt;&lt;/div&gt;&lt;div&gt;consolidation, &lt;br&gt;&lt;/div&gt;&lt;div&gt;corporate actions&lt;br&gt;&lt;/div&gt;" style="text;html=1;resizable=0;points=[];align=center;verticalAlign=middle;labelBackgroundColor=#ffffff;" parent="ddjNSpZRvWLHEjSyopym-23" vertex="1" connectable="0">
          <mxGeometry x="0.2121" y="-3" relative="1" as="geometry">
            <mxPoint as="offset"/>
          </mxGeometry>
        </mxCell>
        <mxCell id="ddjNSpZRvWLHEjSyopym-35" value="Colectica online" style="shape=datastore;whiteSpace=wrap;html=1;" parent="ddjNSpZRvWLHEjSyopym-4" vertex="1">
          <mxGeometry x="50" y="379" width="60" height="60" as="geometry"/>
        </mxCell>
        <mxCell id="ddjNSpZRvWLHEjSyopym-42" value="" style="endArrow=none;dashed=1;html=1;entryX=0.5;entryY=0;entryDx=0;entryDy=0;exitX=0.2;exitY=0.988;exitDx=0;exitDy=0;exitPerimeter=0;" parent="ddjNSpZRvWLHEjSyopym-4" source="ddjNSpZRvWLHEjSyopym-14" target="ddjNSpZRvWLHEjSyopym-35" edge="1">
          <mxGeometry width="50" height="50" relative="1" as="geometry">
            <mxPoint x="-20" y="1059" as="sourcePoint"/>
            <mxPoint x="30" y="1009" as="targetPoint"/>
          </mxGeometry>
        </mxCell>
        <mxCell id="ddjNSpZRvWLHEjSyopym-43" value="&lt;div&gt;Administration, &lt;br&gt;&lt;/div&gt;&lt;div&gt;unknown whom&lt;/div&gt;&lt;div&gt;maintains this&lt;br&gt;&lt;/div&gt;" style="text;html=1;resizable=0;points=[];align=center;verticalAlign=middle;labelBackgroundColor=#ffffff;" parent="ddjNSpZRvWLHEjSyopym-42" vertex="1" connectable="0">
          <mxGeometry x="0.3899" relative="1" as="geometry">
            <mxPoint x="-1" as="offset"/>
          </mxGeometry>
        </mxCell>
        <mxCell id="ddjNSpZRvWLHEjSyopym-50" value="Announced only" style="shape=callout;whiteSpace=wrap;html=1;perimeter=calloutPerimeter;position2=0.66;" parent="ddjNSpZRvWLHEjSyopym-4" vertex="1">
          <mxGeometry x="40" y="109" width="140" height="91" as="geometry"/>
        </mxCell>
        <mxCell id="ddjNSpZRvWLHEjSyopym-25" value="&lt;div&gt;EURHISFIRM &lt;br&gt;&lt;/div&gt;&lt;div&gt;central support&lt;/div&gt;" style="swimlane;html=1;horizontal=0;swimlaneLine=0;startSize=30;" parent="ddjNSpZRvWLHEjSyopym-3" vertex="1">
          <mxGeometry x="20" y="647" width="1360" height="233" as="geometry"/>
        </mxCell>
        <mxCell id="ddjNSpZRvWLHEjSyopym-26" value="Common Data Model definitions" style="shape=datastore;whiteSpace=wrap;html=1;" parent="ddjNSpZRvWLHEjSyopym-25" vertex="1">
          <mxGeometry x="71" y="153" width="60" height="60" as="geometry"/>
        </mxCell>
        <mxCell id="ddjNSpZRvWLHEjSyopym-27" value="Indexing and access in RI" style="shape=ext;rounded=1;html=1;whiteSpace=wrap;" parent="ddjNSpZRvWLHEjSyopym-25" vertex="1">
          <mxGeometry x="1083" y="48" width="120" height="80" as="geometry"/>
        </mxCell>
        <mxCell id="ddjNSpZRvWLHEjSyopym-31" value="Infrastructure DB" style="shape=datastore;whiteSpace=wrap;html=1;" parent="ddjNSpZRvWLHEjSyopym-25" vertex="1">
          <mxGeometry x="762.5" y="153" width="60" height="60" as="geometry"/>
        </mxCell>
        <mxCell id="ddjNSpZRvWLHEjSyopym-32" value="" style="endArrow=none;dashed=1;html=1;exitX=0.5;exitY=0;exitDx=0;exitDy=0;entryX=1;entryY=0.75;entryDx=0;entryDy=0;" parent="ddjNSpZRvWLHEjSyopym-25" source="ddjNSpZRvWLHEjSyopym-31" target="ddjNSpZRvWLHEjSyopym-34" edge="1">
          <mxGeometry width="50" height="50" relative="1" as="geometry">
            <mxPoint x="1199" y="300" as="sourcePoint"/>
            <mxPoint x="1249" y="250" as="targetPoint"/>
          </mxGeometry>
        </mxCell>
        <mxCell id="ddjNSpZRvWLHEjSyopym-34" value="&lt;div&gt;Process dataset as stage 0 or 1 and manage project access&lt;br&gt;&lt;/div&gt;" style="shape=ext;rounded=1;html=1;whiteSpace=wrap;" parent="ddjNSpZRvWLHEjSyopym-25" vertex="1">
          <mxGeometry x="597" y="57" width="120" height="93" as="geometry"/>
        </mxCell>
        <mxCell id="ddjNSpZRvWLHEjSyopym-36" value="Dataset approval required?" style="shape=mxgraph.bpmn.shape;html=1;verticalLabelPosition=bottom;labelBackgroundColor=#ffffff;verticalAlign=top;align=center;perimeter=rhombusPerimeter;background=gateway;outlineConnect=0;outline=none;symbol=exclusiveGw;" parent="ddjNSpZRvWLHEjSyopym-25" vertex="1">
          <mxGeometry x="456.5" y="79" width="50" height="50" as="geometry"/>
        </mxCell>
        <mxCell id="ddjNSpZRvWLHEjSyopym-37" value="Approved" style="edgeStyle=orthogonalEdgeStyle;rounded=0;orthogonalLoop=1;jettySize=auto;html=1;entryX=0;entryY=0.5;entryDx=0;entryDy=0;exitX=1;exitY=0.5;exitDx=0;exitDy=0;" parent="ddjNSpZRvWLHEjSyopym-25" source="ddjNSpZRvWLHEjSyopym-36" target="ddjNSpZRvWLHEjSyopym-34" edge="1">
          <mxGeometry relative="1" as="geometry">
            <mxPoint x="190" y="54" as="targetPoint"/>
          </mxGeometry>
        </mxCell>
        <mxCell id="ddjNSpZRvWLHEjSyopym-38" value="" style="edgeStyle=orthogonalEdgeStyle;rounded=0;orthogonalLoop=1;jettySize=auto;html=1;" parent="ddjNSpZRvWLHEjSyopym-25" source="ddjNSpZRvWLHEjSyopym-39" target="ddjNSpZRvWLHEjSyopym-27" edge="1">
          <mxGeometry relative="1" as="geometry"/>
        </mxCell>
        <mxCell id="ddjNSpZRvWLHEjSyopym-39" value="" style="shape=mxgraph.bpmn.shape;html=1;verticalLabelPosition=bottom;labelBackgroundColor=#ffffff;verticalAlign=top;align=center;perimeter=ellipsePerimeter;outlineConnect=0;outline=catching;symbol=message;" parent="ddjNSpZRvWLHEjSyopym-25" vertex="1">
          <mxGeometry x="965" y="63" width="50" height="50" as="geometry"/>
        </mxCell>
        <mxCell id="ddjNSpZRvWLHEjSyopym-40" value="" style="endArrow=none;dashed=1;html=1;entryX=0.325;entryY=1.025;entryDx=0;entryDy=0;exitX=0.5;exitY=0;exitDx=0;exitDy=0;entryPerimeter=0;" parent="ddjNSpZRvWLHEjSyopym-3" source="ddjNSpZRvWLHEjSyopym-26" target="ddjNSpZRvWLHEjSyopym-14" edge="1">
          <mxGeometry width="50" height="50" relative="1" as="geometry">
            <mxPoint x="190" y="444" as="sourcePoint"/>
            <mxPoint x="211" y="342" as="targetPoint"/>
          </mxGeometry>
        </mxCell>
        <mxCell id="ddjNSpZRvWLHEjSyopym-41" value="&lt;div&gt;Optional&lt;/div&gt;&lt;div&gt;Use CDM &lt;br&gt;&lt;/div&gt;&lt;div&gt;definitions&lt;/div&gt;" style="text;html=1;resizable=0;points=[];align=center;verticalAlign=middle;labelBackgroundColor=#ffffff;" parent="ddjNSpZRvWLHEjSyopym-40" vertex="1" connectable="0">
          <mxGeometry x="-0.2436" y="-1" relative="1" as="geometry">
            <mxPoint as="offset"/>
          </mxGeometry>
        </mxCell>
        <mxCell id="ddjNSpZRvWLHEjSyopym-44" value="" style="edgeStyle=orthogonalEdgeStyle;rounded=0;orthogonalLoop=1;jettySize=auto;html=1;entryX=0.5;entryY=0;entryDx=0;entryDy=0;exitX=1;exitY=0.5;exitDx=0;exitDy=0;" parent="ddjNSpZRvWLHEjSyopym-3" source="ddjNSpZRvWLHEjSyopym-11" target="ddjNSpZRvWLHEjSyopym-36" edge="1">
          <mxGeometry relative="1" as="geometry"/>
        </mxCell>
        <mxCell id="ddjNSpZRvWLHEjSyopym-45" value="&lt;div&gt;Required changes&lt;/div&gt;&lt;div&gt;for approval&lt;br&gt;&lt;/div&gt;" style="startArrow=oval;startFill=0;startSize=7;endArrow=block;endFill=0;endSize=10;dashed=1;html=1;entryX=0.675;entryY=1;entryDx=0;entryDy=0;entryPerimeter=0;exitX=0;exitY=0.5;exitDx=0;exitDy=0;" parent="ddjNSpZRvWLHEjSyopym-3" source="ddjNSpZRvWLHEjSyopym-36" target="ddjNSpZRvWLHEjSyopym-14" edge="1">
          <mxGeometry x="-0.1654" relative="1" as="geometry">
            <mxPoint x="480" y="722" as="sourcePoint"/>
            <mxPoint x="420" y="260" as="targetPoint"/>
            <Array as="points">
              <mxPoint x="232" y="751"/>
              <mxPoint x="232" y="460"/>
            </Array>
            <mxPoint as="offset"/>
          </mxGeometry>
        </mxCell>
        <mxCell id="ddjNSpZRvWLHEjSyopym-46" value="" style="shape=message;html=1;outlineConnect=0;" parent="ddjNSpZRvWLHEjSyopym-45" vertex="1">
          <mxGeometry width="20" height="14" relative="1" as="geometry">
            <mxPoint x="-10" y="-7" as="offset"/>
          </mxGeometry>
        </mxCell>
        <mxCell id="ddjNSpZRvWLHEjSyopym-47" style="edgeStyle=orthogonalEdgeStyle;rounded=0;orthogonalLoop=1;jettySize=auto;html=1;entryX=0.5;entryY=1;entryDx=0;entryDy=0;" parent="ddjNSpZRvWLHEjSyopym-3" source="ddjNSpZRvWLHEjSyopym-34" target="ddjNSpZRvWLHEjSyopym-21" edge="1">
          <mxGeometry relative="1" as="geometry"/>
        </mxCell>
        <mxCell id="ddjNSpZRvWLHEjSyopym-48" value="Centre of research" style="swimlane;html=1;horizontal=0;swimlaneLine=0;startSize=23;" parent="ddjNSpZRvWLHEjSyopym-3" vertex="1">
          <mxGeometry x="20" y="481" width="1360" height="166" as="geometry"/>
        </mxCell>
        <mxCell id="ddjNSpZRvWLHEjSyopym-49" value="" style="edgeStyle=orthogonalEdgeStyle;rounded=0;orthogonalLoop=1;jettySize=auto;html=1;" parent="ddjNSpZRvWLHEjSyopym-3" source="ddjNSpZRvWLHEjSyopym-19" target="ddjNSpZRvWLHEjSyopym-39" edge="1">
          <mxGeometry relative="1" as="geometry">
            <mxPoint x="1197" y="360.9999999999998" as="targetPoint"/>
          </mxGeometry>
        </mxCell>
      </root>
    </mxGraphModel>
  </diagram>
  <diagram id="StcGPXZg6Vh0WlSZSXJ_" name="Stage 1 Manual entry">
    <mxGraphModel dx="1662" dy="889" grid="1" gridSize="10" guides="1" tooltips="1" connect="1" arrows="1" fold="1" page="1" pageScale="1" pageWidth="1169" pageHeight="827" math="0" shadow="0">
      <root>
        <mxCell id="oZCL1Nwg26oPMsbeNufO-0"/>
        <mxCell id="oZCL1Nwg26oPMsbeNufO-1" parent="oZCL1Nwg26oPMsbeNufO-0"/>
        <mxCell id="nY0cY8gh_f5xYaZBzYKh-0" value="&lt;div&gt;&lt;img src=&quot;data:image/png;base64,iVBORw0KGgoAAAANSUhEUgAAATUAAAAuCAYAAABJeY7oAAAACXBIWXMAAA7GAAAO5gF/UekwAAAUIElEQVR4nO2dCTwW2//Hs+8iESGt5KZE15Ktq7gt2lNaLO3X0g1FCW0q3VK0oySh/hEqS0oLcrsJFUV1045EtuxZf+frNt3xNM+WR/q75/16zeuZOefMme+ZOfOZ71lmHt729vY+GAwG01vg7WkDMBgMhpNgUcNgML0KLGoYDKZXgUUNg8H0KrCoYTCYXgUWNQwG06vAoobBYHoVWNQwGEyvAosaBoPpVWBRw2AwvQosahgMpleBRQ2DwfQqsKhh/nNk5L02zHv+XpNefL++IqXGP49IFBcVrMrMe2tQVVvfz0hjeJIAP28jVfqikiqljMdvDA3GDrsmLSlaAmGPnhdrZuW9MSTSiAjz16gOkc0ZPXzgPc6XiDF/5byc9PfrUjV68bJS4oWmeiMv8XJztyTezjOX69+3YKyKwl0i/mLywyWV1fX9iW1xEYGqMcoKmSMGST+mzQvSpWTmTzHQ/PdcMCM+LdcCbPj5p0G32S0bFVjUMP85Fm48ldzW1s7DKI3umCEp5/5YZrzILTi5pbWNd76pxikf5znLqdLabAlLfF7wQVW2v3hheqiL4j/HCE6pa/gkRpWej5enOXLvciONkYrpXS8NcyzdTye1tbdzM0pjO99wj9syUze7XRHnYfv1ZS8uIs7JJyqc3n7aakq34Dxxc3O3wbbbwUsnrt55MpsHCeTjGE8xeg8CgvCETDvPo3HHYD3J32G0stKAXHbKRgUWNcx/Di4urvY+fdr7oLu2HQlREW18LRIjXbXBqf+m7dPnU1OLEL38QPTgl5eHu+VLYHs7V8e+7e19iGOUVdXJNLe08qOFb866E3eexW5B9zxvE8RlPX6rpyTX7wWVd4M8PgO42cFzLCmvlXtfVq0waoTsA/CsIL6gpHLIHyeT9vQVE6pcMlUrYNRwuQedC4wK296HYXk1RiowFVgxEYGPokICNbBejGyA34zcN0a61vsLM8JdB8J2U0sLP/y2trXxuvjGhBx2W7CQUZ7bAhIOEet1DU2izGxgBSxq3Uh5ebnstGnTiq9evSotISFR9r2OW1dXJ+7p6Xnu0aNHuoMHD34aFBSk972O/f8Jq+nax7zsp6/prvy5kJhYmmn7k4/hc/q699GIW5tgfbFbyM2ofSsNYN3cJaij6UX2kAjMXU+mEXErtoXF574o1pxmOOr8sU0WCxZsCE7NyH1tRKQ9m5i1Gn5fxm/jIbwngq6Ul5ubqy10h/UUsnfptC867OLNHMvSihq56tpGCRBd8j5xt3It3Jb/ulFeRuINVZ4ufheDiQcCJ2E5Q0dHxytKSkpP161b58RpI74VGxubrPnz5x+ZPn16SE/bwik4Uaa4uLhljY2NwklJSdKoYrdy0LyOepCenj6ZNvzw4cOm2tra1zl5rN6Iq42Je0DUn66t6GZuJTWBQQDbO5xHaiAefptb2/jgt66+SRyJyUBC0CTEhCrUVRTupmblT4XtgpKqIeD5dWdZDrjMswJRg/X4tEcWi6dqBdKm+W3nuZj4Q7bjaMMbPzULR19/sLQ77MKeGqKlpYWPl5e3uaft4BTv3r0bAg+grggao3MCort27VpXchjv52YUp4/VmyGE6lt5mP9Og1jPjtgkBb8gFpmoudrdgga0tP3rZfHy8HS6fooDJF4jYR2c+/ydZtr9578aag5PIscv2BicglScCzxAEHNY55RdHBG1yspKGV9f3wNZWVkToR9BV1f3qpOT0zpxcfEKiLe0tMzW09O7/OTJE62ysjI5SLNhwwb7sWPHphF5fPjwQd7b2/vEw4cP9fr161dibW29Z+fOnSfpNd3geC9fvlQ7cuTInlOnTnkqKys/2L179/yGhgZRf3//XampqbPq6+vFRo8efQcdy0FWVvaLCwz2gI15eXk6FRUVA1avXr0F5eExadKk8xkZGaa5ubk6SBT+3rFjx+LHjx9rHT9+fHtNTY3k1KlTw11cXNYQ/Sy0QNk+l0Ef2fxh6dKlu8nxERERa2NiYuxKSkoUxMTEqkxNTc/Z29u7Ezc0vTIx248MSn/8+vXrC6CSZGZmmpibmx9dtGiRHyvXiPacwPmgKieIJT8/P2UHMPIwC7ds2bKU8NpKS0sVZsyYUYBskgTb6R1LU1MzlZl9WlpaN/Lz89WheQ3lc3Z2dlJXV+9otrFy3X8EfEKv72z93OQaJNs14VEbJpdNrF9LfzrLVHfkJUEBvnpaAekO2trauLWX+Lwjtn/5eUQiOV5IkL9uorZyws2MZ2aomRp+7+xGGSKuqLRK6eGzIi1YXz3PwCcw6s8NnLSNI6Lm7u4eiSpsZWRk5EhUWB5Uqc9s3bo1zM/Pz4xIgyrb7ICAgAmSkpIfEhISbFB8+KVLl5SIeA8PjwhFRcVnly9flkMVVATyZHRMaAbn5OQY0DbVtm3bFtrc3MyPREEHbDpx4sR2VLkvhISE/EzuY0hOTp4XGBho2L9//2LYBlFDzbblSBTMoR8K/QYiAYvV0NBIDQ8PH1tVVSW9YsWKO3CzGRoaxlLZBGUYMGBAQXx8vDzcZG5ublHkeCkpqff79++fLi8v//LNmzcq69evj5ORkSlcuHDhQUZlYrYfmU2bNq0Gr6m1tZUXHd+WnWtEe066E9pj2dnZpTCzLyUlZU5wcLAO1CF4+KDzlRAdHT0cHnqsXncyofEZDmEJGfbkMB4k2Ke2W5pxQhja2tq5I5PuL7+d82pibV1j37KPdTKtpD6kfevnLKPdZ9S8nTWs5k/u9F/ldfYi/OqpD00O32VtQlVmKGv0jWwbcpiEmHC5i80kzznG6nRHOImy2HlHRIkICVR/gD60ukYJkh2FMv3EvqozAZ4L56rM2tFQXlUnfSzy1ib7BUYdD/lZzsc7pouICgtUw4jrDydqRUVFQ+/fvz8BBIp4Ejs6Oq5H3kEueC5EpZ0zZ85xqIywbmRkFOvl5RUCT2nwygoLC4ejm1l/3759MwUEBBpgWbly5fZ79+4Zs2MLeAVQ8WNjYwdBvhBma2vriW6UNeABDR8+/CGRdubMmUG0Ny+yMVBFRaVj5MjMzOx0YmKiFdwUUC5YkPdxDTw3KlFDZRiWnZ1tiPaRFRQUrIcFiaDX77//fo1IY2Ji8kWoQTiRF3UMeSaTqMSJzLfuR8DqNaI6J1RcuHDhtytXrliSw6KiopQJr4oVyMdi1T7k8QUTdQiuhYKCwnN0vedCK4DV604LbT8WdFw/eVUyhlPezqemFsEXBR9UyWFSEiKlyccdVYjRSzL0RgCR90opzNmRm6Rmrg3IfPu+cihs/5Xz0lh5lten3CiPvuC1kdNCWWnzh+0zCZm2zEQNvOeS8pqB7e3V8uRw5B3GntiyeBbVPjCy62RpvM0v7KaXL1pWzNbzu53zcmJZZe0AiN9ma7aW0TG/lS6LGmoSKfLw8LQgN/8tEYYq2wsijqiQffv2/dKEBNGCX2gmQCVEYiQvJCRUS74p5OTkvjQbkFBYoidxGLFNbsqQgb4kOPlkIQFAYODmIFdu5Ol8NbSNbP3iTiN76mAhHwe2EZRzj0BQoQzETQUgz/M5Oc3t27fNkNfnguzsqIDgkaI0+VT5cWI/AlavEdU5oWLKlClnVq1atY0cJioqWsWqPbTHYtU+WsGFbTjv7Fx3Mvpjh974fdEvO8hhfLzczeNUB/3FTllakWdJL066n9h7ZSWZvD8fvDCBbZT3nej9K+mORp/bs/wX2rCF//Q/Uc4zkxAVqrgV7DwM1sPiM+w3H4s/CsLsfjguwNdlrjU5LXhTMyaMPkebx3wTjRB69hBAc99ERyXuRWGZyquicmUIc7Aw2g0DH4z2c0TnNyAybWPDp2YRmOKRhJrJEA59buYmY08zO+630GVRg+YWNHWgckGTCMLgyUvEsZIHVHBorlVXV/cjhK24uPhL0xT6smCh3Y/WxSb6T6BZQzzRGcDR/waEskMZQKiFhYU7mhAwpYOIr6yslHZ1db3o4+Mze/z48Ylg+7lz55ySkpI6zeOhLROr+zGCjWvE0jkB8SbyoQWVvbapqUmQ2EbN9v5U6cjHYtU+8OjJGcA28prj2LzuXxim0P+p7uh/5qPRg5ubCwZb+FoZTF4lZtsjT+irNFP0VGNgGkXOsyKtWU6BGfeevB1PborRwsweRsCUjZC4u2vAM6yoqZeismXzqinrvjV/JGLeMKXD7dClE+eu3FsJU1PgLYrx6kOSGe0XuHnRXGvP0KswxYMIO7Rx/qJvtYMZbIka9HWQKywwcODAVxoaGrcOHDjg6+7uvgrSHDp0aB9qEiSy2jcDzQjo2D148OA+6NwFTyQoKGgrs/2kpKSK3759q0Jsw5MeNW0v7dq1KwgJwRq4IaCD/+7du6bGxsYx4A2wU152AM8COq1DQ0M3QtMHzgN4V0Q8CB48bZWVlbNBmD5+/CiFmlsrQSAYlYnV/RgBfXFdvUZkqOoBDFrAAIKqqmpWWlraDAMDg3gQqjNnzrjQy4dd+2CqysSJE6PgXERHR9uBhz9hwoQLIGTddd37S4iWQMd2wq3cBUfdFljQxkOHeW39J3FYH6EkQ3c2vLqyfKYHEpRdJ6747g257q2urJABnuK32gVYepy+Bh4gdNKHeFlNe/isSJto6g6Vl3rWlbwZ8cfaWav+ynk18W1xxVCbLaGJd8NcFSTFhenOwzRCTXkF5JkVllQNhm0Qxu58m4ItUTt//vwaWMhhZ8+eHY0qk4Ufwtzc/Bk0A3R0dJJg5IqdvCEPGLmDyarQhFu8eLEv9Knx8/N/orePlZXVXm9v76CYmBhbuJlgrhRqplojQdwCHc8VFRUyqNlbDiNr6GaIZseebwHKAKOf1tbW95DHWQk3IHSIQxyIv4ODgxuyKxluQujMhhsxMzNzErMysbIfK7Z19RoRUNWDzZs3L4PBDWSn+/bt20+j6/cIRoDB1itXrizhhH3z5s3z9/X1PZifnz8GHiIwiEB4Zt113VfP1d+/9fOs9w0HLp7c6zR7BTne1O5oHrG+Yvb4A4zyWjVHzy8lM9/sdvaLSeC53Aldr0h0sDOao0aOlxATqiTCwEsCUUvJyp86eNqWTl62+8rJrrR5cJIrR+3V1S12lzc1twrMRB5oWrDzUEbpI1CzWn+p72tY9/ewMO9O21gWNeRFTWEUv3PnTrruJIwekrdhOgB6ina6iPB0RU/qqcQ2DO3DDUw05agAzygiIqJTJyykhzlUtPOoGNlDFaamppaekpLSqVPVw8NjJb08AWlp6SJ0o00jh82dOzeAWLe0tPSBhRyPbkIP8jZVmVjZjwx4K7RhMILKzjWiB7N6AN6yv79/pwEe2gENqmMxsw9AHt0LmF5DFcfKdacl5maONQwK0IYj76z0N3N9H3ip22amzuGAqD83FJd9VICRzJib2VYWv447WVJRM/Bmxt9mxDukirKSrww1hl37+iidOeNtY6Kx8I8y1GSVmrrmWHZmuKsceODaakppr4rKR1Dt89NQ2RwxYcGPsL589ni/h/nvxpnoqMRCcxNeR9ofdsOLsGOAlPi7+EO2mlSDEJxEWJC/9vzeFUaznY+nF7yvHOLkEx12wHWeFb308FbBqe1WZjDiKSv19atanOSHmXz79OnTcVAxBw0a9AzmrMGco8mTJ/9fT9uF6X1wfe7PQ81GsUzSlzTIlFbWyEXvW6kP66nBjsMMlvq9hteBWlra+M5czrQlp4XXg1KDHDv198EIZ9176pHMm8fXjtRctKe0vKpOxtTuSN6NwLWqkUgg6Nl7+Yj9WGJ98njVi09iPL/kC/1csDAqL7yT2tTWyvAF/m8BRN/FepLHvtAbuy4m51ia6qrEKgyQfA1xVKO4xlojLlPlw8XVBybgcsy+H0bUoFMd5nVBXwiIG3QAQ7Orp+3C9D6clhh73UBeFqM0lmZa/sQ6TE2AF7ZPx911CIq57VJd19gXwvuKClU6W03cSjUdYuMyU7eTF+84zzPR+GqED/qf9q+bY3M08pa7vnrX+tVYwXFxR3mnzzIec5ZZWiszbf+3JZWDyWGzUfnel31UHDFI5qtPDa1ZOME760mB/suCDyPhZXcQ2KfI+51mMIpy4jYVdvMN995/WqD709B/JxN3hR9G1PT19RNg6Wk7MD8mrDaPWQHdiDthYXc/mxk6R2FhJa2Zodp5WOjFz500NgwWdm34Fljx5gh2OEy3pw1j1KwEQrZbdnpAnPdZQen90oPZtBB2+WFEDYPBYDgBFjUMBtOrwKKGwWB6FV+JGnzRMjT+rkP6w9e/lFfVyggL8ddqjlRMh28lqQ2Xu98TRmIwGAyrdBK1qGsPlsK7Yw2fmoXJ4TCaAa9FrJqnv3/DUpNNPBz+8CAGg8Fwii+iduFmjqWL34VT9BLCHzcERv3pCi/LduX9MQwGg+lOOkStorq+P3horOwQfPGOk5nBqPOaqop3utc0DAaDYZ8OUYNmJ/FSLjPgEySnYtPXYlHDYDA/Ih2iBt80Z2enzFzqV0swGAymp+kQtaqahq++vcSIsqpamYS0vPndY9LXfKxtkPxex8KwR1NziwDtwBLmxwFaYMz+uLk3IS0p+r5D1ESE+Fn+LjrQ0trG57A7guF/CHQn4iKCVfT+/ATTs/Dx8jQJC/LV9bQdGGrgKxm9efaC0sB+zztEbfyYIckpn/8vkBVm/TLm7MEN5ky/kYXBYDDfmw5RMzfROH3wbMrW+sYmEVZ2WjJNK4B5KgwGg/n+dIgafPtp8+qpzpsOXTrObAeLyZon4YN23W8aBoPBsM+XybeLpow7UVvfKL7n1LU/Wkj/TUgG0uywn+7w/czDYDAY9ugkXqvm6u+fqKWSAPPQbj94YfK+vFpegJ+3UWf04FSbGTpH9NSH3uwpQzEYDIYV/gc/+WhbTNETrgAAAABJRU5ErkJggg==&quot; width=&quot;309&quot; height=&quot;46&quot;&gt;&lt;/div&gt;&lt;div&gt;Data production overview: Manual input&lt;br&gt;&lt;/div&gt;&lt;div&gt;Version 0.15&lt;/div&gt;&lt;div&gt;14 February 2020&lt;br&gt;&lt;/div&gt;" style="text;html=1;strokeColor=none;fillColor=none;spacing=5;spacingTop=-20;whiteSpace=wrap;overflow=hidden;rounded=0;" parent="oZCL1Nwg26oPMsbeNufO-1" vertex="1">
          <mxGeometry x="10" y="10" width="340" height="90" as="geometry"/>
        </mxCell>
        <mxCell id="nY0cY8gh_f5xYaZBzYKh-1" value="EURHISFIRM data production" style="swimlane;html=1;horizontal=0;startSize=20;" parent="oZCL1Nwg26oPMsbeNufO-1" vertex="1">
          <mxGeometry x="10" y="100" width="1330" height="830" as="geometry"/>
        </mxCell>
        <mxCell id="nY0cY8gh_f5xYaZBzYKh-2" value="Researcher" style="swimlane;html=1;horizontal=0;swimlaneLine=0;" parent="nY0cY8gh_f5xYaZBzYKh-1" vertex="1">
          <mxGeometry x="20" y="1" width="1310" height="480" as="geometry"/>
        </mxCell>
        <mxCell id="nY0cY8gh_f5xYaZBzYKh-3" value="" style="shape=mxgraph.bpmn.shape;html=1;verticalLabelPosition=bottom;labelBackgroundColor=#ffffff;verticalAlign=top;align=center;perimeter=ellipsePerimeter;outlineConnect=0;outline=standard;symbol=general;" parent="nY0cY8gh_f5xYaZBzYKh-2" vertex="1">
          <mxGeometry x="40" y="215" width="50" height="50" as="geometry"/>
        </mxCell>
        <mxCell id="nY0cY8gh_f5xYaZBzYKh-4" value="" style="edgeStyle=orthogonalEdgeStyle;rounded=0;orthogonalLoop=1;jettySize=auto;html=1;entryX=0;entryY=0.5;entryDx=0;entryDy=0;" parent="nY0cY8gh_f5xYaZBzYKh-2" source="nY0cY8gh_f5xYaZBzYKh-3" target="nY0cY8gh_f5xYaZBzYKh-13" edge="1">
          <mxGeometry relative="1" as="geometry">
            <mxPoint x="191" y="360" as="targetPoint"/>
          </mxGeometry>
        </mxCell>
        <mxCell id="nY0cY8gh_f5xYaZBzYKh-5" value="Yes" style="edgeStyle=orthogonalEdgeStyle;rounded=0;orthogonalLoop=1;jettySize=auto;html=1;" parent="nY0cY8gh_f5xYaZBzYKh-2" source="nY0cY8gh_f5xYaZBzYKh-6" target="nY0cY8gh_f5xYaZBzYKh-9" edge="1">
          <mxGeometry relative="1" as="geometry">
            <mxPoint x="1380" y="401" as="targetPoint"/>
          </mxGeometry>
        </mxCell>
        <mxCell id="nY0cY8gh_f5xYaZBzYKh-6" value="Project complete?" style="shape=mxgraph.bpmn.shape;html=1;verticalLabelPosition=bottom;labelBackgroundColor=#ffffff;verticalAlign=top;align=center;perimeter=rhombusPerimeter;background=gateway;outlineConnect=0;outline=none;symbol=exclusiveGw;" parent="nY0cY8gh_f5xYaZBzYKh-2" vertex="1">
          <mxGeometry x="1050" y="215" width="50" height="50" as="geometry"/>
        </mxCell>
        <mxCell id="nY0cY8gh_f5xYaZBzYKh-8" value="" style="edgeStyle=orthogonalEdgeStyle;rounded=0;orthogonalLoop=1;jettySize=auto;html=1;exitX=1;exitY=0.5;exitDx=0;exitDy=0;entryX=0;entryY=0.5;entryDx=0;entryDy=0;" parent="nY0cY8gh_f5xYaZBzYKh-2" source="nY0cY8gh_f5xYaZBzYKh-11" target="nY0cY8gh_f5xYaZBzYKh-20" edge="1">
          <mxGeometry relative="1" as="geometry">
            <mxPoint x="1045" y="400.52941176470586" as="sourcePoint"/>
            <mxPoint x="850" y="240" as="targetPoint"/>
          </mxGeometry>
        </mxCell>
        <mxCell id="nY0cY8gh_f5xYaZBzYKh-9" value="End data production" style="shape=mxgraph.bpmn.shape;html=1;verticalLabelPosition=bottom;labelBackgroundColor=#ffffff;verticalAlign=top;align=center;perimeter=ellipsePerimeter;outlineConnect=0;outline=throwing;symbol=general;" parent="nY0cY8gh_f5xYaZBzYKh-2" vertex="1">
          <mxGeometry x="1204.5" y="215" width="50" height="50" as="geometry"/>
        </mxCell>
        <mxCell id="nY0cY8gh_f5xYaZBzYKh-11" value="(managed front-end) Manual value insertions/updates" style="shape=ext;rounded=1;html=1;whiteSpace=wrap;" parent="nY0cY8gh_f5xYaZBzYKh-2" vertex="1">
          <mxGeometry x="645" y="200" width="120" height="80" as="geometry"/>
        </mxCell>
        <mxCell id="nY0cY8gh_f5xYaZBzYKh-13" value="Setup new project metadata" style="shape=ext;rounded=1;html=1;whiteSpace=wrap;" parent="nY0cY8gh_f5xYaZBzYKh-2" vertex="1">
          <mxGeometry x="131" y="200" width="120" height="80" as="geometry"/>
        </mxCell>
        <mxCell id="nY0cY8gh_f5xYaZBzYKh-16" value="No, continue" style="endArrow=block;endFill=1;endSize=6;html=1;entryX=0.5;entryY=0;entryDx=0;entryDy=0;exitX=0.5;exitY=0;exitDx=0;exitDy=0;" parent="nY0cY8gh_f5xYaZBzYKh-2" source="nY0cY8gh_f5xYaZBzYKh-6" target="nY0cY8gh_f5xYaZBzYKh-13" edge="1">
          <mxGeometry width="100" relative="1" as="geometry">
            <mxPoint x="998" y="167" as="sourcePoint"/>
            <mxPoint x="1068" y="137" as="targetPoint"/>
            <Array as="points">
              <mxPoint x="1075" y="149"/>
              <mxPoint x="191" y="149"/>
            </Array>
          </mxGeometry>
        </mxCell>
        <mxCell id="nY0cY8gh_f5xYaZBzYKh-17" value="Users and rights" style="shape=datastore;whiteSpace=wrap;html=1;" parent="nY0cY8gh_f5xYaZBzYKh-2" vertex="1">
          <mxGeometry x="610" y="350" width="60" height="60" as="geometry"/>
        </mxCell>
        <mxCell id="nY0cY8gh_f5xYaZBzYKh-18" value="" style="endArrow=none;dashed=1;html=1;exitX=0.5;exitY=0;exitDx=0;exitDy=0;entryX=0.308;entryY=1.013;entryDx=0;entryDy=0;entryPerimeter=0;" parent="nY0cY8gh_f5xYaZBzYKh-2" source="nY0cY8gh_f5xYaZBzYKh-17" target="nY0cY8gh_f5xYaZBzYKh-11" edge="1">
          <mxGeometry width="50" height="50" relative="1" as="geometry">
            <mxPoint x="99" y="419" as="sourcePoint"/>
            <mxPoint x="109" y="389" as="targetPoint"/>
          </mxGeometry>
        </mxCell>
        <mxCell id="nY0cY8gh_f5xYaZBzYKh-19" value="" style="edgeStyle=orthogonalEdgeStyle;rounded=0;orthogonalLoop=1;jettySize=auto;html=1;" parent="nY0cY8gh_f5xYaZBzYKh-2" source="nY0cY8gh_f5xYaZBzYKh-20" target="nY0cY8gh_f5xYaZBzYKh-6" edge="1">
          <mxGeometry relative="1" as="geometry"/>
        </mxCell>
        <mxCell id="nY0cY8gh_f5xYaZBzYKh-20" value="Dataset checkout: set metadata" style="shape=ext;rounded=1;html=1;whiteSpace=wrap;" parent="nY0cY8gh_f5xYaZBzYKh-2" vertex="1">
          <mxGeometry x="851" y="200" width="120" height="80" as="geometry"/>
        </mxCell>
        <mxCell id="sZb5eialrSu_cqVYMQm8-0" value="Saved dataset" style="shape=datastore;whiteSpace=wrap;html=1;" parent="nY0cY8gh_f5xYaZBzYKh-2" vertex="1">
          <mxGeometry x="675" y="410" width="60" height="60" as="geometry"/>
        </mxCell>
        <mxCell id="nY0cY8gh_f5xYaZBzYKh-29" value="Infrastructure DB" style="shape=datastore;whiteSpace=wrap;html=1;" parent="nY0cY8gh_f5xYaZBzYKh-2" vertex="1">
          <mxGeometry x="755" y="350" width="60" height="60" as="geometry"/>
        </mxCell>
        <mxCell id="nY0cY8gh_f5xYaZBzYKh-30" value="" style="endArrow=none;dashed=1;html=1;exitX=0.5;exitY=0;exitDx=0;exitDy=0;entryX=0.75;entryY=1;entryDx=0;entryDy=0;" parent="nY0cY8gh_f5xYaZBzYKh-2" source="nY0cY8gh_f5xYaZBzYKh-29" target="nY0cY8gh_f5xYaZBzYKh-11" edge="1">
          <mxGeometry width="50" height="50" relative="1" as="geometry">
            <mxPoint x="1199" y="946" as="sourcePoint"/>
            <mxPoint x="1249" y="896" as="targetPoint"/>
          </mxGeometry>
        </mxCell>
        <mxCell id="B2vwc7ILFZU2Im1IFJ8P-0" value="could be input" style="endArrow=none;dashed=1;html=1;entryX=0.5;entryY=1;entryDx=0;entryDy=0;exitX=0.5;exitY=0;exitDx=0;exitDy=0;" parent="nY0cY8gh_f5xYaZBzYKh-2" source="sZb5eialrSu_cqVYMQm8-0" target="nY0cY8gh_f5xYaZBzYKh-11" edge="1">
          <mxGeometry width="50" height="50" relative="1" as="geometry">
            <mxPoint x="120" y="1059" as="sourcePoint"/>
            <mxPoint x="170" y="1009" as="targetPoint"/>
          </mxGeometry>
        </mxCell>
        <mxCell id="nY0cY8gh_f5xYaZBzYKh-23" value="&lt;div&gt;EURHISFIRM &lt;br&gt;&lt;/div&gt;&lt;div&gt;central support&lt;/div&gt;" style="swimlane;html=1;horizontal=0;swimlaneLine=0;startSize=33;" parent="nY0cY8gh_f5xYaZBzYKh-1" vertex="1">
          <mxGeometry x="20" y="647" width="1310" height="183" as="geometry"/>
        </mxCell>
        <mxCell id="nY0cY8gh_f5xYaZBzYKh-24" value="Common Data Model definitions" style="shape=datastore;whiteSpace=wrap;html=1;" parent="nY0cY8gh_f5xYaZBzYKh-23" vertex="1">
          <mxGeometry x="60" y="100" width="60" height="60" as="geometry"/>
        </mxCell>
        <mxCell id="nY0cY8gh_f5xYaZBzYKh-25" value="Indexing and access in RI" style="shape=ext;rounded=1;html=1;whiteSpace=wrap;" parent="nY0cY8gh_f5xYaZBzYKh-23" vertex="1">
          <mxGeometry x="1010" y="80" width="120" height="80" as="geometry"/>
        </mxCell>
        <mxCell id="nY0cY8gh_f5xYaZBzYKh-32" value="Set metadata as stage 1 and manage project access" style="shape=ext;rounded=1;html=1;whiteSpace=wrap;" parent="nY0cY8gh_f5xYaZBzYKh-23" vertex="1">
          <mxGeometry x="500" y="55" width="120" height="96" as="geometry"/>
        </mxCell>
        <mxCell id="nY0cY8gh_f5xYaZBzYKh-34" value="Project approval required?" style="shape=mxgraph.bpmn.shape;html=1;verticalLabelPosition=bottom;labelBackgroundColor=#ffffff;verticalAlign=top;align=center;perimeter=rhombusPerimeter;background=gateway;outlineConnect=0;outline=none;symbol=exclusiveGw;" parent="nY0cY8gh_f5xYaZBzYKh-23" vertex="1">
          <mxGeometry x="350.5" y="79" width="50" height="50" as="geometry"/>
        </mxCell>
        <mxCell id="nY0cY8gh_f5xYaZBzYKh-35" value="Approved" style="edgeStyle=orthogonalEdgeStyle;rounded=0;orthogonalLoop=1;jettySize=auto;html=1;entryX=0;entryY=0.5;entryDx=0;entryDy=0;exitX=1;exitY=0.5;exitDx=0;exitDy=0;" parent="nY0cY8gh_f5xYaZBzYKh-23" source="nY0cY8gh_f5xYaZBzYKh-34" target="nY0cY8gh_f5xYaZBzYKh-32" edge="1">
          <mxGeometry relative="1" as="geometry">
            <mxPoint x="190" y="54" as="targetPoint"/>
          </mxGeometry>
        </mxCell>
        <mxCell id="nY0cY8gh_f5xYaZBzYKh-36" value="Infrastructure DB" style="shape=datastore;whiteSpace=wrap;html=1;" parent="nY0cY8gh_f5xYaZBzYKh-23" vertex="1">
          <mxGeometry x="240" y="18" width="60" height="60" as="geometry"/>
        </mxCell>
        <mxCell id="nY0cY8gh_f5xYaZBzYKh-37" value="" style="edgeStyle=orthogonalEdgeStyle;rounded=0;orthogonalLoop=1;jettySize=auto;html=1;entryX=0;entryY=0.5;entryDx=0;entryDy=0;" parent="nY0cY8gh_f5xYaZBzYKh-23" source="nY0cY8gh_f5xYaZBzYKh-38" target="nY0cY8gh_f5xYaZBzYKh-25" edge="1">
          <mxGeometry relative="1" as="geometry">
            <mxPoint x="1014" y="120" as="targetPoint"/>
          </mxGeometry>
        </mxCell>
        <mxCell id="nY0cY8gh_f5xYaZBzYKh-38" value="" style="shape=mxgraph.bpmn.shape;html=1;verticalLabelPosition=bottom;labelBackgroundColor=#ffffff;verticalAlign=top;align=center;perimeter=ellipsePerimeter;outlineConnect=0;outline=catching;symbol=message;" parent="nY0cY8gh_f5xYaZBzYKh-23" vertex="1">
          <mxGeometry x="886" y="95" width="50" height="50" as="geometry"/>
        </mxCell>
        <mxCell id="nY0cY8gh_f5xYaZBzYKh-39" value="" style="endArrow=none;dashed=1;html=1;entryX=0.325;entryY=1.025;entryDx=0;entryDy=0;exitX=0.5;exitY=0;exitDx=0;exitDy=0;entryPerimeter=0;" parent="nY0cY8gh_f5xYaZBzYKh-1" source="nY0cY8gh_f5xYaZBzYKh-24" target="nY0cY8gh_f5xYaZBzYKh-13" edge="1">
          <mxGeometry width="50" height="50" relative="1" as="geometry">
            <mxPoint x="190" y="444" as="sourcePoint"/>
            <mxPoint x="211" y="342" as="targetPoint"/>
          </mxGeometry>
        </mxCell>
        <mxCell id="nY0cY8gh_f5xYaZBzYKh-40" value="&lt;div&gt;Optional &lt;br&gt;&lt;/div&gt;&lt;div&gt;Use CDM &lt;br&gt;&lt;/div&gt;&lt;div&gt;definitions&lt;/div&gt;" style="text;html=1;resizable=0;points=[];align=center;verticalAlign=middle;labelBackgroundColor=#ffffff;" parent="nY0cY8gh_f5xYaZBzYKh-39" vertex="1" connectable="0">
          <mxGeometry x="-0.2436" y="-1" relative="1" as="geometry">
            <mxPoint x="2.94" y="-44.71" as="offset"/>
          </mxGeometry>
        </mxCell>
        <mxCell id="nY0cY8gh_f5xYaZBzYKh-43" value="" style="edgeStyle=orthogonalEdgeStyle;rounded=0;orthogonalLoop=1;jettySize=auto;html=1;entryX=0.5;entryY=0;entryDx=0;entryDy=0;exitX=1;exitY=0.5;exitDx=0;exitDy=0;" parent="nY0cY8gh_f5xYaZBzYKh-1" source="nY0cY8gh_f5xYaZBzYKh-13" target="nY0cY8gh_f5xYaZBzYKh-34" edge="1">
          <mxGeometry relative="1" as="geometry">
            <mxPoint x="461" y="241" as="sourcePoint"/>
          </mxGeometry>
        </mxCell>
        <mxCell id="nY0cY8gh_f5xYaZBzYKh-44" value="&lt;div&gt;Required changes&lt;/div&gt;&lt;div&gt;for approval&lt;br&gt;&lt;/div&gt;" style="startArrow=oval;startFill=0;startSize=7;endArrow=block;endFill=0;endSize=10;dashed=1;html=1;entryX=0.5;entryY=1;entryDx=0;entryDy=0;exitX=0;exitY=0.5;exitDx=0;exitDy=0;" parent="nY0cY8gh_f5xYaZBzYKh-1" source="nY0cY8gh_f5xYaZBzYKh-34" target="nY0cY8gh_f5xYaZBzYKh-13" edge="1">
          <mxGeometry x="-0.1654" relative="1" as="geometry">
            <mxPoint x="480" y="722" as="sourcePoint"/>
            <mxPoint x="420" y="260" as="targetPoint"/>
            <Array as="points">
              <mxPoint x="211" y="751"/>
            </Array>
            <mxPoint as="offset"/>
          </mxGeometry>
        </mxCell>
        <mxCell id="nY0cY8gh_f5xYaZBzYKh-45" value="" style="shape=message;html=1;outlineConnect=0;" parent="nY0cY8gh_f5xYaZBzYKh-44" vertex="1">
          <mxGeometry width="20" height="14" relative="1" as="geometry">
            <mxPoint x="-10" y="-7" as="offset"/>
          </mxGeometry>
        </mxCell>
        <mxCell id="nY0cY8gh_f5xYaZBzYKh-46" style="edgeStyle=orthogonalEdgeStyle;rounded=0;orthogonalLoop=1;jettySize=auto;html=1;entryX=0;entryY=0.5;entryDx=0;entryDy=0;exitX=0.5;exitY=0;exitDx=0;exitDy=0;" parent="nY0cY8gh_f5xYaZBzYKh-1" source="nY0cY8gh_f5xYaZBzYKh-32" target="nY0cY8gh_f5xYaZBzYKh-11" edge="1">
          <mxGeometry relative="1" as="geometry">
            <mxPoint x="623" y="266" as="targetPoint"/>
          </mxGeometry>
        </mxCell>
        <mxCell id="nY0cY8gh_f5xYaZBzYKh-47" value="" style="endArrow=none;dashed=1;html=1;entryX=0.75;entryY=1;entryDx=0;entryDy=0;exitX=0.5;exitY=0;exitDx=0;exitDy=0;" parent="nY0cY8gh_f5xYaZBzYKh-1" source="nY0cY8gh_f5xYaZBzYKh-36" target="nY0cY8gh_f5xYaZBzYKh-13" edge="1">
          <mxGeometry width="50" height="50" relative="1" as="geometry">
            <mxPoint x="360" y="599" as="sourcePoint"/>
            <mxPoint x="1076" y="500" as="targetPoint"/>
          </mxGeometry>
        </mxCell>
        <mxCell id="nY0cY8gh_f5xYaZBzYKh-48" value="&lt;div&gt;Identify&lt;/div&gt;&lt;div&gt;existing&lt;/div&gt;&lt;div&gt;objects for &lt;br&gt;&lt;/div&gt;&lt;div&gt;deduplication, &lt;br&gt;&lt;/div&gt;&lt;div&gt;consolidation, &lt;br&gt;&lt;/div&gt;&lt;div&gt;corporate actions&lt;br&gt;&lt;/div&gt;" style="text;html=1;resizable=0;points=[];align=center;verticalAlign=middle;labelBackgroundColor=#ffffff;" parent="nY0cY8gh_f5xYaZBzYKh-47" vertex="1" connectable="0">
          <mxGeometry x="0.2121" y="-3" relative="1" as="geometry">
            <mxPoint as="offset"/>
          </mxGeometry>
        </mxCell>
        <mxCell id="nY0cY8gh_f5xYaZBzYKh-49" value="Centre of research" style="swimlane;html=1;horizontal=0;swimlaneLine=0;startSize=23;" parent="nY0cY8gh_f5xYaZBzYKh-1" vertex="1">
          <mxGeometry x="20" y="481" width="1310" height="166" as="geometry"/>
        </mxCell>
        <mxCell id="nY0cY8gh_f5xYaZBzYKh-50" value="" style="edgeStyle=orthogonalEdgeStyle;rounded=0;orthogonalLoop=1;jettySize=auto;html=1;" parent="nY0cY8gh_f5xYaZBzYKh-1" source="nY0cY8gh_f5xYaZBzYKh-20" target="nY0cY8gh_f5xYaZBzYKh-38" edge="1">
          <mxGeometry relative="1" as="geometry">
            <mxPoint x="1197" y="360.9999999999998" as="targetPoint"/>
          </mxGeometry>
        </mxCell>
        <mxCell id="B2vwc7ILFZU2Im1IFJ8P-1" value="" style="endArrow=none;dashed=1;html=1;entryX=0.5;entryY=1;entryDx=0;entryDy=0;exitX=0.75;exitY=0;exitDx=0;exitDy=0;" parent="nY0cY8gh_f5xYaZBzYKh-1" source="nY0cY8gh_f5xYaZBzYKh-32" target="nY0cY8gh_f5xYaZBzYKh-17" edge="1">
          <mxGeometry width="50" height="50" relative="1" as="geometry">
            <mxPoint x="650" y="710" as="sourcePoint"/>
            <mxPoint x="190" y="1010" as="targetPoint"/>
          </mxGeometry>
        </mxCell>
      </root>
    </mxGraphModel>
  </diagram>
  <diagram id="dlz0McM4uv1PSRI00q2W" name="Stage 2-3">
    <mxGraphModel dx="1662" dy="889" grid="1" gridSize="10" guides="1" tooltips="1" connect="1" arrows="1" fold="1" page="1" pageScale="1" pageWidth="1169" pageHeight="827" math="0" shadow="0">
      <root>
        <mxCell id="ok7bCxqNC0vGg7jIrv6a-0"/>
        <mxCell id="ok7bCxqNC0vGg7jIrv6a-1" parent="ok7bCxqNC0vGg7jIrv6a-0"/>
        <mxCell id="yXz6dI1xHnC2NhjYVgwt-0" value="&lt;div&gt;&lt;img src=&quot;data:image/png;base64,iVBORw0KGgoAAAANSUhEUgAAATUAAAAuCAYAAABJeY7oAAAACXBIWXMAAA7GAAAO5gF/UekwAAAUIElEQVR4nO2dCTwW2//Hs+8iESGt5KZE15Ktq7gt2lNaLO3X0g1FCW0q3VK0oySh/hEqS0oLcrsJFUV1045EtuxZf+frNt3xNM+WR/q75/16zeuZOefMme+ZOfOZ71lmHt729vY+GAwG01vg7WkDMBgMhpNgUcNgML0KLGoYDKZXgUUNg8H0KrCoYTCYXgUWNQwG06vAoobBYHoVWNQwGEyvAosaBoPpVWBRw2AwvQosahgMpleBRQ2DwfQqsKhh/nNk5L02zHv+XpNefL++IqXGP49IFBcVrMrMe2tQVVvfz0hjeJIAP28jVfqikiqljMdvDA3GDrsmLSlaAmGPnhdrZuW9MSTSiAjz16gOkc0ZPXzgPc6XiDF/5byc9PfrUjV68bJS4oWmeiMv8XJztyTezjOX69+3YKyKwl0i/mLywyWV1fX9iW1xEYGqMcoKmSMGST+mzQvSpWTmTzHQ/PdcMCM+LdcCbPj5p0G32S0bFVjUMP85Fm48ldzW1s7DKI3umCEp5/5YZrzILTi5pbWNd76pxikf5znLqdLabAlLfF7wQVW2v3hheqiL4j/HCE6pa/gkRpWej5enOXLvciONkYrpXS8NcyzdTye1tbdzM0pjO99wj9syUze7XRHnYfv1ZS8uIs7JJyqc3n7aakq34Dxxc3O3wbbbwUsnrt55MpsHCeTjGE8xeg8CgvCETDvPo3HHYD3J32G0stKAXHbKRgUWNcx/Di4urvY+fdr7oLu2HQlREW18LRIjXbXBqf+m7dPnU1OLEL38QPTgl5eHu+VLYHs7V8e+7e19iGOUVdXJNLe08qOFb866E3eexW5B9zxvE8RlPX6rpyTX7wWVd4M8PgO42cFzLCmvlXtfVq0waoTsA/CsIL6gpHLIHyeT9vQVE6pcMlUrYNRwuQedC4wK296HYXk1RiowFVgxEYGPokICNbBejGyA34zcN0a61vsLM8JdB8J2U0sLP/y2trXxuvjGhBx2W7CQUZ7bAhIOEet1DU2izGxgBSxq3Uh5ebnstGnTiq9evSotISFR9r2OW1dXJ+7p6Xnu0aNHuoMHD34aFBSk972O/f8Jq+nax7zsp6/prvy5kJhYmmn7k4/hc/q699GIW5tgfbFbyM2ofSsNYN3cJaij6UX2kAjMXU+mEXErtoXF574o1pxmOOr8sU0WCxZsCE7NyH1tRKQ9m5i1Gn5fxm/jIbwngq6Ul5ubqy10h/UUsnfptC867OLNHMvSihq56tpGCRBd8j5xt3It3Jb/ulFeRuINVZ4ufheDiQcCJ2E5Q0dHxytKSkpP161b58RpI74VGxubrPnz5x+ZPn16SE/bwik4Uaa4uLhljY2NwklJSdKoYrdy0LyOepCenj6ZNvzw4cOm2tra1zl5rN6Iq42Je0DUn66t6GZuJTWBQQDbO5xHaiAefptb2/jgt66+SRyJyUBC0CTEhCrUVRTupmblT4XtgpKqIeD5dWdZDrjMswJRg/X4tEcWi6dqBdKm+W3nuZj4Q7bjaMMbPzULR19/sLQ77MKeGqKlpYWPl5e3uaft4BTv3r0bAg+grggao3MCort27VpXchjv52YUp4/VmyGE6lt5mP9Og1jPjtgkBb8gFpmoudrdgga0tP3rZfHy8HS6fooDJF4jYR2c+/ydZtr9578aag5PIscv2BicglScCzxAEHNY55RdHBG1yspKGV9f3wNZWVkToR9BV1f3qpOT0zpxcfEKiLe0tMzW09O7/OTJE62ysjI5SLNhwwb7sWPHphF5fPjwQd7b2/vEw4cP9fr161dibW29Z+fOnSfpNd3geC9fvlQ7cuTInlOnTnkqKys/2L179/yGhgZRf3//XampqbPq6+vFRo8efQcdy0FWVvaLCwz2gI15eXk6FRUVA1avXr0F5eExadKk8xkZGaa5ubk6SBT+3rFjx+LHjx9rHT9+fHtNTY3k1KlTw11cXNYQ/Sy0QNk+l0Ef2fxh6dKlu8nxERERa2NiYuxKSkoUxMTEqkxNTc/Z29u7Ezc0vTIx248MSn/8+vXrC6CSZGZmmpibmx9dtGiRHyvXiPacwPmgKieIJT8/P2UHMPIwC7ds2bKU8NpKS0sVZsyYUYBskgTb6R1LU1MzlZl9WlpaN/Lz89WheQ3lc3Z2dlJXV+9otrFy3X8EfEKv72z93OQaJNs14VEbJpdNrF9LfzrLVHfkJUEBvnpaAekO2trauLWX+Lwjtn/5eUQiOV5IkL9uorZyws2MZ2aomRp+7+xGGSKuqLRK6eGzIi1YXz3PwCcw6s8NnLSNI6Lm7u4eiSpsZWRk5EhUWB5Uqc9s3bo1zM/Pz4xIgyrb7ICAgAmSkpIfEhISbFB8+KVLl5SIeA8PjwhFRcVnly9flkMVVATyZHRMaAbn5OQY0DbVtm3bFtrc3MyPREEHbDpx4sR2VLkvhISE/EzuY0hOTp4XGBho2L9//2LYBlFDzbblSBTMoR8K/QYiAYvV0NBIDQ8PH1tVVSW9YsWKO3CzGRoaxlLZBGUYMGBAQXx8vDzcZG5ublHkeCkpqff79++fLi8v//LNmzcq69evj5ORkSlcuHDhQUZlYrYfmU2bNq0Gr6m1tZUXHd+WnWtEe066E9pj2dnZpTCzLyUlZU5wcLAO1CF4+KDzlRAdHT0cHnqsXncyofEZDmEJGfbkMB4k2Ke2W5pxQhja2tq5I5PuL7+d82pibV1j37KPdTKtpD6kfevnLKPdZ9S8nTWs5k/u9F/ldfYi/OqpD00O32VtQlVmKGv0jWwbcpiEmHC5i80kzznG6nRHOImy2HlHRIkICVR/gD60ukYJkh2FMv3EvqozAZ4L56rM2tFQXlUnfSzy1ib7BUYdD/lZzsc7pouICgtUw4jrDydqRUVFQ+/fvz8BBIp4Ejs6Oq5H3kEueC5EpZ0zZ85xqIywbmRkFOvl5RUCT2nwygoLC4ejm1l/3759MwUEBBpgWbly5fZ79+4Zs2MLeAVQ8WNjYwdBvhBma2vriW6UNeABDR8+/CGRdubMmUG0Ny+yMVBFRaVj5MjMzOx0YmKiFdwUUC5YkPdxDTw3KlFDZRiWnZ1tiPaRFRQUrIcFiaDX77//fo1IY2Ji8kWoQTiRF3UMeSaTqMSJzLfuR8DqNaI6J1RcuHDhtytXrliSw6KiopQJr4oVyMdi1T7k8QUTdQiuhYKCwnN0vedCK4DV604LbT8WdFw/eVUyhlPezqemFsEXBR9UyWFSEiKlyccdVYjRSzL0RgCR90opzNmRm6Rmrg3IfPu+cihs/5Xz0lh5lten3CiPvuC1kdNCWWnzh+0zCZm2zEQNvOeS8pqB7e3V8uRw5B3GntiyeBbVPjCy62RpvM0v7KaXL1pWzNbzu53zcmJZZe0AiN9ma7aW0TG/lS6LGmoSKfLw8LQgN/8tEYYq2wsijqiQffv2/dKEBNGCX2gmQCVEYiQvJCRUS74p5OTkvjQbkFBYoidxGLFNbsqQgb4kOPlkIQFAYODmIFdu5Ol8NbSNbP3iTiN76mAhHwe2EZRzj0BQoQzETQUgz/M5Oc3t27fNkNfnguzsqIDgkaI0+VT5cWI/AlavEdU5oWLKlClnVq1atY0cJioqWsWqPbTHYtU+WsGFbTjv7Fx3Mvpjh974fdEvO8hhfLzczeNUB/3FTllakWdJL066n9h7ZSWZvD8fvDCBbZT3nej9K+mORp/bs/wX2rCF//Q/Uc4zkxAVqrgV7DwM1sPiM+w3H4s/CsLsfjguwNdlrjU5LXhTMyaMPkebx3wTjRB69hBAc99ERyXuRWGZyquicmUIc7Aw2g0DH4z2c0TnNyAybWPDp2YRmOKRhJrJEA59buYmY08zO+630GVRg+YWNHWgckGTCMLgyUvEsZIHVHBorlVXV/cjhK24uPhL0xT6smCh3Y/WxSb6T6BZQzzRGcDR/waEskMZQKiFhYU7mhAwpYOIr6yslHZ1db3o4+Mze/z48Ylg+7lz55ySkpI6zeOhLROr+zGCjWvE0jkB8SbyoQWVvbapqUmQ2EbN9v5U6cjHYtU+8OjJGcA28prj2LzuXxim0P+p7uh/5qPRg5ubCwZb+FoZTF4lZtsjT+irNFP0VGNgGkXOsyKtWU6BGfeevB1PborRwsweRsCUjZC4u2vAM6yoqZeismXzqinrvjV/JGLeMKXD7dClE+eu3FsJU1PgLYrx6kOSGe0XuHnRXGvP0KswxYMIO7Rx/qJvtYMZbIka9HWQKywwcODAVxoaGrcOHDjg6+7uvgrSHDp0aB9qEiSy2jcDzQjo2D148OA+6NwFTyQoKGgrs/2kpKSK3759q0Jsw5MeNW0v7dq1KwgJwRq4IaCD/+7du6bGxsYx4A2wU152AM8COq1DQ0M3QtMHzgN4V0Q8CB48bZWVlbNBmD5+/CiFmlsrQSAYlYnV/RgBfXFdvUZkqOoBDFrAAIKqqmpWWlraDAMDg3gQqjNnzrjQy4dd+2CqysSJE6PgXERHR9uBhz9hwoQLIGTddd37S4iWQMd2wq3cBUfdFljQxkOHeW39J3FYH6EkQ3c2vLqyfKYHEpRdJ6747g257q2urJABnuK32gVYepy+Bh4gdNKHeFlNe/isSJto6g6Vl3rWlbwZ8cfaWav+ynk18W1xxVCbLaGJd8NcFSTFhenOwzRCTXkF5JkVllQNhm0Qxu58m4ItUTt//vwaWMhhZ8+eHY0qk4Ufwtzc/Bk0A3R0dJJg5IqdvCEPGLmDyarQhFu8eLEv9Knx8/N/orePlZXVXm9v76CYmBhbuJlgrhRqplojQdwCHc8VFRUyqNlbDiNr6GaIZseebwHKAKOf1tbW95DHWQk3IHSIQxyIv4ODgxuyKxluQujMhhsxMzNzErMysbIfK7Z19RoRUNWDzZs3L4PBDWSn+/bt20+j6/cIRoDB1itXrizhhH3z5s3z9/X1PZifnz8GHiIwiEB4Zt113VfP1d+/9fOs9w0HLp7c6zR7BTne1O5oHrG+Yvb4A4zyWjVHzy8lM9/sdvaLSeC53Aldr0h0sDOao0aOlxATqiTCwEsCUUvJyp86eNqWTl62+8rJrrR5cJIrR+3V1S12lzc1twrMRB5oWrDzUEbpI1CzWn+p72tY9/ewMO9O21gWNeRFTWEUv3PnTrruJIwekrdhOgB6ina6iPB0RU/qqcQ2DO3DDUw05agAzygiIqJTJyykhzlUtPOoGNlDFaamppaekpLSqVPVw8NjJb08AWlp6SJ0o00jh82dOzeAWLe0tPSBhRyPbkIP8jZVmVjZjwx4K7RhMILKzjWiB7N6AN6yv79/pwEe2gENqmMxsw9AHt0LmF5DFcfKdacl5maONQwK0IYj76z0N3N9H3ip22amzuGAqD83FJd9VICRzJib2VYWv447WVJRM/Bmxt9mxDukirKSrww1hl37+iidOeNtY6Kx8I8y1GSVmrrmWHZmuKsceODaakppr4rKR1Dt89NQ2RwxYcGPsL589ni/h/nvxpnoqMRCcxNeR9ofdsOLsGOAlPi7+EO2mlSDEJxEWJC/9vzeFUaznY+nF7yvHOLkEx12wHWeFb308FbBqe1WZjDiKSv19atanOSHmXz79OnTcVAxBw0a9AzmrMGco8mTJ/9fT9uF6X1wfe7PQ81GsUzSlzTIlFbWyEXvW6kP66nBjsMMlvq9hteBWlra+M5czrQlp4XXg1KDHDv198EIZ9176pHMm8fXjtRctKe0vKpOxtTuSN6NwLWqkUgg6Nl7+Yj9WGJ98njVi09iPL/kC/1csDAqL7yT2tTWyvAF/m8BRN/FepLHvtAbuy4m51ia6qrEKgyQfA1xVKO4xlojLlPlw8XVBybgcsy+H0bUoFMd5nVBXwiIG3QAQ7Orp+3C9D6clhh73UBeFqM0lmZa/sQ6TE2AF7ZPx911CIq57VJd19gXwvuKClU6W03cSjUdYuMyU7eTF+84zzPR+GqED/qf9q+bY3M08pa7vnrX+tVYwXFxR3mnzzIec5ZZWiszbf+3JZWDyWGzUfnel31UHDFI5qtPDa1ZOME760mB/suCDyPhZXcQ2KfI+51mMIpy4jYVdvMN995/WqD709B/JxN3hR9G1PT19RNg6Wk7MD8mrDaPWQHdiDthYXc/mxk6R2FhJa2Zodp5WOjFz500NgwWdm34Fljx5gh2OEy3pw1j1KwEQrZbdnpAnPdZQen90oPZtBB2+WFEDYPBYDgBFjUMBtOrwKKGwWB6FV+JGnzRMjT+rkP6w9e/lFfVyggL8ddqjlRMh28lqQ2Xu98TRmIwGAyrdBK1qGsPlsK7Yw2fmoXJ4TCaAa9FrJqnv3/DUpNNPBz+8CAGg8Fwii+iduFmjqWL34VT9BLCHzcERv3pCi/LduX9MQwGg+lOOkStorq+P3horOwQfPGOk5nBqPOaqop3utc0DAaDYZ8OUYNmJ/FSLjPgEySnYtPXYlHDYDA/Ih2iBt80Z2enzFzqV0swGAymp+kQtaqahq++vcSIsqpamYS0vPndY9LXfKxtkPxex8KwR1NziwDtwBLmxwFaYMz+uLk3IS0p+r5D1ESE+Fn+LjrQ0trG57A7guF/CHQn4iKCVfT+/ATTs/Dx8jQJC/LV9bQdGGrgKxm9efaC0sB+zztEbfyYIckpn/8vkBVm/TLm7MEN5ky/kYXBYDDfmw5RMzfROH3wbMrW+sYmEVZ2WjJNK4B5KgwGg/n+dIgafPtp8+qpzpsOXTrObAeLyZon4YN23W8aBoPBsM+XybeLpow7UVvfKL7n1LU/Wkj/TUgG0uywn+7w/czDYDAY9ugkXqvm6u+fqKWSAPPQbj94YfK+vFpegJ+3UWf04FSbGTpH9NSH3uwpQzEYDIYV/gc/+WhbTNETrgAAAABJRU5ErkJggg==&quot; width=&quot;309&quot; height=&quot;46&quot;&gt;&lt;/div&gt;&lt;div&gt;Data production overview: Processing to stage 2-3&lt;br&gt;&lt;/div&gt;&lt;div&gt;Version 0.15&lt;/div&gt;&lt;div&gt;14 February 2020&lt;br&gt;&lt;/div&gt;" style="text;html=1;strokeColor=none;fillColor=none;spacing=5;spacingTop=-20;whiteSpace=wrap;overflow=hidden;rounded=0;" parent="ok7bCxqNC0vGg7jIrv6a-1" vertex="1">
          <mxGeometry x="10" y="10" width="340" height="90" as="geometry"/>
        </mxCell>
        <mxCell id="yXz6dI1xHnC2NhjYVgwt-1" value="EURHISFIRM data production" style="swimlane;html=1;horizontal=0;startSize=20;" parent="ok7bCxqNC0vGg7jIrv6a-1" vertex="1">
          <mxGeometry x="10" y="100" width="1990" height="620" as="geometry"/>
        </mxCell>
        <mxCell id="yXz6dI1xHnC2NhjYVgwt-2" value="Researcher" style="swimlane;html=1;horizontal=0;swimlaneLine=0;" parent="yXz6dI1xHnC2NhjYVgwt-1" vertex="1">
          <mxGeometry x="20" y="1" width="1970" height="79" as="geometry">
            <mxRectangle x="20" y="1" width="30" height="90" as="alternateBounds"/>
          </mxGeometry>
        </mxCell>
        <mxCell id="yXz6dI1xHnC2NhjYVgwt-50" value="Centre of research" style="swimlane;html=1;horizontal=0;swimlaneLine=0;startSize=26;" parent="yXz6dI1xHnC2NhjYVgwt-1" vertex="1">
          <mxGeometry x="20" y="80" width="1970" height="540" as="geometry"/>
        </mxCell>
        <mxCell id="yXz6dI1xHnC2NhjYVgwt-14" value="Select datasets for comparison based on recent additions" style="shape=ext;rounded=1;html=1;whiteSpace=wrap;" parent="yXz6dI1xHnC2NhjYVgwt-50" vertex="1">
          <mxGeometry x="112" y="78" width="120" height="80" as="geometry"/>
        </mxCell>
        <mxCell id="yXz6dI1xHnC2NhjYVgwt-4" value="" style="edgeStyle=orthogonalEdgeStyle;rounded=0;orthogonalLoop=1;jettySize=auto;html=1;entryX=0;entryY=0.5;entryDx=0;entryDy=0;exitX=1;exitY=0.5;exitDx=0;exitDy=0;" parent="yXz6dI1xHnC2NhjYVgwt-50" source="UGSAzwxtp4bAL3AP71f3-0" target="yXz6dI1xHnC2NhjYVgwt-14" edge="1">
          <mxGeometry relative="1" as="geometry">
            <mxPoint x="191" y="-120" as="targetPoint"/>
            <mxPoint x="100" y="83" as="sourcePoint"/>
          </mxGeometry>
        </mxCell>
        <mxCell id="UGSAzwxtp4bAL3AP71f3-0" value="" style="shape=mxgraph.bpmn.shape;html=1;verticalLabelPosition=bottom;labelBackgroundColor=#ffffff;verticalAlign=top;align=center;perimeter=ellipsePerimeter;outlineConnect=0;outline=standard;symbol=timer;" parent="yXz6dI1xHnC2NhjYVgwt-50" vertex="1">
          <mxGeometry x="18" y="93" width="50" height="50" as="geometry"/>
        </mxCell>
        <mxCell id="yXz6dI1xHnC2NhjYVgwt-37" value="Infrastructure DB" style="shape=datastore;whiteSpace=wrap;html=1;" parent="yXz6dI1xHnC2NhjYVgwt-50" vertex="1">
          <mxGeometry x="142" y="230" width="60" height="60" as="geometry"/>
        </mxCell>
        <mxCell id="yXz6dI1xHnC2NhjYVgwt-48" value="" style="endArrow=none;dashed=1;html=1;entryX=0.5;entryY=1;entryDx=0;entryDy=0;exitX=0.5;exitY=0;exitDx=0;exitDy=0;" parent="yXz6dI1xHnC2NhjYVgwt-50" source="yXz6dI1xHnC2NhjYVgwt-37" target="yXz6dI1xHnC2NhjYVgwt-14" edge="1">
          <mxGeometry width="50" height="50" relative="1" as="geometry">
            <mxPoint x="340" y="118" as="sourcePoint"/>
            <mxPoint x="1056" y="19" as="targetPoint"/>
          </mxGeometry>
        </mxCell>
        <mxCell id="yXz6dI1xHnC2NhjYVgwt-49" value="&lt;div&gt;Identify&lt;/div&gt;&lt;div&gt;existing&lt;/div&gt;&lt;div&gt;objects&lt;br&gt;&lt;/div&gt;" style="text;html=1;resizable=0;points=[];align=center;verticalAlign=middle;labelBackgroundColor=#ffffff;" parent="yXz6dI1xHnC2NhjYVgwt-48" vertex="1" connectable="0">
          <mxGeometry x="0.2121" y="-3" relative="1" as="geometry">
            <mxPoint as="offset"/>
          </mxGeometry>
        </mxCell>
        <mxCell id="UGSAzwxtp4bAL3AP71f3-5" value="" style="edgeStyle=orthogonalEdgeStyle;rounded=0;orthogonalLoop=1;jettySize=auto;html=1;" parent="yXz6dI1xHnC2NhjYVgwt-50" source="yXz6dI1xHnC2NhjYVgwt-10" target="UGSAzwxtp4bAL3AP71f3-4" edge="1">
          <mxGeometry relative="1" as="geometry"/>
        </mxCell>
        <mxCell id="yXz6dI1xHnC2NhjYVgwt-10" value="Update project backlog based on user value, amount of work and time available" style="shape=ext;rounded=1;html=1;whiteSpace=wrap;" parent="yXz6dI1xHnC2NhjYVgwt-50" vertex="1">
          <mxGeometry x="283.5" y="78" width="120" height="80" as="geometry"/>
        </mxCell>
        <mxCell id="yXz6dI1xHnC2NhjYVgwt-13" value="" style="edgeStyle=orthogonalEdgeStyle;rounded=0;orthogonalLoop=1;jettySize=auto;html=1;" parent="yXz6dI1xHnC2NhjYVgwt-50" source="yXz6dI1xHnC2NhjYVgwt-14" target="yXz6dI1xHnC2NhjYVgwt-10" edge="1">
          <mxGeometry relative="1" as="geometry"/>
        </mxCell>
        <mxCell id="UGSAzwxtp4bAL3AP71f3-1" value="Backlog" style="shape=datastore;whiteSpace=wrap;html=1;" parent="yXz6dI1xHnC2NhjYVgwt-50" vertex="1">
          <mxGeometry x="314.5" y="230" width="60" height="60" as="geometry"/>
        </mxCell>
        <mxCell id="UGSAzwxtp4bAL3AP71f3-3" value="" style="endArrow=none;dashed=1;html=1;exitX=0.5;exitY=0;exitDx=0;exitDy=0;entryX=0.5;entryY=1;entryDx=0;entryDy=0;" parent="yXz6dI1xHnC2NhjYVgwt-50" source="UGSAzwxtp4bAL3AP71f3-1" target="yXz6dI1xHnC2NhjYVgwt-10" edge="1">
          <mxGeometry width="50" height="50" relative="1" as="geometry">
            <mxPoint x="550" y="209" as="sourcePoint"/>
            <mxPoint x="600" y="159" as="targetPoint"/>
          </mxGeometry>
        </mxCell>
        <mxCell id="UGSAzwxtp4bAL3AP71f3-6" value="" style="edgeStyle=orthogonalEdgeStyle;rounded=0;orthogonalLoop=1;jettySize=auto;html=1;" parent="yXz6dI1xHnC2NhjYVgwt-50" source="UGSAzwxtp4bAL3AP71f3-4" target="yXz6dI1xHnC2NhjYVgwt-35" edge="1">
          <mxGeometry relative="1" as="geometry"/>
        </mxCell>
        <mxCell id="UGSAzwxtp4bAL3AP71f3-4" value="(per project) Perform trial run of deduplication, consolidation, corporate actons, assess project time needed" style="shape=ext;rounded=1;html=1;whiteSpace=wrap;" parent="yXz6dI1xHnC2NhjYVgwt-50" vertex="1">
          <mxGeometry x="457" y="68" width="120" height="100" as="geometry"/>
        </mxCell>
        <mxCell id="yXz6dI1xHnC2NhjYVgwt-35" value="Accepted project size?" style="shape=mxgraph.bpmn.shape;html=1;verticalLabelPosition=bottom;labelBackgroundColor=#ffffff;verticalAlign=top;align=center;perimeter=rhombusPerimeter;background=gateway;outlineConnect=0;outline=none;symbol=exclusiveGw;" parent="yXz6dI1xHnC2NhjYVgwt-50" vertex="1">
          <mxGeometry x="650" y="93" width="50" height="50" as="geometry"/>
        </mxCell>
        <mxCell id="yXz6dI1xHnC2NhjYVgwt-33" value="(per project) Process deduplication, consolidation, corporate actions in project scope" style="shape=ext;rounded=1;html=1;whiteSpace=wrap;" parent="yXz6dI1xHnC2NhjYVgwt-50" vertex="1">
          <mxGeometry x="790" y="78" width="120" height="80" as="geometry"/>
        </mxCell>
        <mxCell id="yXz6dI1xHnC2NhjYVgwt-36" value="Approved" style="edgeStyle=orthogonalEdgeStyle;rounded=0;orthogonalLoop=1;jettySize=auto;html=1;entryX=0;entryY=0.5;entryDx=0;entryDy=0;exitX=1;exitY=0.5;exitDx=0;exitDy=0;" parent="yXz6dI1xHnC2NhjYVgwt-50" source="yXz6dI1xHnC2NhjYVgwt-35" target="yXz6dI1xHnC2NhjYVgwt-33" edge="1">
          <mxGeometry relative="1" as="geometry">
            <mxPoint x="190" y="353" as="targetPoint"/>
          </mxGeometry>
        </mxCell>
        <mxCell id="I5SgTSG7OVug432lIHY1-3" value="" style="edgeStyle=orthogonalEdgeStyle;rounded=0;orthogonalLoop=1;jettySize=auto;html=1;entryX=0;entryY=0.5;entryDx=0;entryDy=0;exitX=1;exitY=0.5;exitDx=0;exitDy=0;" parent="yXz6dI1xHnC2NhjYVgwt-50" source="kCaRd1SeGi5AgXPivWvZ-2" target="I5SgTSG7OVug432lIHY1-0" edge="1">
          <mxGeometry relative="1" as="geometry">
            <mxPoint x="1222" y="83" as="targetPoint"/>
          </mxGeometry>
        </mxCell>
        <mxCell id="yXz6dI1xHnC2NhjYVgwt-32" value="" style="edgeStyle=orthogonalEdgeStyle;rounded=0;orthogonalLoop=1;jettySize=auto;html=1;entryX=0;entryY=0.5;entryDx=0;entryDy=0;" parent="yXz6dI1xHnC2NhjYVgwt-50" source="yXz6dI1xHnC2NhjYVgwt-33" target="kCaRd1SeGi5AgXPivWvZ-0" edge="1">
          <mxGeometry relative="1" as="geometry"/>
        </mxCell>
        <mxCell id="UGSAzwxtp4bAL3AP71f3-7" value="No, re-assess in backlog" style="endArrow=classic;html=1;exitX=0.5;exitY=1;exitDx=0;exitDy=0;entryX=0.75;entryY=1;entryDx=0;entryDy=0;" parent="yXz6dI1xHnC2NhjYVgwt-50" source="yXz6dI1xHnC2NhjYVgwt-35" target="yXz6dI1xHnC2NhjYVgwt-10" edge="1">
          <mxGeometry width="50" height="50" relative="1" as="geometry">
            <mxPoint x="-20" y="579" as="sourcePoint"/>
            <mxPoint x="30" y="529" as="targetPoint"/>
            <Array as="points">
              <mxPoint x="675" y="200"/>
              <mxPoint x="388" y="200"/>
            </Array>
          </mxGeometry>
        </mxCell>
        <mxCell id="I5SgTSG7OVug432lIHY1-7" value="" style="edgeStyle=orthogonalEdgeStyle;rounded=0;orthogonalLoop=1;jettySize=auto;html=1;entryX=0;entryY=0.5;entryDx=0;entryDy=0;" parent="yXz6dI1xHnC2NhjYVgwt-50" source="I5SgTSG7OVug432lIHY1-0" target="Ylwj3yES5oLqHlgMe4L2-0" edge="1">
          <mxGeometry relative="1" as="geometry"/>
        </mxCell>
        <mxCell id="I5SgTSG7OVug432lIHY1-0" value="(per project) Transform numeric values" style="shape=ext;rounded=1;html=1;whiteSpace=wrap;" parent="yXz6dI1xHnC2NhjYVgwt-50" vertex="1">
          <mxGeometry x="1350" y="78" width="120" height="80" as="geometry"/>
        </mxCell>
        <mxCell id="yXz6dI1xHnC2NhjYVgwt-6" value="More time available?" style="shape=mxgraph.bpmn.shape;html=1;verticalLabelPosition=bottom;labelBackgroundColor=#ffffff;verticalAlign=top;align=center;perimeter=rhombusPerimeter;background=gateway;outlineConnect=0;outline=none;symbol=exclusiveGw;" parent="yXz6dI1xHnC2NhjYVgwt-50" vertex="1">
          <mxGeometry x="1733.5" y="93" width="50" height="50" as="geometry"/>
        </mxCell>
        <mxCell id="yXz6dI1xHnC2NhjYVgwt-17" value="Yes" style="endArrow=block;endFill=1;endSize=6;html=1;exitX=0.5;exitY=0;exitDx=0;exitDy=0;entryX=0.5;entryY=0;entryDx=0;entryDy=0;" parent="yXz6dI1xHnC2NhjYVgwt-50" source="yXz6dI1xHnC2NhjYVgwt-6" target="yXz6dI1xHnC2NhjYVgwt-10" edge="1">
          <mxGeometry width="100" relative="1" as="geometry">
            <mxPoint x="998" y="-313" as="sourcePoint"/>
            <mxPoint x="230" y="-71" as="targetPoint"/>
            <Array as="points">
              <mxPoint x="1759" y="19"/>
              <mxPoint x="344" y="19"/>
            </Array>
          </mxGeometry>
        </mxCell>
        <mxCell id="yXz6dI1xHnC2NhjYVgwt-9" value="End data production" style="shape=mxgraph.bpmn.shape;html=1;verticalLabelPosition=bottom;labelBackgroundColor=#ffffff;verticalAlign=top;align=center;perimeter=ellipsePerimeter;outlineConnect=0;outline=throwing;symbol=general;" parent="yXz6dI1xHnC2NhjYVgwt-50" vertex="1">
          <mxGeometry x="1868.5" y="92" width="50" height="50" as="geometry"/>
        </mxCell>
        <mxCell id="yXz6dI1xHnC2NhjYVgwt-5" value="No" style="edgeStyle=orthogonalEdgeStyle;rounded=0;orthogonalLoop=1;jettySize=auto;html=1;" parent="yXz6dI1xHnC2NhjYVgwt-50" source="yXz6dI1xHnC2NhjYVgwt-6" target="yXz6dI1xHnC2NhjYVgwt-9" edge="1">
          <mxGeometry relative="1" as="geometry">
            <mxPoint x="1380" y="-79" as="targetPoint"/>
          </mxGeometry>
        </mxCell>
        <mxCell id="Ylwj3yES5oLqHlgMe4L2-4" value="" style="edgeStyle=orthogonalEdgeStyle;rounded=0;orthogonalLoop=1;jettySize=auto;html=1;" parent="yXz6dI1xHnC2NhjYVgwt-50" source="Ylwj3yES5oLqHlgMe4L2-0" target="yXz6dI1xHnC2NhjYVgwt-6" edge="1">
          <mxGeometry relative="1" as="geometry"/>
        </mxCell>
        <mxCell id="Ylwj3yES5oLqHlgMe4L2-0" value="(per project) Dataset checkout: set metadata and stage 2-3 depending on CDM used" style="shape=ext;rounded=1;html=1;whiteSpace=wrap;" parent="yXz6dI1xHnC2NhjYVgwt-50" vertex="1">
          <mxGeometry x="1540" y="78" width="120" height="80" as="geometry"/>
        </mxCell>
        <mxCell id="yXz6dI1xHnC2NhjYVgwt-24" value="&lt;div&gt;EURHISFIRM &lt;br&gt;&lt;/div&gt;&lt;div&gt;central support&lt;/div&gt;" style="swimlane;html=1;horizontal=0;swimlaneLine=0;startSize=33;" parent="yXz6dI1xHnC2NhjYVgwt-50" vertex="1">
          <mxGeometry y="390" width="1970" height="150" as="geometry"/>
        </mxCell>
        <mxCell id="Ylwj3yES5oLqHlgMe4L2-1" value="Indexing and access&amp;nbsp; at EU level" style="shape=ext;rounded=1;html=1;whiteSpace=wrap;" parent="yXz6dI1xHnC2NhjYVgwt-24" vertex="1">
          <mxGeometry x="1340" y="40" width="120" height="80" as="geometry"/>
        </mxCell>
        <mxCell id="I3xodG3BBfl0Zw3GPsr9-0" value="" style="edgeStyle=orthogonalEdgeStyle;rounded=0;orthogonalLoop=1;jettySize=auto;html=1;entryX=1;entryY=0.5;entryDx=0;entryDy=0;" parent="yXz6dI1xHnC2NhjYVgwt-24" source="I3xodG3BBfl0Zw3GPsr9-1" target="Ylwj3yES5oLqHlgMe4L2-1" edge="1">
          <mxGeometry relative="1" as="geometry">
            <mxPoint x="1295" y="105" as="targetPoint"/>
          </mxGeometry>
        </mxCell>
        <mxCell id="I3xodG3BBfl0Zw3GPsr9-1" value="" style="shape=mxgraph.bpmn.shape;html=1;verticalLabelPosition=bottom;labelBackgroundColor=#ffffff;verticalAlign=top;align=center;perimeter=ellipsePerimeter;outlineConnect=0;outline=catching;symbol=message;" parent="yXz6dI1xHnC2NhjYVgwt-24" vertex="1">
          <mxGeometry x="1575" y="55" width="50" height="50" as="geometry"/>
        </mxCell>
        <mxCell id="sRQ6KuU4Pl983xklpoGC-0" value="Common Data Model definitions" style="shape=datastore;whiteSpace=wrap;html=1;" vertex="1" parent="yXz6dI1xHnC2NhjYVgwt-24">
          <mxGeometry x="820" y="50" width="60" height="60" as="geometry"/>
        </mxCell>
        <mxCell id="sRQ6KuU4Pl983xklpoGC-1" value="CDM development as a result of projects" style="html=1;whiteSpace=wrap;rounded=1;" vertex="1" parent="yXz6dI1xHnC2NhjYVgwt-24">
          <mxGeometry x="1150" y="40" width="120" height="80" as="geometry"/>
        </mxCell>
        <mxCell id="sRQ6KuU4Pl983xklpoGC-2" value="" style="shape=mxgraph.bpmn.timer_start;perimeter=ellipsePerimeter;html=1;verticalLabelPosition=bottom;labelBackgroundColor=#ffffff;verticalAlign=top;outlineConnect=0;" vertex="1" parent="sRQ6KuU4Pl983xklpoGC-1">
          <mxGeometry x="1" y="1" width="30" height="30" relative="1" as="geometry">
            <mxPoint x="-40" y="-15" as="offset"/>
          </mxGeometry>
        </mxCell>
        <mxCell id="sRQ6KuU4Pl983xklpoGC-3" value="" style="endArrow=none;dashed=1;html=1;entryX=1;entryY=0.5;entryDx=0;entryDy=0;exitX=0;exitY=0.5;exitDx=0;exitDy=0;" edge="1" parent="yXz6dI1xHnC2NhjYVgwt-24" source="sRQ6KuU4Pl983xklpoGC-1" target="sRQ6KuU4Pl983xklpoGC-0">
          <mxGeometry width="50" height="50" relative="1" as="geometry">
            <mxPoint x="484" y="-483" as="sourcePoint"/>
            <mxPoint x="534" y="-533" as="targetPoint"/>
          </mxGeometry>
        </mxCell>
        <mxCell id="sRQ6KuU4Pl983xklpoGC-6" value="" style="endArrow=classic;html=1;entryX=1;entryY=0.5;entryDx=0;entryDy=0;exitX=0;exitY=0.5;exitDx=0;exitDy=0;" edge="1" parent="yXz6dI1xHnC2NhjYVgwt-24" source="Ylwj3yES5oLqHlgMe4L2-1" target="sRQ6KuU4Pl983xklpoGC-1">
          <mxGeometry width="50" height="50" relative="1" as="geometry">
            <mxPoint x="1340" y="120" as="sourcePoint"/>
            <mxPoint x="1390" y="70" as="targetPoint"/>
          </mxGeometry>
        </mxCell>
        <mxCell id="Ylwj3yES5oLqHlgMe4L2-2" value="" style="endArrow=classic;html=1;exitX=0.5;exitY=1;exitDx=0;exitDy=0;entryX=0.5;entryY=0;entryDx=0;entryDy=0;" parent="yXz6dI1xHnC2NhjYVgwt-50" source="Ylwj3yES5oLqHlgMe4L2-0" target="I3xodG3BBfl0Zw3GPsr9-1" edge="1">
          <mxGeometry width="50" height="50" relative="1" as="geometry">
            <mxPoint x="1000" y="910" as="sourcePoint"/>
            <mxPoint x="2167" y="639" as="targetPoint"/>
          </mxGeometry>
        </mxCell>
        <mxCell id="kCaRd1SeGi5AgXPivWvZ-0" value="(per project) Perform mapping of identification data to outside RI or controlled vocabularies" style="shape=ext;rounded=1;html=1;whiteSpace=wrap;" parent="yXz6dI1xHnC2NhjYVgwt-50" vertex="1">
          <mxGeometry x="980" y="72" width="120" height="92" as="geometry"/>
        </mxCell>
        <mxCell id="kCaRd1SeGi5AgXPivWvZ-1" value="" style="endArrow=block;endFill=1;endSize=6;html=1;exitX=1;exitY=0.5;exitDx=0;exitDy=0;entryX=0;entryY=0.5;entryDx=0;entryDy=0;" parent="yXz6dI1xHnC2NhjYVgwt-50" source="kCaRd1SeGi5AgXPivWvZ-0" target="kCaRd1SeGi5AgXPivWvZ-2" edge="1">
          <mxGeometry width="100" relative="1" as="geometry">
            <mxPoint x="1070" y="110" as="sourcePoint"/>
            <mxPoint x="1170" y="110" as="targetPoint"/>
          </mxGeometry>
        </mxCell>
        <mxCell id="kCaRd1SeGi5AgXPivWvZ-2" value="(per project) discuss scope and formulae for transformation of numeric values" style="shape=ext;rounded=1;html=1;whiteSpace=wrap;" parent="yXz6dI1xHnC2NhjYVgwt-50" vertex="1">
          <mxGeometry x="1170" y="78" width="120" height="80" as="geometry"/>
        </mxCell>
        <mxCell id="sRQ6KuU4Pl983xklpoGC-4" value="" style="endArrow=none;dashed=1;html=1;entryX=0.5;entryY=1;entryDx=0;entryDy=0;exitX=0.5;exitY=0;exitDx=0;exitDy=0;" edge="1" parent="yXz6dI1xHnC2NhjYVgwt-50" source="sRQ6KuU4Pl983xklpoGC-0" target="yXz6dI1xHnC2NhjYVgwt-33">
          <mxGeometry width="50" height="50" relative="1" as="geometry">
            <mxPoint x="695" y="-49" as="sourcePoint"/>
            <mxPoint x="705" y="-110" as="targetPoint"/>
          </mxGeometry>
        </mxCell>
        <mxCell id="sRQ6KuU4Pl983xklpoGC-5" value="&lt;div&gt;Optional&lt;/div&gt;&lt;div&gt;Use CDM &lt;br&gt;&lt;/div&gt;&lt;div&gt;definitions&lt;br&gt;&lt;/div&gt;" style="text;html=1;resizable=0;points=[];align=center;verticalAlign=middle;labelBackgroundColor=#ffffff;" vertex="1" connectable="0" parent="sRQ6KuU4Pl983xklpoGC-4">
          <mxGeometry x="-0.2436" y="-1" relative="1" as="geometry">
            <mxPoint as="offset"/>
          </mxGeometry>
        </mxCell>
      </root>
    </mxGraphModel>
  </diagram>
  <diagram id="ikP__8436mjcWWiL8vBi" name="Partner systems">
    <mxGraphModel dx="4749" dy="2540" grid="1" gridSize="10" guides="1" tooltips="1" connect="1" arrows="1" fold="1" page="1" pageScale="1" pageWidth="1169" pageHeight="827" math="0" shadow="0">
      <root>
        <mxCell id="fQXPI3kDC-Th25V9sKJi-0"/>
        <mxCell id="fQXPI3kDC-Th25V9sKJi-1" parent="fQXPI3kDC-Th25V9sKJi-0"/>
        <mxCell id="HCu-c6_ubKvSadkO5TaH-0" value="&lt;div&gt;&lt;img src=&quot;data:image/png;base64,iVBORw0KGgoAAAANSUhEUgAAATUAAAAuCAYAAABJeY7oAAAACXBIWXMAAA7GAAAO5gF/UekwAAAUIElEQVR4nO2dCTwW2//Hs+8iESGt5KZE15Ktq7gt2lNaLO3X0g1FCW0q3VK0oySh/hEqS0oLcrsJFUV1045EtuxZf+frNt3xNM+WR/q75/16zeuZOefMme+ZOfOZ71lmHt729vY+GAwG01vg7WkDMBgMhpNgUcNgML0KLGoYDKZXgUUNg8H0KrCoYTCYXgUWNQwG06vAoobBYHoVWNQwGEyvAosaBoPpVWBRw2AwvQosahgMpleBRQ2DwfQqsKhh/nNk5L02zHv+XpNefL++IqXGP49IFBcVrMrMe2tQVVvfz0hjeJIAP28jVfqikiqljMdvDA3GDrsmLSlaAmGPnhdrZuW9MSTSiAjz16gOkc0ZPXzgPc6XiDF/5byc9PfrUjV68bJS4oWmeiMv8XJztyTezjOX69+3YKyKwl0i/mLywyWV1fX9iW1xEYGqMcoKmSMGST+mzQvSpWTmTzHQ/PdcMCM+LdcCbPj5p0G32S0bFVjUMP85Fm48ldzW1s7DKI3umCEp5/5YZrzILTi5pbWNd76pxikf5znLqdLabAlLfF7wQVW2v3hheqiL4j/HCE6pa/gkRpWej5enOXLvciONkYrpXS8NcyzdTye1tbdzM0pjO99wj9syUze7XRHnYfv1ZS8uIs7JJyqc3n7aakq34Dxxc3O3wbbbwUsnrt55MpsHCeTjGE8xeg8CgvCETDvPo3HHYD3J32G0stKAXHbKRgUWNcx/Di4urvY+fdr7oLu2HQlREW18LRIjXbXBqf+m7dPnU1OLEL38QPTgl5eHu+VLYHs7V8e+7e19iGOUVdXJNLe08qOFb866E3eexW5B9zxvE8RlPX6rpyTX7wWVd4M8PgO42cFzLCmvlXtfVq0waoTsA/CsIL6gpHLIHyeT9vQVE6pcMlUrYNRwuQedC4wK296HYXk1RiowFVgxEYGPokICNbBejGyA34zcN0a61vsLM8JdB8J2U0sLP/y2trXxuvjGhBx2W7CQUZ7bAhIOEet1DU2izGxgBSxq3Uh5ebnstGnTiq9evSotISFR9r2OW1dXJ+7p6Xnu0aNHuoMHD34aFBSk972O/f8Jq+nax7zsp6/prvy5kJhYmmn7k4/hc/q699GIW5tgfbFbyM2ofSsNYN3cJaij6UX2kAjMXU+mEXErtoXF574o1pxmOOr8sU0WCxZsCE7NyH1tRKQ9m5i1Gn5fxm/jIbwngq6Ul5ubqy10h/UUsnfptC867OLNHMvSihq56tpGCRBd8j5xt3It3Jb/ulFeRuINVZ4ufheDiQcCJ2E5Q0dHxytKSkpP161b58RpI74VGxubrPnz5x+ZPn16SE/bwik4Uaa4uLhljY2NwklJSdKoYrdy0LyOepCenj6ZNvzw4cOm2tra1zl5rN6Iq42Je0DUn66t6GZuJTWBQQDbO5xHaiAefptb2/jgt66+SRyJyUBC0CTEhCrUVRTupmblT4XtgpKqIeD5dWdZDrjMswJRg/X4tEcWi6dqBdKm+W3nuZj4Q7bjaMMbPzULR19/sLQ77MKeGqKlpYWPl5e3uaft4BTv3r0bAg+grggao3MCort27VpXchjv52YUp4/VmyGE6lt5mP9Og1jPjtgkBb8gFpmoudrdgga0tP3rZfHy8HS6fooDJF4jYR2c+/ydZtr9578aag5PIscv2BicglScCzxAEHNY55RdHBG1yspKGV9f3wNZWVkToR9BV1f3qpOT0zpxcfEKiLe0tMzW09O7/OTJE62ysjI5SLNhwwb7sWPHphF5fPjwQd7b2/vEw4cP9fr161dibW29Z+fOnSfpNd3geC9fvlQ7cuTInlOnTnkqKys/2L179/yGhgZRf3//XampqbPq6+vFRo8efQcdy0FWVvaLCwz2gI15eXk6FRUVA1avXr0F5eExadKk8xkZGaa5ubk6SBT+3rFjx+LHjx9rHT9+fHtNTY3k1KlTw11cXNYQ/Sy0QNk+l0Ef2fxh6dKlu8nxERERa2NiYuxKSkoUxMTEqkxNTc/Z29u7Ezc0vTIx248MSn/8+vXrC6CSZGZmmpibmx9dtGiRHyvXiPacwPmgKieIJT8/P2UHMPIwC7ds2bKU8NpKS0sVZsyYUYBskgTb6R1LU1MzlZl9WlpaN/Lz89WheQ3lc3Z2dlJXV+9otrFy3X8EfEKv72z93OQaJNs14VEbJpdNrF9LfzrLVHfkJUEBvnpaAekO2trauLWX+Lwjtn/5eUQiOV5IkL9uorZyws2MZ2aomRp+7+xGGSKuqLRK6eGzIi1YXz3PwCcw6s8NnLSNI6Lm7u4eiSpsZWRk5EhUWB5Uqc9s3bo1zM/Pz4xIgyrb7ICAgAmSkpIfEhISbFB8+KVLl5SIeA8PjwhFRcVnly9flkMVVATyZHRMaAbn5OQY0DbVtm3bFtrc3MyPREEHbDpx4sR2VLkvhISE/EzuY0hOTp4XGBho2L9//2LYBlFDzbblSBTMoR8K/QYiAYvV0NBIDQ8PH1tVVSW9YsWKO3CzGRoaxlLZBGUYMGBAQXx8vDzcZG5ublHkeCkpqff79++fLi8v//LNmzcq69evj5ORkSlcuHDhQUZlYrYfmU2bNq0Gr6m1tZUXHd+WnWtEe066E9pj2dnZpTCzLyUlZU5wcLAO1CF4+KDzlRAdHT0cHnqsXncyofEZDmEJGfbkMB4k2Ke2W5pxQhja2tq5I5PuL7+d82pibV1j37KPdTKtpD6kfevnLKPdZ9S8nTWs5k/u9F/ldfYi/OqpD00O32VtQlVmKGv0jWwbcpiEmHC5i80kzznG6nRHOImy2HlHRIkICVR/gD60ukYJkh2FMv3EvqozAZ4L56rM2tFQXlUnfSzy1ib7BUYdD/lZzsc7pouICgtUw4jrDydqRUVFQ+/fvz8BBIp4Ejs6Oq5H3kEueC5EpZ0zZ85xqIywbmRkFOvl5RUCT2nwygoLC4ejm1l/3759MwUEBBpgWbly5fZ79+4Zs2MLeAVQ8WNjYwdBvhBma2vriW6UNeABDR8+/CGRdubMmUG0Ny+yMVBFRaVj5MjMzOx0YmKiFdwUUC5YkPdxDTw3KlFDZRiWnZ1tiPaRFRQUrIcFiaDX77//fo1IY2Ji8kWoQTiRF3UMeSaTqMSJzLfuR8DqNaI6J1RcuHDhtytXrliSw6KiopQJr4oVyMdi1T7k8QUTdQiuhYKCwnN0vedCK4DV604LbT8WdFw/eVUyhlPezqemFsEXBR9UyWFSEiKlyccdVYjRSzL0RgCR90opzNmRm6Rmrg3IfPu+cihs/5Xz0lh5lten3CiPvuC1kdNCWWnzh+0zCZm2zEQNvOeS8pqB7e3V8uRw5B3GntiyeBbVPjCy62RpvM0v7KaXL1pWzNbzu53zcmJZZe0AiN9ma7aW0TG/lS6LGmoSKfLw8LQgN/8tEYYq2wsijqiQffv2/dKEBNGCX2gmQCVEYiQvJCRUS74p5OTkvjQbkFBYoidxGLFNbsqQgb4kOPlkIQFAYODmIFdu5Ol8NbSNbP3iTiN76mAhHwe2EZRzj0BQoQzETQUgz/M5Oc3t27fNkNfnguzsqIDgkaI0+VT5cWI/AlavEdU5oWLKlClnVq1atY0cJioqWsWqPbTHYtU+WsGFbTjv7Fx3Mvpjh974fdEvO8hhfLzczeNUB/3FTllakWdJL066n9h7ZSWZvD8fvDCBbZT3nej9K+mORp/bs/wX2rCF//Q/Uc4zkxAVqrgV7DwM1sPiM+w3H4s/CsLsfjguwNdlrjU5LXhTMyaMPkebx3wTjRB69hBAc99ERyXuRWGZyquicmUIc7Aw2g0DH4z2c0TnNyAybWPDp2YRmOKRhJrJEA59buYmY08zO+630GVRg+YWNHWgckGTCMLgyUvEsZIHVHBorlVXV/cjhK24uPhL0xT6smCh3Y/WxSb6T6BZQzzRGcDR/waEskMZQKiFhYU7mhAwpYOIr6yslHZ1db3o4+Mze/z48Ylg+7lz55ySkpI6zeOhLROr+zGCjWvE0jkB8SbyoQWVvbapqUmQ2EbN9v5U6cjHYtU+8OjJGcA28prj2LzuXxim0P+p7uh/5qPRg5ubCwZb+FoZTF4lZtsjT+irNFP0VGNgGkXOsyKtWU6BGfeevB1PborRwsweRsCUjZC4u2vAM6yoqZeismXzqinrvjV/JGLeMKXD7dClE+eu3FsJU1PgLYrx6kOSGe0XuHnRXGvP0KswxYMIO7Rx/qJvtYMZbIka9HWQKywwcODAVxoaGrcOHDjg6+7uvgrSHDp0aB9qEiSy2jcDzQjo2D148OA+6NwFTyQoKGgrs/2kpKSK3759q0Jsw5MeNW0v7dq1KwgJwRq4IaCD/+7du6bGxsYx4A2wU152AM8COq1DQ0M3QtMHzgN4V0Q8CB48bZWVlbNBmD5+/CiFmlsrQSAYlYnV/RgBfXFdvUZkqOoBDFrAAIKqqmpWWlraDAMDg3gQqjNnzrjQy4dd+2CqysSJE6PgXERHR9uBhz9hwoQLIGTddd37S4iWQMd2wq3cBUfdFljQxkOHeW39J3FYH6EkQ3c2vLqyfKYHEpRdJ6747g257q2urJABnuK32gVYepy+Bh4gdNKHeFlNe/isSJto6g6Vl3rWlbwZ8cfaWav+ynk18W1xxVCbLaGJd8NcFSTFhenOwzRCTXkF5JkVllQNhm0Qxu58m4ItUTt//vwaWMhhZ8+eHY0qk4Ufwtzc/Bk0A3R0dJJg5IqdvCEPGLmDyarQhFu8eLEv9Knx8/N/orePlZXVXm9v76CYmBhbuJlgrhRqplojQdwCHc8VFRUyqNlbDiNr6GaIZseebwHKAKOf1tbW95DHWQk3IHSIQxyIv4ODgxuyKxluQujMhhsxMzNzErMysbIfK7Z19RoRUNWDzZs3L4PBDWSn+/bt20+j6/cIRoDB1itXrizhhH3z5s3z9/X1PZifnz8GHiIwiEB4Zt113VfP1d+/9fOs9w0HLp7c6zR7BTne1O5oHrG+Yvb4A4zyWjVHzy8lM9/sdvaLSeC53Aldr0h0sDOao0aOlxATqiTCwEsCUUvJyp86eNqWTl62+8rJrrR5cJIrR+3V1S12lzc1twrMRB5oWrDzUEbpI1CzWn+p72tY9/ewMO9O21gWNeRFTWEUv3PnTrruJIwekrdhOgB6ina6iPB0RU/qqcQ2DO3DDUw05agAzygiIqJTJyykhzlUtPOoGNlDFaamppaekpLSqVPVw8NjJb08AWlp6SJ0o00jh82dOzeAWLe0tPSBhRyPbkIP8jZVmVjZjwx4K7RhMILKzjWiB7N6AN6yv79/pwEe2gENqmMxsw9AHt0LmF5DFcfKdacl5maONQwK0IYj76z0N3N9H3ip22amzuGAqD83FJd9VICRzJib2VYWv447WVJRM/Bmxt9mxDukirKSrww1hl37+iidOeNtY6Kx8I8y1GSVmrrmWHZmuKsceODaakppr4rKR1Dt89NQ2RwxYcGPsL589ni/h/nvxpnoqMRCcxNeR9ofdsOLsGOAlPi7+EO2mlSDEJxEWJC/9vzeFUaznY+nF7yvHOLkEx12wHWeFb308FbBqe1WZjDiKSv19atanOSHmXz79OnTcVAxBw0a9AzmrMGco8mTJ/9fT9uF6X1wfe7PQ81GsUzSlzTIlFbWyEXvW6kP66nBjsMMlvq9hteBWlra+M5czrQlp4XXg1KDHDv198EIZ9176pHMm8fXjtRctKe0vKpOxtTuSN6NwLWqkUgg6Nl7+Yj9WGJ98njVi09iPL/kC/1csDAqL7yT2tTWyvAF/m8BRN/FepLHvtAbuy4m51ia6qrEKgyQfA1xVKO4xlojLlPlw8XVBybgcsy+H0bUoFMd5nVBXwiIG3QAQ7Orp+3C9D6clhh73UBeFqM0lmZa/sQ6TE2AF7ZPx911CIq57VJd19gXwvuKClU6W03cSjUdYuMyU7eTF+84zzPR+GqED/qf9q+bY3M08pa7vnrX+tVYwXFxR3mnzzIec5ZZWiszbf+3JZWDyWGzUfnel31UHDFI5qtPDa1ZOME760mB/suCDyPhZXcQ2KfI+51mMIpy4jYVdvMN995/WqD709B/JxN3hR9G1PT19RNg6Wk7MD8mrDaPWQHdiDthYXc/mxk6R2FhJa2Zodp5WOjFz500NgwWdm34Fljx5gh2OEy3pw1j1KwEQrZbdnpAnPdZQen90oPZtBB2+WFEDYPBYDgBFjUMBtOrwKKGwWB6FV+JGnzRMjT+rkP6w9e/lFfVyggL8ddqjlRMh28lqQ2Xu98TRmIwGAyrdBK1qGsPlsK7Yw2fmoXJ4TCaAa9FrJqnv3/DUpNNPBz+8CAGg8Fwii+iduFmjqWL34VT9BLCHzcERv3pCi/LduX9MQwGg+lOOkStorq+P3horOwQfPGOk5nBqPOaqop3utc0DAaDYZ8OUYNmJ/FSLjPgEySnYtPXYlHDYDA/Ih2iBt80Z2enzFzqV0swGAymp+kQtaqahq++vcSIsqpamYS0vPndY9LXfKxtkPxex8KwR1NziwDtwBLmxwFaYMz+uLk3IS0p+r5D1ESE+Fn+LjrQ0trG57A7guF/CHQn4iKCVfT+/ATTs/Dx8jQJC/LV9bQdGGrgKxm9efaC0sB+zztEbfyYIckpn/8vkBVm/TLm7MEN5ky/kYXBYDDfmw5RMzfROH3wbMrW+sYmEVZ2WjJNK4B5KgwGg/n+dIgafPtp8+qpzpsOXTrObAeLyZon4YN23W8aBoPBsM+XybeLpow7UVvfKL7n1LU/Wkj/TUgG0uywn+7w/czDYDAY9ugkXqvm6u+fqKWSAPPQbj94YfK+vFpegJ+3UWf04FSbGTpH9NSH3uwpQzEYDIYV/gc/+WhbTNETrgAAAABJRU5ErkJggg==&quot; width=&quot;309&quot; height=&quot;46&quot;&gt;&lt;/div&gt;&lt;div&gt;Data production overview: Processing partner systems to stage 4&lt;br&gt;&lt;/div&gt;&lt;div&gt;Version 0.1&lt;/div&gt;&lt;div&gt;14 February 2020&lt;br&gt;&lt;/div&gt;" style="text;html=1;strokeColor=none;fillColor=none;spacing=5;spacingTop=-20;whiteSpace=wrap;overflow=hidden;rounded=0;" vertex="1" parent="fQXPI3kDC-Th25V9sKJi-1">
          <mxGeometry x="10" y="10" width="360" height="90" as="geometry"/>
        </mxCell>
        <mxCell id="HCu-c6_ubKvSadkO5TaH-1" value="EURHISFIRM data production" style="swimlane;html=1;horizontal=0;startSize=20;" vertex="1" parent="fQXPI3kDC-Th25V9sKJi-1">
          <mxGeometry x="10" y="100" width="2690" height="1450" as="geometry"/>
        </mxCell>
        <mxCell id="HCu-c6_ubKvSadkO5TaH-2" value="Partner systems" style="swimlane;html=1;horizontal=0;swimlaneLine=0;" vertex="1" parent="HCu-c6_ubKvSadkO5TaH-1">
          <mxGeometry x="20" y="1" width="2670" height="169" as="geometry">
            <mxRectangle x="20" y="1" width="30" height="90" as="alternateBounds"/>
          </mxGeometry>
        </mxCell>
        <mxCell id="F6zof3yLUQg8hGh9aLvV-3" value="API&#39;s for syncing ID&#39;s" style="shape=mxgraph.bpmn.shape;html=1;verticalLabelPosition=bottom;labelBackgroundColor=#ffffff;verticalAlign=top;align=center;perimeter=ellipsePerimeter;outlineConnect=0;outline=throwing;symbol=signal;" vertex="1" parent="HCu-c6_ubKvSadkO5TaH-2">
          <mxGeometry x="95" y="54" width="50" height="50" as="geometry"/>
        </mxCell>
        <mxCell id="F6zof3yLUQg8hGh9aLvV-4" value="" style="shape=mxgraph.bpmn.shape;html=1;verticalLabelPosition=bottom;labelBackgroundColor=#ffffff;verticalAlign=top;align=center;perimeter=ellipsePerimeter;outlineConnect=0;outline=catching;symbol=signal;" vertex="1" parent="HCu-c6_ubKvSadkO5TaH-2">
          <mxGeometry x="764" y="59.5" width="50" height="50" as="geometry"/>
        </mxCell>
        <mxCell id="N6j_wbR2L-7f0zjFfJJk-56" value="" style="shape=mxgraph.bpmn.shape;html=1;verticalLabelPosition=bottom;labelBackgroundColor=#ffffff;verticalAlign=top;align=center;perimeter=ellipsePerimeter;outlineConnect=0;outline=catching;symbol=signal;" vertex="1" parent="HCu-c6_ubKvSadkO5TaH-2">
          <mxGeometry x="935" y="59" width="50" height="50" as="geometry"/>
        </mxCell>
        <mxCell id="N6j_wbR2L-7f0zjFfJJk-65" value="&lt;div&gt;APIs for synching &lt;br&gt;&lt;/div&gt;&lt;div&gt;financial data will API enforce CDM?&lt;br&gt;&lt;/div&gt;" style="shape=mxgraph.bpmn.shape;html=1;verticalLabelPosition=bottom;labelBackgroundColor=#ffffff;verticalAlign=top;align=center;perimeter=ellipsePerimeter;outlineConnect=0;outline=throwing;symbol=signal;" vertex="1" parent="HCu-c6_ubKvSadkO5TaH-2">
          <mxGeometry x="1420" y="60" width="50" height="50" as="geometry"/>
        </mxCell>
        <mxCell id="N6j_wbR2L-7f0zjFfJJk-79" value="" style="shape=mxgraph.bpmn.shape;html=1;verticalLabelPosition=bottom;labelBackgroundColor=#ffffff;verticalAlign=top;align=center;perimeter=ellipsePerimeter;outlineConnect=0;outline=catching;symbol=signal;" vertex="1" parent="HCu-c6_ubKvSadkO5TaH-2">
          <mxGeometry x="1680" y="60" width="50" height="50" as="geometry"/>
        </mxCell>
        <mxCell id="HCu-c6_ubKvSadkO5TaH-3" value="Central centre of coordination" style="swimlane;html=1;horizontal=0;swimlaneLine=0;startSize=26;" vertex="1" parent="HCu-c6_ubKvSadkO5TaH-1">
          <mxGeometry x="20" y="170" width="2670" height="1280" as="geometry"/>
        </mxCell>
        <mxCell id="HCu-c6_ubKvSadkO5TaH-4" value="Stock exchange process new input" style="shape=ext;rounded=1;html=1;whiteSpace=wrap;" vertex="1" parent="HCu-c6_ubKvSadkO5TaH-3">
          <mxGeometry x="540" y="411" width="120" height="80" as="geometry"/>
        </mxCell>
        <mxCell id="HCu-c6_ubKvSadkO5TaH-7" value="Infrastructure DB" style="shape=datastore;whiteSpace=wrap;html=1;" vertex="1" parent="HCu-c6_ubKvSadkO5TaH-3">
          <mxGeometry x="451" y="285" width="60" height="60" as="geometry"/>
        </mxCell>
        <mxCell id="HCu-c6_ubKvSadkO5TaH-8" value="" style="endArrow=none;dashed=1;html=1;entryX=0.25;entryY=1;entryDx=0;entryDy=0;exitX=0.5;exitY=0;exitDx=0;exitDy=0;" edge="1" parent="HCu-c6_ubKvSadkO5TaH-3" source="HCu-c6_ubKvSadkO5TaH-7" target="N6j_wbR2L-7f0zjFfJJk-8">
          <mxGeometry width="50" height="50" relative="1" as="geometry">
            <mxPoint x="340" y="118" as="sourcePoint"/>
            <mxPoint x="1056" y="19" as="targetPoint"/>
          </mxGeometry>
        </mxCell>
        <mxCell id="HCu-c6_ubKvSadkO5TaH-9" value="input and update" style="text;html=1;resizable=0;points=[];align=center;verticalAlign=middle;labelBackgroundColor=#ffffff;" vertex="1" connectable="0" parent="HCu-c6_ubKvSadkO5TaH-8">
          <mxGeometry x="0.2121" y="-3" relative="1" as="geometry">
            <mxPoint as="offset"/>
          </mxGeometry>
        </mxCell>
        <mxCell id="HCu-c6_ubKvSadkO5TaH-10" value="" style="edgeStyle=orthogonalEdgeStyle;rounded=0;orthogonalLoop=1;jettySize=auto;html=1;exitX=1;exitY=0.5;exitDx=0;exitDy=0;" edge="1" parent="HCu-c6_ubKvSadkO5TaH-3" source="N6j_wbR2L-7f0zjFfJJk-8" target="HCu-c6_ubKvSadkO5TaH-16">
          <mxGeometry relative="1" as="geometry"/>
        </mxCell>
        <mxCell id="HCu-c6_ubKvSadkO5TaH-11" value="Securities process new input" style="shape=ext;rounded=1;html=1;whiteSpace=wrap;" vertex="1" parent="HCu-c6_ubKvSadkO5TaH-3">
          <mxGeometry x="540" y="540" width="120" height="80" as="geometry"/>
        </mxCell>
        <mxCell id="HCu-c6_ubKvSadkO5TaH-16" value="Feedback legal entity and subdiaries hierarchy " style="shape=ext;rounded=1;html=1;whiteSpace=wrap;" vertex="1" parent="HCu-c6_ubKvSadkO5TaH-3">
          <mxGeometry x="729" y="133" width="120" height="75" as="geometry"/>
        </mxCell>
        <mxCell id="HCu-c6_ubKvSadkO5TaH-19" value="Approved" style="edgeStyle=orthogonalEdgeStyle;rounded=0;orthogonalLoop=1;jettySize=auto;html=1;entryX=0;entryY=0.5;entryDx=0;entryDy=0;exitX=1;exitY=0.5;exitDx=0;exitDy=0;" edge="1" parent="HCu-c6_ubKvSadkO5TaH-3" target="HCu-c6_ubKvSadkO5TaH-18">
          <mxGeometry relative="1" as="geometry">
            <mxPoint x="190" y="353" as="targetPoint"/>
            <mxPoint x="1050" y="125" as="sourcePoint"/>
          </mxGeometry>
        </mxCell>
        <mxCell id="HCu-c6_ubKvSadkO5TaH-31" value="&lt;div&gt;EURHISFIRM &lt;br&gt;&lt;/div&gt;&lt;div&gt;central support&lt;/div&gt;" style="swimlane;html=1;horizontal=0;swimlaneLine=0;startSize=33;" vertex="1" parent="HCu-c6_ubKvSadkO5TaH-3">
          <mxGeometry y="1030" width="2670" height="250" as="geometry"/>
        </mxCell>
        <mxCell id="F6zof3yLUQg8hGh9aLvV-5" value="Receive processing request and data" style="shape=ext;rounded=1;html=1;whiteSpace=wrap;" vertex="1" parent="HCu-c6_ubKvSadkO5TaH-31">
          <mxGeometry x="50" y="50" width="120" height="80" as="geometry"/>
        </mxCell>
        <mxCell id="F6zof3yLUQg8hGh9aLvV-10" value="Staged data" style="shape=datastore;whiteSpace=wrap;html=1;" vertex="1" parent="HCu-c6_ubKvSadkO5TaH-31">
          <mxGeometry x="210" y="60" width="60" height="60" as="geometry"/>
        </mxCell>
        <mxCell id="F6zof3yLUQg8hGh9aLvV-11" value="" style="endArrow=none;dashed=1;html=1;entryX=0;entryY=0.5;entryDx=0;entryDy=0;exitX=1;exitY=0.5;exitDx=0;exitDy=0;" edge="1" parent="HCu-c6_ubKvSadkO5TaH-31" source="F6zof3yLUQg8hGh9aLvV-5" target="F6zof3yLUQg8hGh9aLvV-10">
          <mxGeometry width="50" height="50" relative="1" as="geometry">
            <mxPoint x="120" y="110" as="sourcePoint"/>
            <mxPoint x="170" y="60" as="targetPoint"/>
          </mxGeometry>
        </mxCell>
        <mxCell id="N6j_wbR2L-7f0zjFfJJk-66" value="Receive processing request and datasets" style="shape=ext;rounded=1;html=1;whiteSpace=wrap;" vertex="1" parent="HCu-c6_ubKvSadkO5TaH-31">
          <mxGeometry x="1383" y="45" width="120" height="80" as="geometry"/>
        </mxCell>
        <mxCell id="N6j_wbR2L-7f0zjFfJJk-67" value="Staged data" style="shape=datastore;whiteSpace=wrap;html=1;" vertex="1" parent="HCu-c6_ubKvSadkO5TaH-31">
          <mxGeometry x="1490" y="160" width="60" height="60" as="geometry"/>
        </mxCell>
        <mxCell id="N6j_wbR2L-7f0zjFfJJk-74" value="" style="endArrow=none;dashed=1;html=1;exitX=0.5;exitY=1;exitDx=0;exitDy=0;entryX=0.5;entryY=0;entryDx=0;entryDy=0;" edge="1" parent="HCu-c6_ubKvSadkO5TaH-31" source="N6j_wbR2L-7f0zjFfJJk-66" target="N6j_wbR2L-7f0zjFfJJk-67">
          <mxGeometry width="50" height="50" relative="1" as="geometry">
            <mxPoint x="1500" y="110" as="sourcePoint"/>
            <mxPoint x="1550" y="60" as="targetPoint"/>
          </mxGeometry>
        </mxCell>
        <mxCell id="N6j_wbR2L-7f0zjFfJJk-75" value="" style="shape=mxgraph.bpmn.shape;html=1;verticalLabelPosition=bottom;labelBackgroundColor=#ffffff;verticalAlign=top;align=center;perimeter=ellipsePerimeter;outlineConnect=0;outline=standard;symbol=timer;" vertex="1" parent="HCu-c6_ubKvSadkO5TaH-31">
          <mxGeometry x="1560" y="60" width="50" height="50" as="geometry"/>
        </mxCell>
        <mxCell id="N6j_wbR2L-7f0zjFfJJk-78" value="&lt;div&gt;(per dataset) &lt;br&gt;&lt;/div&gt;&lt;div&gt;is CDM compliant?&lt;/div&gt;" style="shape=mxgraph.bpmn.shape;html=1;verticalLabelPosition=bottom;labelBackgroundColor=#ffffff;verticalAlign=top;align=center;perimeter=rhombusPerimeter;background=gateway;outlineConnect=0;outline=none;symbol=exclusiveGw;" vertex="1" parent="HCu-c6_ubKvSadkO5TaH-31">
          <mxGeometry x="1680" y="60" width="50" height="50" as="geometry"/>
        </mxCell>
        <mxCell id="N6j_wbR2L-7f0zjFfJJk-80" value="" style="endArrow=block;endFill=1;endSize=6;html=1;entryX=0;entryY=0.5;entryDx=0;entryDy=0;" edge="1" parent="HCu-c6_ubKvSadkO5TaH-31" source="N6j_wbR2L-7f0zjFfJJk-75" target="N6j_wbR2L-7f0zjFfJJk-78">
          <mxGeometry width="100" relative="1" as="geometry">
            <mxPoint x="1540" y="-580" as="sourcePoint"/>
            <mxPoint x="1600" y="-580" as="targetPoint"/>
          </mxGeometry>
        </mxCell>
        <mxCell id="N6j_wbR2L-7f0zjFfJJk-87" value="" style="endArrow=none;dashed=1;html=1;entryX=0.5;entryY=1;entryDx=0;entryDy=0;exitX=0.5;exitY=0;exitDx=0;exitDy=0;" edge="1" parent="HCu-c6_ubKvSadkO5TaH-31" source="N6j_wbR2L-7f0zjFfJJk-67" target="N6j_wbR2L-7f0zjFfJJk-78">
          <mxGeometry width="50" height="50" relative="1" as="geometry">
            <mxPoint x="1560" y="110" as="sourcePoint"/>
            <mxPoint x="1610" y="60" as="targetPoint"/>
          </mxGeometry>
        </mxCell>
        <mxCell id="HCu-c6_ubKvSadkO5TaH-35" value="Common Data Model definitions" style="shape=datastore;whiteSpace=wrap;html=1;" vertex="1" parent="HCu-c6_ubKvSadkO5TaH-31">
          <mxGeometry x="1730" y="150" width="60" height="60" as="geometry"/>
        </mxCell>
        <mxCell id="TKiQQat1t_wXGf8YWpyB-2" value="" style="endArrow=none;dashed=1;html=1;" edge="1" parent="HCu-c6_ubKvSadkO5TaH-31" source="N6j_wbR2L-7f0zjFfJJk-78" target="HCu-c6_ubKvSadkO5TaH-35">
          <mxGeometry width="50" height="50" relative="1" as="geometry">
            <mxPoint x="1290" y="410" as="sourcePoint"/>
            <mxPoint x="1340" y="360" as="targetPoint"/>
          </mxGeometry>
        </mxCell>
        <mxCell id="N6j_wbR2L-7f0zjFfJJk-82" value="Synched ID&#39;s used?" style="shape=mxgraph.bpmn.shape;html=1;verticalLabelPosition=bottom;labelBackgroundColor=#ffffff;verticalAlign=top;align=center;perimeter=rhombusPerimeter;background=gateway;outlineConnect=0;outline=none;symbol=exclusiveGw;" vertex="1" parent="HCu-c6_ubKvSadkO5TaH-31">
          <mxGeometry x="1820" y="60" width="50" height="50" as="geometry"/>
        </mxCell>
        <mxCell id="N6j_wbR2L-7f0zjFfJJk-85" value="yes" style="endArrow=block;endFill=1;endSize=6;html=1;" edge="1" parent="HCu-c6_ubKvSadkO5TaH-31" source="N6j_wbR2L-7f0zjFfJJk-78" target="N6j_wbR2L-7f0zjFfJJk-82">
          <mxGeometry width="100" relative="1" as="geometry">
            <mxPoint x="1630" y="-580" as="sourcePoint"/>
            <mxPoint x="1730" y="-580" as="targetPoint"/>
          </mxGeometry>
        </mxCell>
        <mxCell id="TKiQQat1t_wXGf8YWpyB-3" value="Infrastructure DB" style="shape=datastore;whiteSpace=wrap;html=1;" vertex="1" parent="HCu-c6_ubKvSadkO5TaH-31">
          <mxGeometry x="1880" y="150" width="60" height="60" as="geometry"/>
        </mxCell>
        <mxCell id="TKiQQat1t_wXGf8YWpyB-4" value="" style="endArrow=none;dashed=1;html=1;entryX=0.5;entryY=0;entryDx=0;entryDy=0;exitX=0.75;exitY=0.75;exitDx=0;exitDy=0;exitPerimeter=0;" edge="1" parent="HCu-c6_ubKvSadkO5TaH-31" source="N6j_wbR2L-7f0zjFfJJk-82" target="TKiQQat1t_wXGf8YWpyB-3">
          <mxGeometry width="50" height="50" relative="1" as="geometry">
            <mxPoint x="760" y="410" as="sourcePoint"/>
            <mxPoint x="810" y="360" as="targetPoint"/>
          </mxGeometry>
        </mxCell>
        <mxCell id="TKiQQat1t_wXGf8YWpyB-5" value="Process financial data (what happens with recurrences??)" style="shape=ext;rounded=1;html=1;whiteSpace=wrap;" vertex="1" parent="HCu-c6_ubKvSadkO5TaH-31">
          <mxGeometry x="1955" y="45" width="120" height="80" as="geometry"/>
        </mxCell>
        <mxCell id="TKiQQat1t_wXGf8YWpyB-6" value="yes" style="endArrow=block;endFill=1;endSize=6;html=1;" edge="1" parent="HCu-c6_ubKvSadkO5TaH-31" source="N6j_wbR2L-7f0zjFfJJk-82" target="TKiQQat1t_wXGf8YWpyB-5">
          <mxGeometry width="100" relative="1" as="geometry">
            <mxPoint x="1750" y="-579" as="sourcePoint"/>
            <mxPoint x="1840" y="-580" as="targetPoint"/>
          </mxGeometry>
        </mxCell>
        <mxCell id="TKiQQat1t_wXGf8YWpyB-10" value="" style="endArrow=none;dashed=1;html=1;exitX=0.624;exitY=0.476;exitDx=0;exitDy=0;exitPerimeter=0;" edge="1" parent="HCu-c6_ubKvSadkO5TaH-31" source="TKiQQat1t_wXGf8YWpyB-3" target="TKiQQat1t_wXGf8YWpyB-5">
          <mxGeometry width="50" height="50" relative="1" as="geometry">
            <mxPoint x="1970" y="130" as="sourcePoint"/>
            <mxPoint x="2020" y="80" as="targetPoint"/>
          </mxGeometry>
        </mxCell>
        <mxCell id="TKiQQat1t_wXGf8YWpyB-11" value="" style="edgeStyle=orthogonalEdgeStyle;rounded=0;orthogonalLoop=1;jettySize=auto;html=1;" edge="1" parent="HCu-c6_ubKvSadkO5TaH-31" source="HCu-c6_ubKvSadkO5TaH-30" target="HCu-c6_ubKvSadkO5TaH-32">
          <mxGeometry relative="1" as="geometry"/>
        </mxCell>
        <mxCell id="HCu-c6_ubKvSadkO5TaH-30" value="Dataset checkout: set metadata and stage 4" style="shape=ext;rounded=1;html=1;whiteSpace=wrap;" vertex="1" parent="HCu-c6_ubKvSadkO5TaH-31">
          <mxGeometry x="2160" y="45" width="120" height="80" as="geometry"/>
        </mxCell>
        <mxCell id="TKiQQat1t_wXGf8YWpyB-8" value="" style="edgeStyle=orthogonalEdgeStyle;rounded=0;orthogonalLoop=1;jettySize=auto;html=1;entryX=0;entryY=0.5;entryDx=0;entryDy=0;" edge="1" parent="HCu-c6_ubKvSadkO5TaH-31" source="TKiQQat1t_wXGf8YWpyB-5" target="HCu-c6_ubKvSadkO5TaH-30">
          <mxGeometry relative="1" as="geometry"/>
        </mxCell>
        <mxCell id="TKiQQat1t_wXGf8YWpyB-13" value="" style="edgeStyle=orthogonalEdgeStyle;rounded=0;orthogonalLoop=1;jettySize=auto;html=1;entryX=0;entryY=0.5;entryDx=0;entryDy=0;" edge="1" parent="HCu-c6_ubKvSadkO5TaH-31" source="HCu-c6_ubKvSadkO5TaH-32" target="HCu-c6_ubKvSadkO5TaH-27">
          <mxGeometry relative="1" as="geometry">
            <mxPoint x="2540" y="85" as="targetPoint"/>
          </mxGeometry>
        </mxCell>
        <mxCell id="HCu-c6_ubKvSadkO5TaH-32" value="Indexing and access&amp;nbsp; at EU level" style="shape=ext;rounded=1;html=1;whiteSpace=wrap;" vertex="1" parent="HCu-c6_ubKvSadkO5TaH-31">
          <mxGeometry x="2340" y="45" width="120" height="80" as="geometry"/>
        </mxCell>
        <mxCell id="HCu-c6_ubKvSadkO5TaH-27" value="End data production" style="shape=mxgraph.bpmn.shape;html=1;verticalLabelPosition=bottom;labelBackgroundColor=#ffffff;verticalAlign=top;align=center;perimeter=ellipsePerimeter;outlineConnect=0;outline=throwing;symbol=general;" vertex="1" parent="HCu-c6_ubKvSadkO5TaH-31">
          <mxGeometry x="2560" y="60" width="50" height="50" as="geometry"/>
        </mxCell>
        <mxCell id="F6zof3yLUQg8hGh9aLvV-14" value="" style="endArrow=block;endFill=1;endSize=6;html=1;entryX=0;entryY=0.5;entryDx=0;entryDy=0;exitX=1;exitY=0.5;exitDx=0;exitDy=0;" edge="1" parent="HCu-c6_ubKvSadkO5TaH-3" source="N6j_wbR2L-7f0zjFfJJk-28" target="HCu-c6_ubKvSadkO5TaH-4">
          <mxGeometry width="100" relative="1" as="geometry">
            <mxPoint x="254" y="290.25662878787875" as="sourcePoint"/>
            <mxPoint x="360" y="400" as="targetPoint"/>
          </mxGeometry>
        </mxCell>
        <mxCell id="F6zof3yLUQg8hGh9aLvV-15" value="" style="endArrow=none;dashed=1;html=1;exitX=0.5;exitY=0;exitDx=0;exitDy=0;entryX=0.5;entryY=1;entryDx=0;entryDy=0;" edge="1" parent="HCu-c6_ubKvSadkO5TaH-3" source="F6zof3yLUQg8hGh9aLvV-10" target="N6j_wbR2L-7f0zjFfJJk-28">
          <mxGeometry width="50" height="50" relative="1" as="geometry">
            <mxPoint x="130" y="650" as="sourcePoint"/>
            <mxPoint x="252.5999999999999" y="286.75" as="targetPoint"/>
          </mxGeometry>
        </mxCell>
        <mxCell id="N6j_wbR2L-7f0zjFfJJk-0" value="external controlled vocabularies" style="shape=datastore;whiteSpace=wrap;html=1;" vertex="1" parent="HCu-c6_ubKvSadkO5TaH-3">
          <mxGeometry x="590" y="275" width="70" height="70" as="geometry"/>
        </mxCell>
        <mxCell id="N6j_wbR2L-7f0zjFfJJk-1" value="Input" style="endArrow=none;dashed=1;html=1;exitX=0.5;exitY=1;exitDx=0;exitDy=0;" edge="1" parent="HCu-c6_ubKvSadkO5TaH-3" source="N6j_wbR2L-7f0zjFfJJk-8" target="N6j_wbR2L-7f0zjFfJJk-0">
          <mxGeometry width="50" height="50" relative="1" as="geometry">
            <mxPoint x="420" y="310" as="sourcePoint"/>
            <mxPoint x="470" y="260" as="targetPoint"/>
          </mxGeometry>
        </mxCell>
        <mxCell id="N6j_wbR2L-7f0zjFfJJk-7" value="No" style="endArrow=block;endFill=1;endSize=6;html=1;entryX=0;entryY=0.5;entryDx=0;entryDy=0;exitX=1;exitY=0.5;exitDx=0;exitDy=0;" edge="1" parent="HCu-c6_ubKvSadkO5TaH-3" source="N6j_wbR2L-7f0zjFfJJk-29" target="N6j_wbR2L-7f0zjFfJJk-8">
          <mxGeometry width="100" relative="1" as="geometry">
            <mxPoint x="270" y="110" as="sourcePoint"/>
            <mxPoint x="370" y="110" as="targetPoint"/>
          </mxGeometry>
        </mxCell>
        <mxCell id="N6j_wbR2L-7f0zjFfJJk-8" value="Legal entity and subsidiaries deduplication, consolidation and corporate actions" style="shape=ext;rounded=1;html=1;whiteSpace=wrap;" vertex="1" parent="HCu-c6_ubKvSadkO5TaH-3">
          <mxGeometry x="511" y="130" width="120" height="80" as="geometry"/>
        </mxCell>
        <mxCell id="N6j_wbR2L-7f0zjFfJJk-10" value="yes" style="endArrow=block;endFill=1;endSize=6;html=1;entryX=0;entryY=0.5;entryDx=0;entryDy=0;exitX=1;exitY=0.5;exitDx=0;exitDy=0;" edge="1" parent="HCu-c6_ubKvSadkO5TaH-3" source="N6j_wbR2L-7f0zjFfJJk-29" target="N6j_wbR2L-7f0zjFfJJk-11">
          <mxGeometry width="100" relative="1" as="geometry">
            <mxPoint x="250" y="100" as="sourcePoint"/>
            <mxPoint x="310" y="50" as="targetPoint"/>
          </mxGeometry>
        </mxCell>
        <mxCell id="N6j_wbR2L-7f0zjFfJJk-17" value="" style="edgeStyle=orthogonalEdgeStyle;rounded=0;orthogonalLoop=1;jettySize=auto;html=1;" edge="1" parent="HCu-c6_ubKvSadkO5TaH-3" source="N6j_wbR2L-7f0zjFfJJk-11" target="N6j_wbR2L-7f0zjFfJJk-16">
          <mxGeometry relative="1" as="geometry"/>
        </mxCell>
        <mxCell id="N6j_wbR2L-7f0zjFfJJk-11" value="Contact partner system to discuss" style="html=1;whiteSpace=wrap;rounded=1;" vertex="1" parent="HCu-c6_ubKvSadkO5TaH-3">
          <mxGeometry x="511" y="20" width="120" height="80" as="geometry"/>
        </mxCell>
        <mxCell id="N6j_wbR2L-7f0zjFfJJk-12" value="" style="html=1;shape=mxgraph.bpmn.user_task;outlineConnect=0;" vertex="1" parent="N6j_wbR2L-7f0zjFfJJk-11">
          <mxGeometry width="14" height="14" relative="1" as="geometry">
            <mxPoint x="7" y="7" as="offset"/>
          </mxGeometry>
        </mxCell>
        <mxCell id="N6j_wbR2L-7f0zjFfJJk-13" value="" style="html=1;shape=plus;outlineConnect=0;" vertex="1" parent="N6j_wbR2L-7f0zjFfJJk-11">
          <mxGeometry x="0.5" y="1" width="14" height="14" relative="1" as="geometry">
            <mxPoint x="-7" y="-14" as="offset"/>
          </mxGeometry>
        </mxCell>
        <mxCell id="N6j_wbR2L-7f0zjFfJJk-14" value="" style="endArrow=block;endFill=1;endSize=6;html=1;entryX=0;entryY=0.5;entryDx=0;entryDy=0;exitX=1;exitY=0.5;exitDx=0;exitDy=0;" edge="1" parent="HCu-c6_ubKvSadkO5TaH-3" source="N6j_wbR2L-7f0zjFfJJk-28" target="N6j_wbR2L-7f0zjFfJJk-29">
          <mxGeometry width="100" relative="1" as="geometry">
            <mxPoint x="250.5" y="155.125" as="sourcePoint"/>
            <mxPoint x="230" y="110" as="targetPoint"/>
          </mxGeometry>
        </mxCell>
        <mxCell id="N6j_wbR2L-7f0zjFfJJk-16" value="" style="shape=mxgraph.bpmn.shape;html=1;verticalLabelPosition=bottom;labelBackgroundColor=#ffffff;verticalAlign=top;align=center;perimeter=ellipsePerimeter;outlineConnect=0;outline=end;symbol=error;" vertex="1" parent="HCu-c6_ubKvSadkO5TaH-3">
          <mxGeometry x="681" y="35" width="50" height="50" as="geometry"/>
        </mxCell>
        <mxCell id="N6j_wbR2L-7f0zjFfJJk-19" value="" style="endArrow=block;endFill=1;endSize=6;html=1;entryX=0;entryY=0.5;entryDx=0;entryDy=0;exitX=1;exitY=0.5;exitDx=0;exitDy=0;" edge="1" parent="HCu-c6_ubKvSadkO5TaH-3" source="HCu-c6_ubKvSadkO5TaH-4" target="N6j_wbR2L-7f0zjFfJJk-35">
          <mxGeometry width="100" relative="1" as="geometry">
            <mxPoint x="580" y="420" as="sourcePoint"/>
            <mxPoint x="951.4000000000001" y="280" as="targetPoint"/>
          </mxGeometry>
        </mxCell>
        <mxCell id="N6j_wbR2L-7f0zjFfJJk-20" value="" style="endArrow=block;endFill=1;endSize=6;html=1;exitX=1;exitY=0.5;exitDx=0;exitDy=0;entryX=0;entryY=0.5;entryDx=0;entryDy=0;" edge="1" parent="HCu-c6_ubKvSadkO5TaH-3" source="HCu-c6_ubKvSadkO5TaH-11" target="N6j_wbR2L-7f0zjFfJJk-35">
          <mxGeometry width="100" relative="1" as="geometry">
            <mxPoint x="590" y="520" as="sourcePoint"/>
            <mxPoint x="950" y="280" as="targetPoint"/>
          </mxGeometry>
        </mxCell>
        <mxCell id="N6j_wbR2L-7f0zjFfJJk-21" value="" style="endArrow=block;endFill=1;endSize=6;html=1;entryX=0;entryY=0.5;entryDx=0;entryDy=0;exitX=1;exitY=0.5;exitDx=0;exitDy=0;" edge="1" parent="HCu-c6_ubKvSadkO5TaH-3" source="N6j_wbR2L-7f0zjFfJJk-28" target="HCu-c6_ubKvSadkO5TaH-11">
          <mxGeometry width="100" relative="1" as="geometry">
            <mxPoint x="250" y="290" as="sourcePoint"/>
            <mxPoint x="350" y="290" as="targetPoint"/>
          </mxGeometry>
        </mxCell>
        <mxCell id="N6j_wbR2L-7f0zjFfJJk-22" value="Clear data from staged" style="shape=ext;rounded=1;html=1;whiteSpace=wrap;" vertex="1" parent="HCu-c6_ubKvSadkO5TaH-3">
          <mxGeometry x="1219" y="411" width="120" height="80" as="geometry"/>
        </mxCell>
        <mxCell id="N6j_wbR2L-7f0zjFfJJk-26" value="" style="endArrow=block;endFill=1;endSize=6;html=1;exitX=1;exitY=0.5;exitDx=0;exitDy=0;entryX=0;entryY=0.5;entryDx=0;entryDy=0;" edge="1" parent="HCu-c6_ubKvSadkO5TaH-3" source="HCu-c6_ubKvSadkO5TaH-16" target="N6j_wbR2L-7f0zjFfJJk-35">
          <mxGeometry width="100" relative="1" as="geometry">
            <mxPoint x="840" y="170" as="sourcePoint"/>
            <mxPoint x="950" y="272.9027777777778" as="targetPoint"/>
          </mxGeometry>
        </mxCell>
        <mxCell id="N6j_wbR2L-7f0zjFfJJk-28" value="" style="shape=mxgraph.bpmn.shape;html=1;verticalLabelPosition=bottom;labelBackgroundColor=#ffffff;verticalAlign=top;align=center;perimeter=rhombusPerimeter;background=gateway;outlineConnect=0;outline=none;symbol=parallelGw;" vertex="1" parent="HCu-c6_ubKvSadkO5TaH-3">
          <mxGeometry x="225" y="426" width="50" height="50" as="geometry"/>
        </mxCell>
        <mxCell id="N6j_wbR2L-7f0zjFfJJk-29" value="&lt;div&gt;Legal entity and &lt;br&gt;&lt;/div&gt;&lt;div&gt;subidiaries &lt;br&gt;&lt;/div&gt;&lt;div&gt;request already &lt;br&gt;&lt;/div&gt;&lt;div&gt;processed in the past &lt;br&gt;&lt;/div&gt;&lt;div&gt;and rejected by &lt;br&gt;&lt;/div&gt;&lt;div&gt;partner system?&lt;/div&gt;" style="shape=mxgraph.bpmn.shape;html=1;verticalLabelPosition=bottom;labelBackgroundColor=#ffffff;verticalAlign=top;align=center;perimeter=rhombusPerimeter;background=gateway;outlineConnect=0;outline=none;symbol=exclusiveGw;" vertex="1" parent="HCu-c6_ubKvSadkO5TaH-3">
          <mxGeometry x="340" y="70" width="50" height="50" as="geometry"/>
        </mxCell>
        <mxCell id="N6j_wbR2L-7f0zjFfJJk-36" value="" style="edgeStyle=orthogonalEdgeStyle;rounded=0;orthogonalLoop=1;jettySize=auto;html=1;" edge="1" parent="HCu-c6_ubKvSadkO5TaH-3" source="N6j_wbR2L-7f0zjFfJJk-35" target="N6j_wbR2L-7f0zjFfJJk-22">
          <mxGeometry relative="1" as="geometry"/>
        </mxCell>
        <mxCell id="N6j_wbR2L-7f0zjFfJJk-35" value="" style="shape=mxgraph.bpmn.shape;html=1;verticalLabelPosition=bottom;labelBackgroundColor=#ffffff;verticalAlign=top;align=center;perimeter=rhombusPerimeter;background=gateway;outlineConnect=0;outline=none;symbol=parallelGw;" vertex="1" parent="HCu-c6_ubKvSadkO5TaH-3">
          <mxGeometry x="1120" y="426" width="50" height="50" as="geometry"/>
        </mxCell>
        <mxCell id="N6j_wbR2L-7f0zjFfJJk-40" value="Infrastructure DB" style="shape=datastore;whiteSpace=wrap;html=1;" vertex="1" parent="HCu-c6_ubKvSadkO5TaH-3">
          <mxGeometry x="481.5" y="925" width="60" height="60" as="geometry"/>
        </mxCell>
        <mxCell id="N6j_wbR2L-7f0zjFfJJk-41" value="Feedback acounting system historical and contemporary" style="shape=ext;rounded=1;html=1;whiteSpace=wrap;" vertex="1" parent="HCu-c6_ubKvSadkO5TaH-3">
          <mxGeometry x="900" y="772.5" width="120" height="75" as="geometry"/>
        </mxCell>
        <mxCell id="N6j_wbR2L-7f0zjFfJJk-42" value="IFRS" style="shape=datastore;whiteSpace=wrap;html=1;" vertex="1" parent="HCu-c6_ubKvSadkO5TaH-3">
          <mxGeometry x="620.5" y="915" width="70" height="70" as="geometry"/>
        </mxCell>
        <mxCell id="N6j_wbR2L-7f0zjFfJJk-60" value="" style="edgeStyle=orthogonalEdgeStyle;rounded=0;orthogonalLoop=1;jettySize=auto;html=1;entryX=0;entryY=0.5;entryDx=0;entryDy=0;" edge="1" parent="HCu-c6_ubKvSadkO5TaH-3" source="N6j_wbR2L-7f0zjFfJJk-43" target="N6j_wbR2L-7f0zjFfJJk-41">
          <mxGeometry relative="1" as="geometry">
            <mxPoint x="741.5" y="810" as="targetPoint"/>
          </mxGeometry>
        </mxCell>
        <mxCell id="N6j_wbR2L-7f0zjFfJJk-43" value="Accounts and statements deduplication and consolidation" style="shape=ext;rounded=1;html=1;whiteSpace=wrap;" vertex="1" parent="HCu-c6_ubKvSadkO5TaH-3">
          <mxGeometry x="541.5" y="770" width="120" height="80" as="geometry"/>
        </mxCell>
        <mxCell id="N6j_wbR2L-7f0zjFfJJk-44" value="Contact partner system to discuss" style="html=1;whiteSpace=wrap;rounded=1;" vertex="1" parent="HCu-c6_ubKvSadkO5TaH-3">
          <mxGeometry x="541.5" y="660" width="120" height="80" as="geometry"/>
        </mxCell>
        <mxCell id="N6j_wbR2L-7f0zjFfJJk-45" value="" style="html=1;shape=mxgraph.bpmn.user_task;outlineConnect=0;" vertex="1" parent="N6j_wbR2L-7f0zjFfJJk-44">
          <mxGeometry width="14" height="14" relative="1" as="geometry">
            <mxPoint x="7" y="7" as="offset"/>
          </mxGeometry>
        </mxCell>
        <mxCell id="N6j_wbR2L-7f0zjFfJJk-46" value="" style="html=1;shape=plus;outlineConnect=0;" vertex="1" parent="N6j_wbR2L-7f0zjFfJJk-44">
          <mxGeometry x="0.5" y="1" width="14" height="14" relative="1" as="geometry">
            <mxPoint x="-7" y="-14" as="offset"/>
          </mxGeometry>
        </mxCell>
        <mxCell id="N6j_wbR2L-7f0zjFfJJk-51" value="" style="endArrow=block;endFill=1;endSize=6;html=1;entryX=0;entryY=0.5;entryDx=0;entryDy=0;" edge="1" parent="N6j_wbR2L-7f0zjFfJJk-44" target="N6j_wbR2L-7f0zjFfJJk-47">
          <mxGeometry width="100" relative="1" as="geometry">
            <mxPoint x="118.5" y="40" as="sourcePoint"/>
            <mxPoint x="208.5" y="40" as="targetPoint"/>
          </mxGeometry>
        </mxCell>
        <mxCell id="N6j_wbR2L-7f0zjFfJJk-47" value="" style="shape=mxgraph.bpmn.shape;html=1;verticalLabelPosition=bottom;labelBackgroundColor=#ffffff;verticalAlign=top;align=center;perimeter=ellipsePerimeter;outlineConnect=0;outline=end;symbol=error;" vertex="1" parent="HCu-c6_ubKvSadkO5TaH-3">
          <mxGeometry x="711.5" y="675" width="50" height="50" as="geometry"/>
        </mxCell>
        <mxCell id="N6j_wbR2L-7f0zjFfJJk-48" value="&lt;div&gt;Accounts and statements &lt;br&gt;&lt;/div&gt;&lt;div&gt;request already&lt;/div&gt;&lt;div&gt;processed in the past&lt;/div&gt;&lt;div&gt;and rejected by&lt;/div&gt;&lt;div&gt;partner system?&lt;br&gt;&lt;/div&gt;" style="shape=mxgraph.bpmn.shape;html=1;verticalLabelPosition=bottom;labelBackgroundColor=#ffffff;verticalAlign=top;align=center;perimeter=rhombusPerimeter;background=gateway;outlineConnect=0;outline=none;symbol=exclusiveGw;" vertex="1" parent="HCu-c6_ubKvSadkO5TaH-3">
          <mxGeometry x="370.5" y="710" width="50" height="50" as="geometry"/>
        </mxCell>
        <mxCell id="N6j_wbR2L-7f0zjFfJJk-49" value="" style="endArrow=block;endFill=1;endSize=6;html=1;entryX=0;entryY=0.5;entryDx=0;entryDy=0;" edge="1" parent="HCu-c6_ubKvSadkO5TaH-3" target="N6j_wbR2L-7f0zjFfJJk-48">
          <mxGeometry width="100" relative="1" as="geometry">
            <mxPoint x="270" y="450" as="sourcePoint"/>
            <mxPoint x="370" y="450" as="targetPoint"/>
          </mxGeometry>
        </mxCell>
        <mxCell id="N6j_wbR2L-7f0zjFfJJk-50" value="Yes" style="endArrow=block;endFill=1;endSize=6;html=1;entryX=0;entryY=0.5;entryDx=0;entryDy=0;exitX=1;exitY=0.5;exitDx=0;exitDy=0;" edge="1" parent="HCu-c6_ubKvSadkO5TaH-3" source="N6j_wbR2L-7f0zjFfJJk-48" target="N6j_wbR2L-7f0zjFfJJk-44">
          <mxGeometry width="100" relative="1" as="geometry">
            <mxPoint x="410" y="740" as="sourcePoint"/>
            <mxPoint x="510" y="740" as="targetPoint"/>
          </mxGeometry>
        </mxCell>
        <mxCell id="N6j_wbR2L-7f0zjFfJJk-52" value="No" style="endArrow=block;endFill=1;endSize=6;html=1;entryX=0;entryY=0.5;entryDx=0;entryDy=0;exitX=1;exitY=0.5;exitDx=0;exitDy=0;" edge="1" parent="HCu-c6_ubKvSadkO5TaH-3" source="N6j_wbR2L-7f0zjFfJJk-48" target="N6j_wbR2L-7f0zjFfJJk-43">
          <mxGeometry width="100" relative="1" as="geometry">
            <mxPoint x="390" y="740" as="sourcePoint"/>
            <mxPoint x="490" y="740" as="targetPoint"/>
          </mxGeometry>
        </mxCell>
        <mxCell id="N6j_wbR2L-7f0zjFfJJk-53" value="" style="endArrow=none;dashed=1;html=1;entryX=0.5;entryY=1;entryDx=0;entryDy=0;exitX=0.85;exitY=0.05;exitDx=0;exitDy=0;exitPerimeter=0;" edge="1" parent="HCu-c6_ubKvSadkO5TaH-3" source="N6j_wbR2L-7f0zjFfJJk-40" target="N6j_wbR2L-7f0zjFfJJk-43">
          <mxGeometry width="50" height="50" relative="1" as="geometry">
            <mxPoint x="491" y="295" as="sourcePoint"/>
            <mxPoint x="551" y="220" as="targetPoint"/>
          </mxGeometry>
        </mxCell>
        <mxCell id="N6j_wbR2L-7f0zjFfJJk-54" value="input and update" style="text;html=1;resizable=0;points=[];align=center;verticalAlign=middle;labelBackgroundColor=#ffffff;" vertex="1" connectable="0" parent="N6j_wbR2L-7f0zjFfJJk-53">
          <mxGeometry x="0.2121" y="-3" relative="1" as="geometry">
            <mxPoint as="offset"/>
          </mxGeometry>
        </mxCell>
        <mxCell id="N6j_wbR2L-7f0zjFfJJk-55" value="Input" style="endArrow=none;dashed=1;html=1;exitX=0.75;exitY=1;exitDx=0;exitDy=0;entryX=0.5;entryY=0;entryDx=0;entryDy=0;" edge="1" parent="HCu-c6_ubKvSadkO5TaH-3" source="N6j_wbR2L-7f0zjFfJJk-43" target="N6j_wbR2L-7f0zjFfJJk-42">
          <mxGeometry width="50" height="50" relative="1" as="geometry">
            <mxPoint x="581" y="220" as="sourcePoint"/>
            <mxPoint x="616.0999999999999" y="285" as="targetPoint"/>
          </mxGeometry>
        </mxCell>
        <mxCell id="N6j_wbR2L-7f0zjFfJJk-63" value="" style="endArrow=block;endFill=1;endSize=6;html=1;entryX=0;entryY=0.5;entryDx=0;entryDy=0;exitX=1;exitY=0.5;exitDx=0;exitDy=0;" edge="1" parent="HCu-c6_ubKvSadkO5TaH-3" source="N6j_wbR2L-7f0zjFfJJk-41" target="N6j_wbR2L-7f0zjFfJJk-35">
          <mxGeometry width="100" relative="1" as="geometry">
            <mxPoint x="990" y="540" as="sourcePoint"/>
            <mxPoint x="1120" y="810" as="targetPoint"/>
          </mxGeometry>
        </mxCell>
        <mxCell id="N6j_wbR2L-7f0zjFfJJk-69" value="" style="shape=mxgraph.bpmn.shape;html=1;verticalLabelPosition=bottom;labelBackgroundColor=#ffffff;verticalAlign=top;align=center;perimeter=ellipsePerimeter;outlineConnect=0;outline=standard;symbol=timer;" vertex="1" parent="HCu-c6_ubKvSadkO5TaH-3">
          <mxGeometry x="145" y="426" width="50" height="50" as="geometry"/>
        </mxCell>
        <mxCell id="N6j_wbR2L-7f0zjFfJJk-70" value="" style="endArrow=block;endFill=1;endSize=6;html=1;entryX=0;entryY=0.5;entryDx=0;entryDy=0;" edge="1" parent="HCu-c6_ubKvSadkO5TaH-3" source="N6j_wbR2L-7f0zjFfJJk-69" target="N6j_wbR2L-7f0zjFfJJk-28">
          <mxGeometry width="100" relative="1" as="geometry">
            <mxPoint x="180" y="450" as="sourcePoint"/>
            <mxPoint x="280" y="450" as="targetPoint"/>
          </mxGeometry>
        </mxCell>
        <mxCell id="F6zof3yLUQg8hGh9aLvV-9" value="&lt;div&gt;ID&#39;s for processing &lt;br&gt;&lt;/div&gt;&lt;div&gt;supranationally&lt;/div&gt;" style="endArrow=block;endFill=1;endSize=6;html=1;exitX=0.5;exitY=1;exitDx=0;exitDy=0;entryX=0.5;entryY=0;entryDx=0;entryDy=0;" edge="1" parent="HCu-c6_ubKvSadkO5TaH-1" source="F6zof3yLUQg8hGh9aLvV-3" target="F6zof3yLUQg8hGh9aLvV-5">
          <mxGeometry width="100" relative="1" as="geometry">
            <mxPoint y="900" as="sourcePoint"/>
            <mxPoint x="100" y="900" as="targetPoint"/>
          </mxGeometry>
        </mxCell>
        <mxCell id="N6j_wbR2L-7f0zjFfJJk-4" value="Consider this outcome (or reject)" style="endArrow=block;endFill=1;endSize=6;html=1;entryX=0.5;entryY=1;entryDx=0;entryDy=0;exitX=0.5;exitY=0;exitDx=0;exitDy=0;" edge="1" parent="HCu-c6_ubKvSadkO5TaH-1" source="HCu-c6_ubKvSadkO5TaH-16" target="F6zof3yLUQg8hGh9aLvV-4">
          <mxGeometry x="0.6277" width="100" relative="1" as="geometry">
            <mxPoint x="890" y="270" as="sourcePoint"/>
            <mxPoint x="990" y="270" as="targetPoint"/>
            <mxPoint as="offset"/>
          </mxGeometry>
        </mxCell>
        <mxCell id="N6j_wbR2L-7f0zjFfJJk-57" value="Consider this outcome (or reject)" style="endArrow=block;endFill=1;endSize=6;html=1;entryX=0.5;entryY=1;entryDx=0;entryDy=0;" edge="1" parent="HCu-c6_ubKvSadkO5TaH-1" source="N6j_wbR2L-7f0zjFfJJk-41" target="N6j_wbR2L-7f0zjFfJJk-56">
          <mxGeometry x="0.9039" width="100" relative="1" as="geometry">
            <mxPoint x="980" y="950" as="sourcePoint"/>
            <mxPoint x="1080" y="970" as="targetPoint"/>
            <mxPoint as="offset"/>
          </mxGeometry>
        </mxCell>
        <mxCell id="N6j_wbR2L-7f0zjFfJJk-68" value="Financial data&lt;br&gt;&lt;div&gt;&amp;nbsp;for processing &lt;br&gt;&lt;/div&gt;&lt;div&gt;supranationally&lt;/div&gt;" style="endArrow=block;endFill=1;endSize=6;html=1;entryX=0.5;entryY=0;entryDx=0;entryDy=0;" edge="1" parent="HCu-c6_ubKvSadkO5TaH-1" target="N6j_wbR2L-7f0zjFfJJk-66" source="N6j_wbR2L-7f0zjFfJJk-65">
          <mxGeometry width="100" relative="1" as="geometry">
            <mxPoint x="1460" y="110" as="sourcePoint"/>
            <mxPoint x="1410" y="805" as="targetPoint"/>
          </mxGeometry>
        </mxCell>
        <mxCell id="N6j_wbR2L-7f0zjFfJJk-81" value="&lt;div&gt;No, dataset rejected&lt;/div&gt;&lt;div&gt;with motivation&lt;br&gt;&lt;/div&gt;" style="endArrow=block;endFill=1;endSize=6;html=1;entryX=0.5;entryY=1;entryDx=0;entryDy=0;" edge="1" parent="HCu-c6_ubKvSadkO5TaH-1" source="N6j_wbR2L-7f0zjFfJJk-78" target="N6j_wbR2L-7f0zjFfJJk-79">
          <mxGeometry x="0.5918" width="100" relative="1" as="geometry">
            <mxPoint x="1630" y="600" as="sourcePoint"/>
            <mxPoint x="1730" y="600" as="targetPoint"/>
            <mxPoint as="offset"/>
          </mxGeometry>
        </mxCell>
        <mxCell id="N6j_wbR2L-7f0zjFfJJk-86" value="No" style="endArrow=block;endFill=1;endSize=6;html=1;" edge="1" parent="HCu-c6_ubKvSadkO5TaH-1" source="N6j_wbR2L-7f0zjFfJJk-82" target="N6j_wbR2L-7f0zjFfJJk-79">
          <mxGeometry width="100" relative="1" as="geometry">
            <mxPoint x="1760" y="620" as="sourcePoint"/>
            <mxPoint x="1640" y="120" as="targetPoint"/>
          </mxGeometry>
        </mxCell>
      </root>
    </mxGraphModel>
  </diagram>
</mxfile>
